<?xml version="1.0" encoding="UTF-8" standalone="no"?>
<!-- Created with Inkscape (http://www.inkscape.org/) -->
<!--marked color: 17a589-->
<svg
   version="1.1"
   id="svg2"
   width="4834.9468"
   height="4736.8398"
   viewBox="0 0 4834.9468 4736.8398"
   sodipodi:docname="Female_Muscle_Anatomy.eps"
   xmlns:inkscape="http://www.inkscape.org/namespaces/inkscape"
   xmlns:sodipodi="http://sodipodi.sourceforge.net/DTD/sodipodi-0.dtd"
   xmlns="http://www.w3.org/2000/svg"
   xmlns:svg="http://www.w3.org/2000/svg">
  <defs
     id="defs6" />
  <sodipodi:namedview
     id="namedview4"
     pagecolor="#ffffff"
     bordercolor="#000000"
     borderopacity="0.25"
     inkscape:showpageshadow="2"
     inkscape:pageopacity="0.0"
     inkscape:pagecheckerboard="0"
     inkscape:deskcolor="#d1d1d1" />
  <g
     id="g8"
     inkscape:groupmode="layer"
     inkscape:label="ink_ext_XXXXXX"
     transform="matrix(1.3333333,0,0,-1.3333333,0,4736.84)">
    <g
       id="g10"
       transform="scale(0.1)">
      <path
         d="m 4990.22,33224.6 c -65.93,371.1 114.09,1469.4 631.89,1851.7 562.65,434.3 899.37,440 1324.65,450 1312.99,-119.7 1519.09,-804.3 1522.49,-903.6 40.93,-80.6 -841.38,-354.8 -979.88,-746.7 -192.26,130.6 -395.15,-55 -494.32,-116.3 -464.92,-287.4 -377.81,-1164.4 -281.39,-1569.4 96.42,-404.9 264.43,-2659.2 137.8,-3325.7 -91.17,-54 -769.94,-18.2 -895.42,14.9 -96.54,100.1 -1560.23,-86 -1586.37,45.3 -94.02,472.2 689.42,1590.9 752.49,2651.6 21.15,355.7 -92.26,1350.1 -131.94,1648.2"
         style="fill:#515153;fill-opacity:1;fill-rule:evenodd;stroke:none"
         id="path12" />
      <path
         d="m 7933.95,34937.9 c 345.75,0 626.04,-280.3 626.04,-626.1 0,-345.7 -280.29,-626 -626.04,-626 -345.75,0 -626.04,280.3 -626.04,626 0,345.8 280.29,626.1 626.04,626.1"
         style="fill:#515153;fill-opacity:1;fill-rule:evenodd;stroke:none"
         id="path14" />
      <path
         d="m 7929.41,34783.6 c 343.25,0 621.5,-278.2 621.5,-621.5 0,-343.2 -278.25,-621.5 -621.5,-621.5 -343.24,0 -621.5,278.3 -621.5,621.5 0,343.3 278.26,621.5 621.5,621.5"
         style="fill:#bebebc;fill-opacity:1;fill-rule:evenodd;stroke:none"
         id="path16" />
      <path
         d="m 7943.02,34649.9 c 0,-404.9 205.97,-4606.3 0,-4630.9 -495.77,-59.4 -1308.78,365.4 -1454.1,453.6 -243.47,60.2 -1555.75,4027.8 1454.1,4177.3"
         style="fill:#515153;fill-opacity:1;fill-rule:evenodd;stroke:none"
         id="path18" />
      <path
         d="m 7943.02,30019 c 0,0 140.67,-99.6 1435.17,451.1 311.72,85.5 1457.51,4140.6 -1435.17,4177.8"
         style="fill:#515153;fill-opacity:1;fill-rule:evenodd;stroke:none"
         id="path20" />
      <path
         d="m 15384.8,18849.2 c -495.8,456.5 -666.7,601.5 -829,559.6 -28.3,14 -28.6,38.3 -57.9,57.9 -33.8,17.4 -19.5,39.5 -385.6,521 -804.4,1245.1 -276.7,1859.1 -1715.9,3512.1 17.4,1115.9 -147.2,1799.3 -462.7,2489.3 21.1,386.7 22.5,808.1 -77.1,1408.7 -58.9,384.5 -247,964.8 -867.6,1196.4 -544.3,167.2 -770.2,127.8 -1195.29,212.3 -893.12,160.1 -989.53,592.2 -1041.09,907 292.5,179.8 574.33,863.4 655.5,1138.5 258.3,-36 336.08,751.6 308.47,849.1 -37.29,98.1 -75.12,54.4 -154.23,57.9 225.45,2526.2 -1105.95,2474.9 -1619.48,2527.9 -513.52,-53 -1844.87,-1.7 -1619.43,-2528 -79.1,-3.4 -116.94,40.3 -154.23,-57.9 -27.6,-97.4 50.18,-885 308.47,-849 81.16,-275.1 362.98,-958.7 655.48,-1138.6 -51.56,-314.8 -147.97,-746.9 -1041.06,-906.9 -425.04,-84.5 -650.94,-45.1 -1195.28,-212.3 -620.59,-231.6 -808.67,-811.9 -867.56,-1196.4 -99.55,-600.6 -98.13,-1022.1 -77.11,-1408.7 -315.43,-690.1 -480.02,-1373.5 -462.69,-2489.4 -1439.1,-1653 -911.46,-2267 -1715.82,-3512.1 -366.06,-481.6 -351.8,-503.7 -385.57,-521 -29.25,-19.6 -29.6,-43.9 -57.84,-57.9 -162.32,41.9 -333.236,-103.1 -828.99,-559.6 C -59.3828,18661.4 8.21484,18486.1 0,18347.3 c 9.58984,-28.6 32.4063,-75.5 57.8398,-77.1 170.2622,-11 263.8402,21.5 347.0192,77.1 96.7,41.1 229.758,126.9 289.184,193 12.094,2.7 55.68,-29.1 57.832,-38.6 -223.098,-231.6 -257.289,-381.3 -289.18,-424.5 -55.988,-75.9 -348.941,-960.9 -231.351,-1215.7 34.551,-45.9 130.234,-69.7 212.066,-38.6 -54.226,-103.1 -90.41,-251.7 -77.109,-308.8 8.554,-36.7 102.012,-115.6 192.789,-96.5 50.293,10.6 95.996,80.6 134.953,135.1 2.727,-6.7 15.094,8.6 19.273,0 0.883,-73.1 106.571,-168.8 250.625,-115.8 72.739,55.7 127.459,198 212.069,366.7 5.95,-4 19.28,-19.3 19.28,-19.3 0,0 -35.42,-110.2 77.11,-115.8 113.27,-20.5 525.36,430.2 867.55,1910.4 45.66,178.9 79.92,334.6 173.51,559.6 818,1202.5 2285.72,2556.3 2332.74,3685.8 -7.17,114.5 72.49,269.3 96.39,289.5 23.9,20.2 518.38,970.2 616.92,2103.4 123.96,-492.1 311.23,-515.6 404.86,-675.4 -1.21,-164.7 23.32,-1709.7 52.27,-2469.5 8.1,-212.4 -12.06,-267.2 -71.55,-405.8 -612.91,-775.1 -2315.79,-3019.9 -38.56,-10131.1 93.32,-530 246.07,-1502.8 192.79,-1717.4 -978.5,-4093.2 -113.08,-2921.8 481.97,-6657.6 -0.62,-496 29.02,-612.6 0,-694.7 -28.8,-96 -195.98,-406.2 -96.39,-656.1 17.9,-44.9 -9.84,-97.5 0,-154.4 -32.05,-94.1 -53.24,-143.4 -96.4,-231.6 -61.34,-54 -316.71,-472.502 -308.46,-598.205 C 5740.9,646.695 5648.93,528.898 5494.46,458.797 5338.12,341.598 5366.76,80.2969 5436.63,53.4961 c 141.75,-65.0977 1789.39,-77.3008 1947.16,0 191.31,149.3989 153.95,719.0979 19.28,1273.7039 -12.28,131.4 -57.45,299 -57.84,405.2 -0.84,229.5 49.55,364.3 -19.27,578.9 -4.85,539.4 39.42,2391.1 134.95,2624.4 130.24,546.7 460.07,1768.7 192.78,3145.5 -25.49,197 -53.33,383.4 -77.11,540.3 -56.23,324.3 -88.83,544.8 -115.67,868.4 -3.51,252 18.31,504 19.27,636.8 3.75,515.6 20.83,726.7 0,887.7 5.89,112.6 18.2,135.1 38.56,270.1 94.98,553.1 516.03,5718.2 173.51,5982.2 183.37,9.9 154.75,-37.4 250.63,0 0,0.1 0,0.1 0,0.1 95.88,-37.3 67.25,9.9 250.63,0 -342.53,-264 78.54,-5429 173.51,-5982.1 20.37,-135 32.69,-157.5 38.56,-270.1 -20.82,-161 -3.75,-372.1 0,-887.7 0.97,-132.8 22.78,-384.8 19.28,-636.8 -26.84,-323.6 -59.44,-544 -115.67,-868.4 -23.79,-156.9 -51.62,-343.3 -77.12,-540.3 -267.3,-1376.8 62.54,-2598.7 192.79,-3145.4 95.53,-233.3 139.8,-2085 134.96,-2624.4 -68.83,-214.6 -18.44,-349.4 -19.28,-578.9 -0.39,-106.3 -45.55,-273.8 -57.84,-405.3 -134.67,-554.603 -172.04,-1124.205 19.28,-1273.6031 157.77,-77.3985 1805.52,-65.1016 1947.22,0 69.9,26.8008 98.5,288.1011 -57.8,405.3011 -154.5,70.097 -246.5,187.898 -385.6,366.597 8.2,125.703 -247.14,544.205 -308.49,598.205 -43.16,88.2 -64.35,137.5 -96.39,231.6 9.83,56.8 -17.9,109.4 0,154.4 99.59,249.9 -67.6,560.1 -96.4,656.1 -29.03,82.1 0.62,198.7 0,694.7 595.08,3735.7 1460.48,2564.4 481.99,6657.5 -53.29,214.6 99.49,1187.4 192.79,1717.4 2277.3,7111.1 574.4,9355.9 -38.6,10131 -59.4,138.6 -79.6,193.4 -71.5,405.8 28.9,759.8 53.5,2304.8 52.3,2469.5 93.6,159.8 280.9,183.3 404.8,675.3 98.6,-1133.1 593.1,-2083.1 617,-2103.3 23.9,-20.2 103.5,-175 96.4,-289.5 47,-1129.4 1514.8,-2483.2 2332.8,-3685.7 93.6,-225.1 127.9,-380.7 173.5,-559.7 342.2,-1480.1 754.3,-1930.8 867.6,-1910.4 112.5,5.6 77.1,115.8 77.1,115.8 0,0 13.3,15.3 19.3,19.3 84.6,-168.6 139.3,-311 212.1,-366.6 144,-53 249.7,42.7 250.6,115.8 4.2,8.5 16.5,-6.7 19.3,0 38.9,-54.6 84.6,-124.5 134.9,-135.1 90.8,-19.2 184.3,59.7 192.8,96.5 13.3,57 -22.9,205.6 -77.1,308.7 81.8,-31.1 177.5,-7.2 212.1,38.6 117.6,254.9 -175.4,1139.8 -231.4,1215.7 -31.9,43.2 -66.1,192.9 -289.2,424.6 2.2,9.5 45.8,41.2 57.9,38.6 59.4,-66.2 192.5,-152 289.2,-193 83.1,-55.7 176.7,-88.2 347,-77.2 25.4,1.6 48.3,48.5 57.8,77.2 -8.2,138.8 59.4,314 -501.2,501.7"
         style="fill:#bebebc;fill-opacity:1;fill-rule:evenodd;stroke:none"
         id="path22" />
      <path
         d="m 6354.01,22453.9 c 47.2,510 -75.83,660.1 -312.1,737.7 -77.03,28.5 -116.35,-214.5 -113.5,-936.3 0,-606.3 -47.77,-1590.9 85.12,-1844.1 104.03,-56.7 285.61,-193.2 397.23,-170.2 67.41,178.7 123.65,268.4 0,993 -4.52,465.4 -5.54,836.1 -56.75,1219.9"
         style="fill:#3e3e3f;fill-opacity:1;fill-rule:evenodd;stroke:none"
         id="path24" />
      <path
         d="m 6155.4,23333.5 c 47.28,-19 122.96,-94.6 170.24,-113.5 0.35,86.2 2.97,255.9 0,340.4 -105.85,55.7 -296.91,265 -397.23,368.9 -9.12,-361.4 110.04,-524.2 226.99,-595.8"
         style="fill:#3e3e3f;fill-opacity:1;fill-rule:evenodd;stroke:none"
         id="path26" />
         <!--Anterior Deltoid-->
      <path
         d="m 4396.25,26369.2 v -28.4 c 664.44,-37.3 1126.74,333.7 1305.18,822.8 108.35,297 143.71,701.4 198.61,1078.1 -51.78,49.6 -63.9,54.6 -170.24,0 -572.4,-402.7 -1222.13,-1028 -1333.55,-1872.5"
         style="fill:#17a589;fill-opacity:1;fill-rule:evenodd;stroke:none"
         id="path28" />
      <path
         d="m 6410.76,18794 c 72.48,-290.9 191.47,-418.1 226.99,-680.9 12.16,-90 12.16,-144.1 28.37,-255.3 23.78,-85.7 56.6,-185.4 113.49,-255.4 187.15,260.8 389.65,560.8 482.35,1021.4 -177.69,199.4 -421.04,375.5 -624.21,595.8 -326.7,354.2 -618.02,761.7 -879.58,1106.5 165.98,-513.2 476.8,-1058 652.59,-1532.1"
         style="fill:#3e3e3f;fill-opacity:1;fill-rule:evenodd;stroke:none"
         id="path30" />
      <path
         d="m 6751.24,4551.6 c -33.91,252.7 -69.93,547 -85.12,879.5 -49.43,827.8 -207.8,2061.4 -340.48,2581.8 -196.38,793.5 -341.73,1199.8 -397.23,1361.8 -60.99,-353.4 -116.89,-1001.5 28.38,-1390.2 97.09,-418.3 286.76,-1219.5 453.97,-2042.7 112.61,-669.7 211.42,-1392.2 312.1,-1900.9 58.98,-298 101.1,-620 170.25,-680.9 26.56,63.8 111.75,61.7 34.15,395.3 -6.94,55.4 -98.7,351.4 -176.02,796.3"
         style="fill:#3e3e3f;fill-opacity:1;fill-rule:evenodd;stroke:none"
         id="path32" />
      <path
         d="m 8567.33,27816.1 c 98.25,-23.6 284.59,11.6 368.86,56.8 16.57,42.8 -13.13,133.2 -28.38,170.2 -48.06,85.1 -75.19,157 -198.61,283.7 -72.64,-80.3 -166.45,-271.5 -198.61,-425.5 7.34,-24 37.84,-75.7 56.74,-85.2"
         style="fill:#3e3e3f;fill-opacity:1;fill-rule:evenodd;stroke:none"
         id="path34" />
      <path
         d="m 10610.2,20127.6 c -392.7,-1317.2 -863.24,-2784.4 -1276.78,-3972 -177.74,-1313.4 -177.07,-3057.6 -28.37,-4255.7 11.55,-56.8 70.77,-186.8 85.12,-198.6 47.28,-9.4 96.04,-2.2 141.86,0 45.91,6.5 102.66,27.5 113.5,85.1 -16.55,568.8 -12.97,1104.9 0,1645.6 276.9,696.3 1745.07,4027.4 964.67,6695.6"
         style="fill:#3e3e3f;fill-opacity:1;fill-rule:evenodd;stroke:none"
         id="path36" />
      <path
         d="m 9333.42,28043.1 c 150.87,4.6 317.37,28.7 567.46,85.1 9.46,18.9 18.92,66.2 28.38,85.1 -6.87,23.7 -85.12,56.8 -85.12,56.8 0,0 -431.1,307.6 -822.83,453.9 -78.93,47.5 -171.2,71.8 -226.99,0 -3.02,-59.3 7.28,-125.4 28.38,-170.2 220.62,-261.3 383.99,-368.3 510.72,-510.7"
         style="fill:#3e3e3f;fill-opacity:1;fill-rule:evenodd;stroke:none"
         id="path38" />
      <path
         d="m 6552.63,28043.1 c 126.72,142.4 290.09,249.4 510.72,510.7 21.09,44.8 31.4,110.9 28.37,170.2 -55.78,71.8 -148.05,47.5 -226.99,0 -391.73,-146.3 -822.82,-453.9 -822.82,-453.9 0,0 -78.26,-33.1 -85.12,-56.8 9.45,-18.9 18.91,-66.2 28.37,-85.1 250.09,-56.4 416.59,-80.5 567.47,-85.1"
         style="fill:#3e3e3f;fill-opacity:1;fill-rule:evenodd;stroke:none"
         id="path40" />
      <path
         d="m 5531.19,25262.7 c 54.13,-214 183.39,-467.7 255.36,-680.9 31,-231.8 75.99,-386.5 141.86,-510.7 43.22,257.8 45.15,536.6 56.75,624.2 -154.22,195.2 -248.48,375.9 -453.97,567.4"
         style="fill:#3e3e3f;fill-opacity:1;fill-rule:evenodd;stroke:none"
         id="path42" />
      <path
         d="m 7205.21,721.398 c 133.53,532.802 29.22,924.902 -141.86,1333.502 -120.29,287.3 -285.91,645.49 -567.47,709.3 -32.83,-207.9 -52.29,-513.7 -85.12,-737.7 -82.49,-109.9 -82.5,-197.8 -85.12,-397.2 341.56,-254.21 604.01,-565.7 879.57,-907.902"
         style="fill:#3e3e3f;fill-opacity:1;fill-rule:evenodd;stroke:none"
         id="path44" />
      <path
         d="m 6041.91,18056.4 c 453.2,-1223.1 758.06,-2069 879.57,-2354.9 127.24,-431.1 253.96,-797.4 397.23,-1276.7 52.69,-230.4 127.25,-478.5 170.23,-624.1 9.39,171.2 -18.8,496 -28.37,680.9 -16.73,323.7 -63.08,675 -113.49,964.6 -20.73,307 -74.41,548.8 -85.12,595.8 -133.2,400.6 -198.77,615.4 -624.21,1702.3 -160.61,410.3 -448.63,916.6 -737.71,1617.2 -132.91,322 -247.5,675 -368.85,1106.4 -16.18,-947.8 336.88,-1779.5 510.72,-2411.5"
         style="fill:#3e3e3f;fill-opacity:1;fill-rule:evenodd;stroke:none"
         id="path46" />
      <path
         d="m 8992.93,11190.6 c -13.28,-284.6 63.06,-843.9 283.74,-1078.1 236.14,221.6 349.69,711.1 397.23,1049.8 -222.91,191.8 -605.86,173.9 -680.97,28.3"
         style="fill:#3e3e3f;fill-opacity:1;fill-rule:evenodd;stroke:none"
         id="path48" />
      <path
         d="m 6694.49,3842.3 c -188.55,517.6 -299.41,1730.6 -397.22,2411.6 -103.23,407.2 -392.73,1836.7 -539.1,2212.9 -254.86,-1134.9 -146.34,-2012 255.36,-2865.5 190.52,-838.3 532.56,-1857.2 737.71,-2071.1 -6.98,124.8 -31.37,187.9 -56.75,312.1"
         style="fill:#3e3e3f;fill-opacity:1;fill-rule:evenodd;stroke:none"
         id="path50" />
      <path
         d="m 6722.86,3360 c -76.92,-48.1 -136.38,-118.3 -113.49,-227 68.31,-97.3 169.46,-228.5 255.36,-368.8 105.53,-172.4 158.47,-369.9 250.33,-526.31 57.71,410.31 47.91,594.51 33.4,753.31 -110.83,157.2 -270.17,252.1 -425.6,368.8"
         style="fill:#3e3e3f;fill-opacity:1;fill-rule:evenodd;stroke:none"
         id="path52" />
      <path
         d="m 6609.37,24241.3 c -112.79,-155.5 -119.36,-404.9 -121.36,-710.6 283.89,294.2 457.24,345.1 1171.17,426.9 18.92,208.1 9.47,416.2 28.38,624.2 137.27,-11.4 -685.82,200.6 -1078.19,-340.5"
         style="fill:#3e3e3f;fill-opacity:1;fill-rule:evenodd;stroke:none"
         id="path54" />
      <path
         d="m 7176.84,21801.4 c 159.92,-6.8 267.49,-78 397.22,-141.9 h 85.12 c 10.17,339.7 37.83,605.3 28.38,936.3 -217.77,124.4 -467.98,142.5 -680.96,113.5 -247.2,-66.2 -333.83,-108.5 -514.59,-240.4 -36.36,-238.6 -20.01,-452.8 32.24,-639.1 206.54,11.3 442.44,3.8 652.59,-28.4"
         style="fill:#3e3e3f;fill-opacity:1;fill-rule:evenodd;stroke:none"
         id="path56" />
      <path
         d="M 7290.33,23787.4 C 6772.58,23666.1 6270.5,23280.3 6581,22737.7 c 326.63,109 738.48,76.3 1078.18,56.7 37.83,302.6 25.42,683.9 28.38,993 -132.4,18.9 -238.72,18.8 -397.23,0"
         style="fill:#3e3e3f;fill-opacity:1;fill-rule:evenodd;stroke:none"
         id="path58" />
      <path
         d="m 6013.53,24014.4 c 48.69,-82.9 136.72,-166.2 198.62,-227 27.35,-24.7 85.12,-75.7 113.49,-85.1 -9.45,104 31.52,250 -28.37,340.4 -63.82,44.9 -204.01,157.4 -312.11,170.3 -13.62,-50.6 1.4,-152.7 28.37,-198.6"
         style="fill:#3e3e3f;fill-opacity:1;fill-rule:evenodd;stroke:none"
         id="path60" />
      <path
         d="m 6382.38,24468.3 c -120.69,8.3 -283.93,127.2 -368.85,85.1 -7.9,-26.3 -12.23,-68.8 0,-85.1 72.89,-97.2 139.22,-192 226.99,-255.3 43.48,-2.5 85.12,-56.8 113.49,-56.8 21.76,70.6 40.17,178.9 28.37,312.1"
         style="fill:#3e3e3f;fill-opacity:1;fill-rule:evenodd;stroke:none"
         id="path62" />
      <path
         d="m 5985.16,24922.3 c 29,-100.5 220.63,-249.8 312.11,-283.8 33.8,-26.9 104.03,-47.2 141.86,-56.7 18.92,9.5 37.84,47.3 56.75,56.7 17.45,37.9 28.37,75.7 28.37,113.5 v 56.8 c -144.85,32.2 -331.59,120.3 -482.34,170.2 -25.38,5.6 -51.03,-21.1 -56.75,-56.7"
         style="fill:#3e3e3f;fill-opacity:1;fill-rule:evenodd;stroke:none"
         id="path64" />
      <path
         d="m 6949.85,27872.9 c 84.27,-45.2 270.61,-80.5 368.86,-56.8 18.91,9.5 49.4,61.2 56.74,85.1 -32.15,154.1 -125.96,345.3 -198.61,425.6 -123.41,-126.7 -150.55,-198.6 -198.61,-283.7 -15.24,-37 -44.95,-127.4 -28.38,-170.2"
         style="fill:#3e3e3f;fill-opacity:1;fill-rule:evenodd;stroke:none"
         id="path66" />
      <path
         d="m 8680.83,721.695 c 275.56,342.205 538.01,653.605 879.57,907.805 -2.61,199.4 -2.63,287.3 -85.11,397.2 -32.84,224 -52.3,529.8 -85.12,737.7 -281.57,-63.8 -447.19,-422 -567.47,-709.31 C 8651.61,1646.5 8547.3,1254.4 8680.83,721.695"
         style="fill:#3e3e3f;fill-opacity:1;fill-rule:evenodd;stroke:none"
         id="path68" />
      <path
         d="M 10127.9,8467 C 9981.5,8090.7 9692.01,6661.2 9588.78,6254 9490.97,5573 9380.1,4360.1 9191.55,3842.5 c -25.38,-124.2 -49.76,-187.3 -56.75,-312.1 205.15,213.9 547.19,1232.8 737.71,2071.1 401.69,853.4 510.19,1730.6 255.39,2865.5"
         style="fill:#3e3e3f;fill-opacity:1;fill-rule:evenodd;stroke:none"
         id="path70" />
      <path
         d="m 9276.67,3133.2 c 22.89,108.7 -36.57,178.9 -113.49,227 -155.43,-116.7 -314.77,-211.6 -425.6,-368.9 -14.51,-158.7 -24.31,-342.9 33.41,-753.2 91.85,156.4 144.79,353.8 250.32,526.3 85.9,140.3 187.06,271.5 255.36,368.8"
         style="fill:#3e3e3f;fill-opacity:1;fill-rule:evenodd;stroke:none"
         id="path72" />
      <path
         d="m 9560.4,23702.3 c 28.38,9.5 86.14,60.4 113.5,85.1 61.89,60.8 149.93,144.1 198.61,227 26.98,45.9 41.99,148 28.37,198.6 -108.09,-12.8 -248.29,-125.4 -312.1,-170.2 -59.9,-90.5 -18.92,-236.5 -28.38,-340.5"
         style="fill:#3e3e3f;fill-opacity:1;fill-rule:evenodd;stroke:none"
         id="path74" />
      <path
         d="m 9560.4,8013.1 c -132.68,-520.5 -291.04,-1754 -340.48,-2581.8 -15.19,-332.5 -51.2,-626.8 -85.12,-879.5 -77.31,-444.9 -169.08,-740.9 -176.02,-796.3 -77.59,-333.7 7.6,-331.5 34.15,-395.3 69.15,60.9 111.27,382.9 170.25,680.9 100.68,508.7 199.5,1231.2 312.11,1900.9 167.2,823.2 356.87,1624.4 453.97,2042.7 145.24,388.7 89.34,1036.7 28.37,1390.2 -55.5,-162.1 -200.85,-568.4 -397.23,-1361.8"
         style="fill:#3e3e3f;fill-opacity:1;fill-rule:evenodd;stroke:none"
         id="path76" />
         <!--Lateral Deltoid-->
      <path
         d="m 11660,26681.3 c 9.5,9.5 84.8,47.3 94.2,56.7 -17.9,1053.8 -282.1,1379.4 -831.9,1681.9 -60.5,18.2 -348.6,118.8 -397.2,-64.7 543.7,-384.7 933.4,-1121.8 1134.9,-1673.9"
         style="fill:#17a589;fill-opacity:1;fill-rule:evenodd;stroke:none"
         id="path78" />
      <path
         d="m 11992.8,21766.9 c 595.1,-932.1 1296.2,-1741.8 1908.7,-2348.6 -222.2,463.4 -664.4,1178.1 -1106.5,1702.2 -321.4,395.3 -459.7,591.9 -802.2,646.4"
         style="fill:#3e3e3f;fill-opacity:1;fill-rule:evenodd;stroke:none"
         id="path80" />
      <path
         d="m 12880.1,21347.5 c 229.2,-294.8 449.5,-603.4 624.2,-907.9 162.5,-328.5 332.7,-705.8 567.5,-936.2 -150.1,486.2 -445.3,969.4 -624.2,1532 -356.7,1121.6 -864.3,2236.1 -1503.8,2525.1 -23.3,-228.4 110,-1145 936.3,-2213"
         style="fill:#3e3e3f;fill-opacity:1;fill-rule:evenodd;stroke:none"
         id="path82" />
      <path
         d="m 9305.05,9374.9 c 180.95,98.7 377.51,233.5 482.34,283.7 62.07,171.3 133.8,1013.5 141.87,1475.3 -158.33,-833.8 -712.53,-1401.7 -624.21,-1759"
         style="fill:#3e3e3f;fill-opacity:1;fill-rule:evenodd;stroke:none"
         id="path84" />
         <!--Anterior Deltoid-->
      <path
         d="m 11489.8,26340.8 v 28.4 c -111.4,844.5 -761.2,1469.8 -1333.6,1872.5 -106.3,54.6 -118.4,49.6 -170.2,0 54.9,-376.7 90.3,-781.1 198.6,-1078.1 178.5,-489 640.8,-860.1 1305.2,-822.8"
         style="fill:#17a589;fill-opacity:1;fill-rule:evenodd;stroke:none"
         id="path86" />
      <path
         d="m 9872.51,24468.3 c 12.23,16.4 7.91,58.8 0,85.2 -84.92,42 -248.15,-76.9 -368.85,-85.2 -11.79,-133.1 6.61,-241.5 28.37,-312 28.37,0 70.01,54.2 113.5,56.7 87.76,63.4 154.09,158.2 226.98,255.3"
         style="fill:#3e3e3f;fill-opacity:1;fill-rule:evenodd;stroke:none"
         id="path88" />
      <path
         d="m 11177.7,26000.4 c -192.5,46.9 -323.4,58.2 -425.6,-85.1 -99.3,-1179.2 476.4,-1639.9 1021.4,-2213 208.2,-11.8 236.6,8.9 255.4,113.5 22.5,137.7 30.6,200.1 28.4,283.7 -19.8,725.7 -8.2,990.2 -340.5,1588.8 -135.9,185.2 -355.4,299.6 -539.1,312.1"
         style="fill:#3e3e3f;fill-opacity:1;fill-rule:evenodd;stroke:none"
         id="path90" />
      <path
         d="m 9872.51,20411.3 c 132.89,253.2 85.12,1237.7 85.12,1844.1 2.85,721.7 -36.47,964.8 -113.49,936.2 -236.28,-77.6 -359.31,-227.6 -312.11,-737.6 -51.21,-383.9 -52.23,-754.5 -56.74,-1220 -123.66,-724.5 -67.41,-814.3 0,-993 111.61,-23 293.2,113.5 397.22,170.3"
         style="fill:#3e3e3f;fill-opacity:1;fill-rule:evenodd;stroke:none"
         id="path92" />
      <path
         d="m 8538.96,15446.3 c -50.41,-289.6 -96.75,-640.9 -113.49,-964.6 -9.56,-184.9 -37.76,-509.7 -28.37,-680.9 42.98,145.6 117.55,393.7 170.23,624.1 143.27,479.3 270,845.6 397.23,1276.7 121.51,285.9 426.37,1131.8 879.58,2354.9 173.86,632 526.86,1463.6 510.76,2411.5 -121.4,-431.4 -236,-784.4 -368.9,-1106.5 -289.08,-700.5 -577.1,-1206.8 -737.7,-1617.1 -425.44,-1086.9 -491.01,-1301.7 -624.22,-1702.3 -10.71,-47 -64.38,-288.8 -85.12,-595.8"
         style="fill:#3e3e3f;fill-opacity:1;fill-rule:evenodd;stroke:none"
         id="path94" />
      <path
         d="m 8624.08,18623.9 c 92.7,-460.6 295.21,-760.6 482.35,-1021.4 56.89,70 89.72,169.7 113.49,255.4 16.21,111.2 16.21,165.3 28.38,255.3 35.51,262.8 154.5,390 226.99,680.9 175.78,474.1 486.61,1018.9 652.61,1532.1 -261.59,-344.9 -552.91,-752.3 -879.6,-1106.5 -203.18,-220.3 -446.53,-396.4 -624.22,-595.8"
         style="fill:#3e3e3f;fill-opacity:1;fill-rule:evenodd;stroke:none"
         id="path96" />
      <path
         d="m 8794.32,11502.7 c 47.29,9.5 122.96,18.9 170.24,28.4 169.13,450.5 39.69,1156.3 -56.75,1872.5 1.79,115.5 -5.3,304.3 0,425.5 21.94,501.2 157.6,1069.4 85.12,1447 -268.06,-580 -553.33,-1474.8 -567.46,-2354.8 -7.89,-491.5 0.52,-1023.9 283.73,-1390.2 28.38,-9.5 56.76,-18.9 85.12,-28.4"
         style="fill:#3e3e3f;fill-opacity:1;fill-rule:evenodd;stroke:none"
         id="path98" />
      <path
         d="m 9021.31,9289.8 c 24.94,-149.3 72.32,-244.2 113.49,-340.5 140.13,513.7 -345.22,1590.9 -368.85,2269.7 -23.63,279.8 -83.4,-1015.2 -56.75,-1191.6 45.71,-100.9 185.7,-416.6 312.11,-737.6"
         style="fill:#3e3e3f;fill-opacity:1;fill-rule:evenodd;stroke:none"
         id="path100" />
      <path
         d="m 8226.86,22794.4 c 339.7,19.6 751.55,52.3 1078.19,-56.7 310.49,542.7 -191.59,928.4 -709.34,1049.7 -158.5,18.8 -264.83,19 -397.23,0 2.97,-309.1 -9.45,-690.4 28.38,-993"
         style="fill:#3e3e3f;fill-opacity:1;fill-rule:evenodd;stroke:none"
         id="path102" />
      <path
         d="m 10354.9,25262.7 c -205.5,-191.4 -299.8,-372.1 -454.02,-567.4 11.6,-87.5 13.53,-366.3 56.75,-624.1 65.87,124.1 110.87,278.9 141.87,510.6 72,213.2 201.2,466.9 255.4,680.9"
         style="fill:#3e3e3f;fill-opacity:1;fill-rule:evenodd;stroke:none"
         id="path104" />
      <path
         d="m 9844.14,24979 c -150.76,-49.8 -337.5,-138 -482.35,-170.2 v -56.7 c 0,-37.9 10.93,-75.7 28.38,-113.5 18.91,-9.5 37.83,-47.3 56.74,-56.8 37.83,9.5 108.07,29.9 141.87,56.8 91.47,34 283.11,183.2 312.1,283.7 -5.72,35.6 -31.37,62.4 -56.74,56.7"
         style="fill:#3e3e3f;fill-opacity:1;fill-rule:evenodd;stroke:none"
         id="path106" />
      <path
         d="m 9730.64,23333.5 c 116.96,71.6 236.11,234.4 226.99,595.8 -100.31,-103.9 -291.38,-313.2 -397.23,-368.8 -2.96,-84.6 -0.35,-254.2 0,-340.5 47.29,18.9 122.96,94.6 170.24,113.5"
         style="fill:#3e3e3f;fill-opacity:1;fill-rule:evenodd;stroke:none"
         id="path108" />
      <path
         d="m 8311.98,21659.6 c 129.74,63.8 237.3,135.1 397.22,141.9 210.16,32.2 446.05,39.7 652.59,28.3 52.26,186.3 68.6,400.5 32.24,639.1 -180.76,132 -267.39,174.2 -514.59,240.4 -212.97,29.1 -463.18,10.9 -680.96,-113.4 -9.45,-331 18.22,-596.6 28.38,-936.3 h 85.12"
         style="fill:#3e3e3f;fill-opacity:1;fill-rule:evenodd;stroke:none"
         id="path110" />
      <path
         d="m 8198.48,24581.8 c 18.92,-208 9.46,-416.1 28.38,-624.1 713.94,-81.8 887.28,-132.7 1171.18,-427 -2.01,305.7 -8.57,555.1 -121.37,710.7 -392.37,541 -1215.45,329 -1078.19,340.4"
         style="fill:#3e3e3f;fill-opacity:1;fill-rule:evenodd;stroke:none"
         id="path112" />
      <path
         d="m 3005.96,21347.5 c 826.28,1068 959.57,1984.6 936.32,2212.9 -639.53,-288.9 -1147.09,-1403.4 -1503.79,-2525 -178.92,-562.6 -474.17,-1045.8 -624.21,-1532.1 234.79,230.4 404.99,607.8 567.47,936.3 174.7,304.5 394.97,613 624.21,907.9"
         style="fill:#3e3e3f;fill-opacity:1;fill-rule:evenodd;stroke:none"
         id="path114" />
      <path
         d="m 8510.59,18709 c 468.77,446.4 892.75,2265 851.2,2922.2 -594.57,89.1 -869.44,-71.7 -1134.93,-397.2 -46.18,-279.1 -42.28,-606.2 -56.75,-964.6 -19.56,-484.4 -20.99,-962.5 -28.37,-1390.2 100.42,-154.4 255.82,-179.7 368.85,-170.2"
         style="fill:#3e3e3f;fill-opacity:1;fill-rule:evenodd;stroke:none"
         id="path116" />
      <path
         d="m 8482.22,16524.4 c 38.6,-71.3 69.68,-189.8 113.49,-227 21.89,-18.5 72.06,16.1 85.12,28.4 3.09,180.4 -11.44,378.3 0,510.7 68.78,147.9 158.92,312.4 141.87,453.9 -111.83,323.5 -269.15,600.5 -453.98,1021.4 -10.08,1.4 -50.65,-8.8 -56.74,-28.4 -1.63,-138 34.75,-727.8 56.74,-879.5 48.84,-336.9 54.93,-579.1 113.5,-879.5"
         style="fill:#3e3e3f;fill-opacity:1;fill-rule:evenodd;stroke:none"
         id="path118" />
      <path
         d="m 9134.8,6622.9 c 11.54,1281.3 2.03,1377.2 -0.06,1370 -0.02,-2.7 0.15,-5.8 0.06,-8.2 -0.63,-0.5 -0.54,6.5 -0.06,8.2 1.43,260.6 -321.98,1363.5 -368.79,1410.3 -136.28,-375.4 -229.5,-902.3 -312.11,-1503.6 -60.93,-443.5 -136.75,-928.4 -113.49,-1418.6 180.81,-1095.9 412.9,-1994.5 539.09,-2581.8 209.16,713.1 302.47,1893.4 255.36,2723.7"
         style="fill:#3e3e3f;fill-opacity:1;fill-rule:evenodd;stroke:none"
         id="path120" />
      <path
         d="m 9049.68,863.496 c -30.19,-191.199 70.95,-504.898 170.24,-737.598 176.64,-13.699 718.83,-27.3003 1049.78,141.797 -217.5,321.5 -524.29,687.801 -709.3,964.605 -292.55,-75 -440.6,-294.304 -510.72,-368.804"
         style="fill:#3e3e3f;fill-opacity:1;fill-rule:evenodd;stroke:none"
         id="path122" />
      <path
         d="M 8879.44,778.398 C 8763.1,691.098 8682.45,602.5 8624.08,466.297 c -26.75,-62.399 26.76,-221.297 0,-283.703 18.92,-9.496 37.84,-47.297 56.75,-56.696 h 283.73 c 9.46,18.899 18.92,66.2 28.37,85.098 29.32,164.699 -2.41,558.301 -113.49,567.402"
         style="fill:#3e3e3f;fill-opacity:1;fill-rule:evenodd;stroke:none"
         id="path124" />
      <path
         d="m 8397.1,24837.2 c 438.27,-166.7 1233.15,136.7 2156.4,680.9 -118,709.2 -356,1251.1 -652.62,1588.8 -253.2,288.2 -549.02,418 -851.2,482.3 -116.22,49.7 -564.25,10.7 -907.94,-85.1 -37.83,-37.9 -24.73,-37.1 -28.37,-85.2 -38.77,-1013.2 -152.25,-1805.7 -47.11,-2236.1 27.44,-112.3 246.6,-302.1 330.84,-345.6"
         style="fill:#3e3e3f;fill-opacity:1;fill-rule:evenodd;stroke:none"
         id="path126" />
      <path
         d="m 7914.55,28071.5 c -235.63,401.8 -420.02,1008.3 -696.13,1261.7 -26.03,-209.8 -37.75,-397.3 -13.21,-552.4 134.46,-398.1 426.18,-792.5 595.84,-1191.6 9.46,-9.5 124.62,-86.1 113.5,0 v 482.3"
         style="fill:#3e3e3f;fill-opacity:1;fill-rule:evenodd;stroke:none"
         id="path128" />
      <path
         d="m 7744.3,27504 c -343.68,95.9 -791.72,134.8 -907.94,85.2 -302.17,-64.3 -597.99,-194.1 -851.2,-482.4 -296.64,-337.7 -534.59,-879.5 -652.59,-1588.7 923.23,-544.2 1718.1,-847.6 2156.37,-681 84.24,43.6 303.4,233.3 330.84,345.7 105.14,430.4 -8.34,1222.9 -47.1,2236.1 -3.65,48.1 9.45,47.3 -28.38,85.1"
         style="fill:#3e3e3f;fill-opacity:1;fill-rule:evenodd;stroke:none"
         id="path130" />
      <path
         d="m 8226.86,29064.5 c -45.44,73.6 -132.43,56.7 -283.73,56.7 v -766 c 93.15,159.6 307.76,499.8 283.73,709.3"
         style="fill:#3e3e3f;fill-opacity:1;fill-rule:evenodd;stroke:none"
         id="path132" />
      <path
         d="m 8680.83,28780.8 c 24.54,155.2 12.82,342.6 -13.21,552.4 -276.11,-253.4 -460.5,-859.9 -696.12,-1261.7 v -482.3 c -11.13,-86.1 104.04,-9.5 113.49,0 169.66,399.1 461.38,793.5 595.84,1191.6"
         style="fill:#3e3e3f;fill-opacity:1;fill-rule:evenodd;stroke:none"
         id="path134" />
      <path
         d="m 7659.18,29064.5 c -24.02,-209.5 190.59,-549.7 283.74,-709.3 v 766 c -151.31,0 -238.29,16.9 -283.74,-56.7"
         style="fill:#3e3e3f;fill-opacity:1;fill-rule:evenodd;stroke:none"
         id="path136" />
      <path
         d="m 15121.6,18141.6 c -29.5,5.1 -66.6,-22.1 -113.5,-85.1 -46.9,-63.1 -29.6,-8.4 28.4,-170.3 58,-161.8 366.8,-964.6 482.3,-964.6 115.5,0 0,368.8 0,368.8 0,0 -361.3,844.9 -397.2,851.2"
         style="fill:#3e3e3f;fill-opacity:1;fill-rule:evenodd;stroke:none"
         id="path138" />
      <path
         d="m 14525.7,17545.8 c 83.8,-249.6 349.6,-808.7 454,-993 28.4,9.4 56.8,18.9 85.1,28.4 0,37.8 28.4,75.6 28.4,113.4 -132.4,302.6 -267.7,685.3 -425.6,964.7 -76.8,-25.2 -120.1,-53.1 -141.9,-113.5"
         style="fill:#3e3e3f;fill-opacity:1;fill-rule:evenodd;stroke:none"
         id="path140" />
      <path
         d="m 14781.1,17772.7 c 16.6,-267.3 342.5,-965.7 482.3,-1219.9 14.4,-18.9 110.2,-63.3 113.5,56.7 1.8,201.8 -230.8,839.2 -453.9,1248.4 -73.2,-13.9 -138.9,-20.1 -141.9,-85.2"
         style="fill:#3e3e3f;fill-opacity:1;fill-rule:evenodd;stroke:none"
         id="path142" />
      <path
         d="m 14242,17545.8 c 42.6,-205.8 195.1,-627.6 283.7,-737.7 h 56.8 c -33.7,176.8 -78.1,551.8 -255.4,709.3 -31.5,63 -96,80.9 -85.1,28.4"
         style="fill:#3e3e3f;fill-opacity:1;fill-rule:evenodd;stroke:none"
         id="path144" />
      <path
         d="m 10213,14566.8 c -115.2,-313.8 -217.5,-646 -312.12,-1049.7 -43.1,-584.4 -56.34,-1170.9 -28.37,-1560.5 16.39,-67.8 62.48,-121.1 113.49,-141.8 632.4,1628.8 1344.8,3905.3 936.3,5872.8 -43.8,-854.3 -393.4,-1967.3 -709.3,-3120.8"
         style="fill:#3e3e3f;fill-opacity:1;fill-rule:evenodd;stroke:none"
         id="path146" />
      <path
         d="m 7659.18,21234 c -265.49,325.4 -540.35,486.3 -1134.93,397.2 -41.55,-657.2 382.44,-2475.9 851.2,-2922.3 113.03,-9.4 268.43,15.8 368.85,170.2 -7.38,427.7 -8.81,905.8 -28.37,1390.2 -14.46,358.4 -10.57,685.6 -56.75,964.7"
         style="fill:#3e3e3f;fill-opacity:1;fill-rule:evenodd;stroke:none"
         id="path148" />
      <path
         d="m 15717.4,18482 c -55.7,47.2 -217.4,100.4 -368.8,198.6 -153.5,168.3 -358.4,283.6 -425.6,340.5 -95.1,52.2 -152.6,119.4 -198.6,141.8 -37.1,18.1 -64.6,0.7 -113.5,-28.3 -30.1,-74.7 89.6,-198.7 141.8,-255.4 64.6,-61.5 301.9,-211.8 510.7,-340.4 177,-109 334.2,-204.1 340.5,-198.6 37.9,9.4 47.3,18.9 85.1,28.3 27.5,2 47.3,37.9 56.8,56.8 -9.5,18.9 -18.9,37.8 -28.4,56.7"
         style="fill:#3e3e3f;fill-opacity:1;fill-rule:evenodd;stroke:none"
         id="path150" />
      <path
         d="m 11801.9,23361.9 c -319.8,278.9 -642.4,596.2 -964.7,1361.8 -63.8,86.8 -93,42.4 -113.5,-28.4 8.5,-420.8 570.4,-1172.1 936.3,-1390.2 52.9,-27.9 133.7,2.6 141.9,56.8"
         style="fill:#3e3e3f;fill-opacity:1;fill-rule:evenodd;stroke:none"
         id="path152" />
      <path
         d="m 12369.4,21801.5 h 28.3 c 125.8,133.1 -441.5,808.8 -794.4,1134.8 -41.4,4.2 -91.1,39.7 -113.5,0 -31.5,-162.7 -39,-452.2 0,-709.3 100.3,-50.2 207.1,-91.7 312.1,-141.8 191.8,-91.7 331.5,-234.2 567.5,-283.7"
         style="fill:#3e3e3f;fill-opacity:1;fill-rule:evenodd;stroke:none"
         id="path154" />
      <path
         d="m 14866.2,18113.2 c 46.3,31.8 116.2,58.9 141.9,141.9 -56.8,170.2 -116.1,329.3 -227,453.9 -9.5,18.9 -18.9,37.8 -28.4,56.7 -171.9,220.9 -356.8,529.4 -454,539.1 -130.4,-20.7 -255.3,-66.2 -397.2,-113.5 -59,-918.5 195.4,-1424.3 368.9,-1532 239.5,-26.8 315.5,261.4 595.8,453.9"
         style="fill:#3e3e3f;fill-opacity:1;fill-rule:evenodd;stroke:none"
         id="path156" />
      <path
         d="m 13163.8,20070.8 c -165.8,174.6 -291.3,344.2 -340.5,397.2 -94.4,101.8 -663.7,907.5 -907.9,1276.7 -68.5,95.1 -128.5,191.2 -141.9,198.6 -83.3,-12.6 -14.1,-144.3 0,-198.6 5.6,-85.5 312.8,-640.6 709.4,-1106.5 506.4,-594.9 1131,-1118.9 1163.3,-1134.8 60.1,-51.1 141.8,-84.5 170.2,-85.1 -91.3,100.8 -416.4,403.9 -652.6,652.5"
         style="fill:#3e3e3f;fill-opacity:1;fill-rule:evenodd;stroke:none"
         id="path158" />
      <path
         d="m 1558.92,17517.3 c -177.27,-157.5 -221.69,-532.5 -255.36,-709.3 h 56.74 c 88.62,110.1 241.12,531.9 283.74,737.7 10.87,52.5 -53.56,34.6 -85.12,-28.4"
         style="fill:#3e3e3f;fill-opacity:1;fill-rule:evenodd;stroke:none"
         id="path160" />
      <path
         d="M 963.082,17857.8 C 739.98,17448.6 507.367,16811.3 509.105,16609.4 c 3.368,-120 99.165,-75.6 113.497,-56.7 139.882,254.2 465.788,952.6 482.348,1220 -3.04,65 -68.72,71.2 -141.868,85.1"
         style="fill:#3e3e3f;fill-opacity:1;fill-rule:evenodd;stroke:none"
         id="path162" />
      <path
         d="m 3893.24,21766.8 c -342.5,-54.4 -480.8,-251 -802.16,-646.3 -442.11,-524.1 -884.29,-1238.8 -1106.56,-1702.3 612.55,606.8 1313.6,1416.5 1908.72,2348.6"
         style="fill:#3e3e3f;fill-opacity:1;fill-rule:evenodd;stroke:none"
         id="path164" />
      <path
         d="m 4112.52,23702.3 c 545.01,573.1 1120.68,1033.7 1021.44,2213 -102.21,143.3 -233.16,132 -425.6,85.1 -183.71,-12.5 -403.17,-127 -539.09,-312.1 -332.28,-598.6 -320.74,-863.2 -340.48,-1588.8 -2.28,-83.6 5.82,-146 28.37,-283.7 18.83,-104.6 47.21,-125.4 255.36,-113.5"
         style="fill:#3e3e3f;fill-opacity:1;fill-rule:evenodd;stroke:none"
         id="path166" />
      <path
         d="m 1133.32,18879.1 c 52.25,56.7 171.9,180.7 141.86,255.4 -48.95,29 -76.48,46.4 -113.49,28.4 -46,-22.4 -103.54,-89.7 -198.608,-141.9 -67.191,-56.8 -272.09,-172.2 -425.602,-340.5 -151.425,-98.1 -313.105,-151.4 -368.851,-198.6 -9.461,-18.9 -18.918,-37.8 -28.375,-56.7 9.457,-18.9 29.297,-54.8 56.746,-56.7 37.828,-9.5 47.293,-19 85.121,-28.4 6.363,-5.4 163.551,89.6 340.481,198.6 208.812,128.6 446.178,278.9 510.718,340.4"
         style="fill:#3e3e3f;fill-opacity:1;fill-rule:evenodd;stroke:none"
         id="path168" />
      <path
         d="m 877.961,18056.4 c -46.871,63 -84.066,90.3 -113.492,85.1 -35.903,-6.3 -397.227,-851.2 -397.227,-851.2 0,0 -115.465,-368.8 0,-368.8 115.457,0 424.34,802.8 482.344,964.6 58.008,161.9 75.242,107.3 28.375,170.3"
         style="fill:#3e3e3f;fill-opacity:1;fill-rule:evenodd;stroke:none"
         id="path170" />
         <!--Lateral Deltoid-->
      <path
         d="m 5360.95,28355.2 c -34.7,54.9 -90.76,161.2 -397.23,64.7 -549.88,-301.8 -783.4,-636.6 -822.83,-1681.9 9.46,-9.4 75.67,-47.3 85.12,-56.7 201.5,552.1 591.22,1289.2 1134.94,1673.9"
         style="fill:#17a589;fill-opacity:1;fill-rule:evenodd;stroke:none"
         id="path172" />
      <path
         d="m 6240.52,13431.8 c 12.96,-540.7 16.54,-1076.7 0,-1645.5 10.83,-57.6 67.59,-78.7 113.49,-85.1 45.83,-2.3 94.59,-9.5 141.87,0 14.34,11.8 73.56,141.8 85.12,198.6 148.7,1198.1 149.36,2942.3 -28.37,4255.7 -413.55,1187.6 -884.13,2654.8 -1276.81,3972 -780.33,-2668.2 687.79,-5999.3 964.7,-6695.7"
         style="fill:#3e3e3f;fill-opacity:1;fill-rule:evenodd;stroke:none"
         id="path174" />
      <path
         d="m 6864.73,9289.6 c 126.41,321 266.4,636.7 312.11,737.7 26.66,176.4 -33.12,1471.3 -56.74,1191.6 -23.64,-678.9 -508.99,-1756 -368.86,-2269.7 41.18,96.2 88.55,191.1 113.49,340.4"
         style="fill:#3e3e3f;fill-opacity:1;fill-rule:evenodd;stroke:none"
         id="path176" />
      <path
         d="m 6893.11,11190.5 c -75.11,145.5 -458.06,163.5 -680.96,-28.4 47.53,-338.7 161.09,-828.1 397.22,-1049.7 220.68,234.2 297.02,793.5 283.74,1078.1"
         style="fill:#3e3e3f;fill-opacity:1;fill-rule:evenodd;stroke:none"
         id="path178" />
      <path
         d="m 7460.57,12921.2 c -14.13,880 -299.4,1774.8 -567.46,2354.8 -72.47,-377.6 63.18,-945.8 85.12,-1447 5.3,-121.2 -1.78,-310 0,-425.5 -96.43,-716.2 -225.88,-1422 -56.75,-1872.5 47.29,-9.5 122.96,-19 170.24,-28.4 28.37,9.4 56.74,18.9 85.12,28.4 283.22,366.3 291.62,898.6 283.73,1390.2"
         style="fill:#3e3e3f;fill-opacity:1;fill-rule:evenodd;stroke:none"
         id="path180" />
      <path
         d="m 4112.52,21943.3 c -13.35,-7.5 -73.42,-103.5 -141.87,-198.6 -244.23,-369.2 -813.5,-1175 -907.94,-1276.8 -49.14,-52.9 -174.63,-222.6 -340.49,-397.2 -236.21,-248.6 -561.29,-551.7 -652.58,-652.5 28.36,0.7 110.11,34 170.25,85.1 32.27,16 656.9,539.9 1163.3,1134.9 396.53,465.9 703.73,1020.9 709.33,1106.5 14.1,54.3 83.29,185.9 0,198.6"
         style="fill:#3e3e3f;fill-opacity:1;fill-rule:evenodd;stroke:none"
         id="path182" />
      <path
         d="M 6325.64,1232.1 C 6140.63,955.297 5833.82,588.996 5616.31,267.5 5947.3,98.3984 6489.48,111.996 6666.12,125.598 c 99.29,232.8 200.43,546.5 170.24,737.699 -70.12,74.5 -218.16,293.803 -510.72,368.803"
         style="fill:#3e3e3f;fill-opacity:1;fill-rule:evenodd;stroke:none"
         id="path184" />
      <path
         d="m 1218.44,17659.2 c -157.9,-279.4 -293.206,-662.1 -425.596,-964.7 0,-37.8 28.375,-75.6 28.375,-113.4 28.363,-9.5 56.742,-19 85.113,-28.4 104.428,184.3 370.188,743.4 453.968,993 -21.71,60.4 -65.11,88.4 -141.86,113.5"
         style="fill:#3e3e3f;fill-opacity:1;fill-rule:evenodd;stroke:none"
         id="path186" />
      <path
         d="m 7261.96,466.098 c -58.37,136.199 -139.02,224.8 -255.36,312.097 -111.08,-9.097 -142.81,-402.699 -113.49,-567.398 9.45,-19 18.91,-66.199 28.37,-85.199 h 283.73 c 18.92,9.496 37.83,47.297 56.75,56.8 -26.76,62.399 26.76,221.297 0,283.7"
         style="fill:#3e3e3f;fill-opacity:1;fill-rule:evenodd;stroke:none"
         id="path188" />
      <path
         d="m 7120.1,9403.1 c -46.82,-46.8 -370.22,-1149.7 -368.79,-1410.4 0.48,-1.6 0.56,-8.7 -0.07,-8.2 -0.08,2.5 0.08,5.6 0.07,8.2 -2.09,7.2 -11.61,-88.7 -0.07,-1370 -47.11,-830.3 46.2,-2010.6 255.36,-2723.7 126.2,587.3 358.28,1485.9 539.09,2581.8 23.27,490.2 -52.56,975.1 -113.49,1418.6 -82.61,601.4 -175.83,1128.2 -312.1,1503.7"
         style="fill:#3e3e3f;fill-opacity:1;fill-rule:evenodd;stroke:none"
         id="path190" />
      <path
         d="m 5048.84,24723.7 c -322.32,-765.6 -644.93,-1082.9 -964.7,-1361.9 8.2,-54.1 88.99,-84.6 141.87,-56.7 365.97,218 927.88,969.3 936.32,1390.2 -20.48,70.7 -49.68,115.2 -113.49,28.4"
         style="fill:#3e3e3f;fill-opacity:1;fill-rule:evenodd;stroke:none"
         id="path192" />
      <path
         d="m 6013.53,11956.5 c 27.97,389.5 14.73,976.1 -28.37,1560.4 -94.62,403.8 -196.89,736 -312.11,1049.8 -315.88,1153.5 -665.48,2266.5 -709.33,3120.8 -408.44,-1967.5 303.89,-4244 936.32,-5872.8 51.01,20.7 97.1,74 113.49,141.8"
         style="fill:#3e3e3f;fill-opacity:1;fill-rule:evenodd;stroke:none"
         id="path194" />
      <path
         d="m 6098.66,9658.4 c 104.82,-50.2 301.38,-184.9 482.34,-283.7 88.31,357.4 -465.89,925.3 -624.21,1759.1 8.06,-461.8 79.8,-1304 141.87,-1475.4"
         style="fill:#3e3e3f;fill-opacity:1;fill-rule:evenodd;stroke:none"
         id="path196" />
      <path
         d="m 1587.3,19304.7 c -97.2,-9.7 -282.08,-318.1 -453.98,-539 -9.45,-19 -18.92,-37.9 -28.37,-56.8 -110.934,-124.6 -170.251,-283.7 -226.989,-453.9 25.695,-82.9 95.578,-110.1 141.869,-141.9 280.29,-192.5 356.34,-480.6 595.84,-453.9 173.46,107.7 427.9,613.5 368.85,1532 -141.85,47.3 -266.76,92.8 -397.22,113.5"
         style="fill:#3e3e3f;fill-opacity:1;fill-rule:evenodd;stroke:none"
         id="path198" />
      <path
         d="m 4282.76,22936.3 c -352.93,-326.1 -920.18,-1001.7 -794.45,-1134.9 h 28.37 c 236,49.6 375.71,192 567.46,283.7 104.97,50.2 211.76,91.7 312.11,141.9 39,257.1 31.53,546.6 0,709.3 -22.36,39.6 -72.11,4.1 -113.49,0"
         style="fill:#3e3e3f;fill-opacity:1;fill-rule:evenodd;stroke:none"
         id="path200" />
      <path
         d="m 7517.32,18311.7 c -184.82,-420.9 -342.15,-697.9 -453.97,-1021.4 -17.06,-141.5 73.09,-305.9 141.86,-453.9 11.45,-132.4 -3.09,-330.3 0,-510.7 13.07,-12.2 63.24,-46.9 85.12,-28.3 43.82,37.1 74.89,155.6 113.5,226.9 58.56,300.4 64.65,542.6 113.49,879.5 21.99,151.7 58.38,741.6 56.74,879.5 -6.09,19.7 -46.66,29.8 -56.74,28.4"
         style="fill:#3e3e3f;fill-opacity:1;fill-rule:evenodd;stroke:none"
         id="path202" />
      <path
         d="m 5949.24,32698.7 c -48.04,940.6 688.33,1684.4 2041.79,1766.6 1353.46,82.2 1882.6,-1506.3 1604.15,-2699.8 -338.04,-126.8 -346.17,1232.7 -495.88,1368 -1429.2,481 -631.14,27.6 -2495.21,-552.6 -146.37,-382.2 -42.54,-903.9 -397.61,-815.4 -242.88,48.8 -253.02,915 -253.02,915 0,0 43.82,-922.4 -4.22,18.2"
         style="fill:#515153;fill-opacity:1;fill-rule:evenodd;stroke:none"
         id="path204" />
      <path
         d="m 35760.9,18849.2 c -495.8,456.5 -666.7,601.5 -829,559.6 -28.3,14 -28.6,38.3 -57.9,57.9 -33.8,17.4 -19.5,39.5 -385.6,521 -804.4,1245.1 -276.7,1859.2 -1715.8,3512.1 17.3,1115.9 -147.3,1799.3 -462.8,2489.3 21.1,386.7 22.5,808.1 -77.1,1408.7 -58.9,384.5 -246.9,964.8 -867.6,1196.4 -544.3,167.2 -770.2,127.8 -1195.3,212.3 -893.1,160.1 -989.5,592.2 -1041.1,907 292.5,179.8 574.4,863.4 655.5,1138.5 258.3,-36 336.1,751.6 308.5,849.1 -37.3,98.1 -75.1,54.4 -154.2,57.9 225.4,2526.2 -1106,2474.9 -1619.5,2527.9 -513.5,-53 -1844.9,-1.7 -1619.4,-2528 -79.1,-3.4 -117,40.3 -154.3,-57.9 -27.6,-97.4 50.2,-885 308.5,-849 81.2,-275.1 363,-958.7 655.5,-1138.6 -51.6,-314.8 -148,-746.9 -1041.1,-906.9 -425,-84.5 -650.9,-45.1 -1195.3,-212.3 -620.5,-231.6 -808.6,-811.9 -867.5,-1196.4 -99.6,-600.6 -98.2,-1022.1 -77.1,-1408.7 -315.5,-690.1 -480,-1373.5 -462.7,-2489.4 -1439.1,-1653 -911.5,-2267 -1715.8,-3512.1 -366.1,-481.6 -351.8,-503.7 -385.6,-521 -29.3,-19.6 -29.6,-43.9 -57.9,-57.9 -162.3,41.9 -333.2,-103.1 -828.9,-559.6 -560.7,-187.7 -493.1,-363 -501.3,-501.8 9.6,-28.6 32.4,-75.5 57.9,-77.1 170.2,-11 263.8,21.5 347,77.1 96.7,41.1 229.7,126.9 289.1,193 12.1,2.7 55.7,-29 57.9,-38.6 -223.1,-231.6 -257.3,-381.3 -289.2,-424.5 -56,-75.9 -348.9,-960.9 -231.3,-1215.7 34.5,-45.9 130.2,-69.7 212,-38.6 -54.2,-103.1 -90.4,-251.7 -77.1,-308.8 8.6,-36.7 102,-115.6 192.8,-96.5 50.3,10.6 96,80.6 134.9,135.1 2.8,-6.7 15.1,8.6 19.3,0 0.9,-73.1 106.6,-168.8 250.7,-115.8 72.7,55.7 127.4,198 212,366.7 6,-4 19.3,-19.3 19.3,-19.3 0,0 -35.4,-110.2 77.1,-115.8 113.3,-20.5 525.4,430.2 867.6,1910.4 45.6,178.9 79.9,334.6 173.5,559.6 818,1202.5 2285.7,2556.3 2332.7,3685.8 -7.2,114.5 72.5,269.3 96.4,289.5 23.9,20.2 518.4,970.2 616.9,2103.4 124,-492.1 311.3,-515.6 404.9,-675.4 -1.2,-164.7 23.3,-1709.7 52.3,-2469.5 8,-212.4 -12.1,-267.2 -71.6,-405.8 -612.9,-775.1 -2315.8,-3019.9 -38.6,-10131.1 93.4,-530 246.1,-1502.8 192.8,-1717.4 -978.5,-4093.2 -113.1,-2921.8 482,-6657.6 -0.6,-496 29,-612.6 0,-694.7 -28.8,-96 -196,-406.2 -96.4,-656.1 17.9,-44.9 -9.8,-97.5 0,-154.4 -32,-94.1 -53.2,-143.4 -96.4,-231.6 -61.3,-54 -316.7,-472.502 -308.4,-598.205 -139.2,-178.7 -231.2,-296.497 -385.6,-366.598 -156.4,-117.199 -127.7,-378.5001 -57.9,-405.3009 141.8,-65.0977 1789.4,-77.3008 1947.2,0 191.3,149.3989 153.9,719.0979 19.3,1273.7039 -12.3,131.4 -57.5,299 -57.9,405.2 -0.8,229.5 49.6,364.3 -19.2,578.9 -4.9,539.4 39.4,2391.1 134.9,2624.4 130.3,546.7 460.1,1768.7 192.8,3145.5 -25.5,197 -53.3,383.4 -77.1,540.3 -56.2,324.3 -88.8,544.8 -115.7,868.4 -3.5,252 18.3,504 19.3,636.8 3.7,515.6 20.8,726.7 0,887.7 5.9,112.6 18.2,135.1 38.6,270.1 94.9,553.1 516,5718.2 173.5,5982.2 183.3,9.9 154.7,-37.4 250.6,0 0,0.1 0,0.1 0,0.1 95.9,-37.3 67.2,9.9 250.6,0 -342.5,-264 78.6,-5429 173.5,-5982.1 20.4,-135 32.7,-157.5 38.6,-270.1 -20.8,-161 -3.8,-372.1 0,-887.7 1,-132.8 22.8,-384.8 19.3,-636.8 -26.9,-323.6 -59.5,-544 -115.7,-868.4 -23.8,-156.9 -51.6,-343.3 -77.1,-540.3 -267.3,-1376.8 62.5,-2598.7 192.8,-3145.4 95.5,-233.3 139.8,-2085 134.9,-2624.4 -68.8,-214.6 -18.4,-349.4 -19.2,-578.9 -0.4,-106.3 -45.6,-273.8 -57.9,-405.3 -134.7,-554.603 -172,-1124.205 19.3,-1273.6031 157.8,-77.3985 1805.5,-65.1016 1947.2,0 69.9,26.8008 98.5,288.1011 -57.8,405.3011 -154.5,70.097 -246.5,187.898 -385.6,366.597 8.2,125.703 -247.1,544.205 -308.5,598.205 -43.1,88.2 -64.3,137.5 -96.4,231.6 9.9,56.8 -17.9,109.4 0,154.4 99.6,249.9 -67.6,560.1 -96.4,656.1 -29,82.1 0.7,198.7 0,694.7 595.1,3735.7 1460.6,2564.4 482,6657.5 -53.3,214.6 99.5,1187.4 192.8,1717.4 2277.3,7111.1 574.4,9355.9 -38.5,10131 -59.5,138.6 -79.7,193.4 -71.6,405.8 28.9,759.8 53.5,2304.8 52.3,2469.5 93.6,159.8 280.9,183.3 404.8,675.3 98.6,-1133.1 593.1,-2083.1 617,-2103.3 23.9,-20.2 103.6,-175 96.4,-289.5 47,-1129.4 1514.8,-2483.2 2332.8,-3685.7 93.6,-225.1 127.9,-380.7 173.5,-559.7 342.2,-1480.1 754.3,-1930.8 867.6,-1910.4 112.5,5.6 77.1,115.8 77.1,115.8 0,0 13.4,15.3 19.3,19.3 84.6,-168.6 139.3,-311 212.1,-366.6 144,-53 249.7,42.7 250.6,115.8 4.2,8.5 16.6,-6.7 19.3,0 38.9,-54.6 84.6,-124.5 134.9,-135.1 90.8,-19.2 184.3,59.7 192.8,96.5 13.3,57 -22.8,205.6 -77.1,308.7 81.9,-31.1 177.5,-7.2 212.1,38.6 117.6,254.9 -175.4,1139.9 -231.4,1215.7 -31.9,43.2 -66,192.9 -289.2,424.6 2.2,9.5 45.8,41.2 57.9,38.6 59.4,-66.2 192.5,-152 289.2,-193 83.2,-55.7 176.7,-88.2 347,-77.2 25.4,1.6 48.3,48.5 57.8,77.2 -8.2,138.8 59.4,314 -501.2,501.7"
         style="fill:#bebebc;fill-opacity:1;fill-rule:evenodd;stroke:none"
         id="path206" />
      <path
         d="m 21956.6,17674.6 c -98.8,-98.2 -225.9,-365.4 -284.2,-682 -2.7,-49.7 41.4,-35.5 85.2,28.5 24,35 234.2,388.8 284.3,596.7 -0.5,111.2 -23.9,130.2 -85.3,56.8"
         style="fill:#3e3e3f;fill-opacity:1;fill-rule:evenodd;stroke:none"
         id="path208" />
      <path
         d="m 21274.4,18157.7 c -60.1,66.4 -33.6,68.9 -142.1,85.3 -112,-209.3 -493.9,-766 -426.4,-1193.5 144.5,-70.1 593.4,1041.9 568.5,1108.2"
         style="fill:#3e3e3f;fill-opacity:1;fill-rule:evenodd;stroke:none"
         id="path210" />
      <path
         d="m 27186.7,10740.8 c -2.6,3.3 -5,6.6 -7.6,9.9 2.5,-13.4 5.1,-26.6 7.6,-38.3 v 28.4"
         style="fill:#3e3e3f;fill-opacity:1;fill-rule:evenodd;stroke:none"
         id="path212" />
      <path
         d="m 21679.1,19232.8 c -96.4,79.4 -73.1,52.2 -120.4,61.6 -202.8,-139 -385.9,-287.2 -596.9,-426.2 -134.1,-88.3 -297.6,-167.5 -426.4,-255.8 -14.1,-81.1 107.8,-95.6 199,-85.2 343.7,149.1 690.1,370.2 944.7,705.6"
         style="fill:#3e3e3f;fill-opacity:1;fill-rule:evenodd;stroke:none"
         id="path214" />
      <path
         d="m 21359.7,18015.7 c -191.8,-364.7 -322.2,-748.4 -483.2,-1165.2 -56.6,-156.4 95.7,-171.7 170.5,-142 139.3,338 392.4,919.7 454.8,1193.5 -8.1,106.9 -56,114.1 -142.1,113.7"
         style="fill:#3e3e3f;fill-opacity:1;fill-rule:evenodd;stroke:none"
         id="path216" />
      <path
         d="m 24770.6,23329.7 c -34,168.6 -168.4,131.4 -341.1,113.7 -237.6,-12.2 -455.6,-751.8 -341.1,-966.2 247.7,282.5 571.6,550.1 682.2,852.5"
         style="fill:#3e3e3f;fill-opacity:1;fill-rule:evenodd;stroke:none"
         id="path218" />
      <path
         d="m 24202.1,23642.3 h 28.5 c 132.6,786.1 282.9,1719.5 454.7,2500.7 -632.6,-948 -463.7,-1748.9 -483.2,-2500.7"
         style="fill:#3e3e3f;fill-opacity:1;fill-rule:evenodd;stroke:none"
         id="path220" />
      <path
         d="m 24571.7,23585.4 c 100.8,-22 250.5,448.9 56.8,1619.8 -175.9,-594.5 -227.1,-1545.7 -56.8,-1619.8"
         style="fill:#3e3e3f;fill-opacity:1;fill-rule:evenodd;stroke:none"
         id="path222" />
      <path
         d="m 24799.1,22647.7 c -96.3,-60 -235.2,-172.9 -341.1,-170.5 -58.1,9.2 -161.5,13.3 -255.9,0 -260.4,-272.3 -819.4,-1602.3 -1136.9,-2387.1 618.1,449.4 1579.5,2102.8 1762.3,2557.6 5.7,13.2 -7.7,9.8 -28.4,0"
         style="fill:#3e3e3f;fill-opacity:1;fill-rule:evenodd;stroke:none"
         id="path224" />
      <path
         d="m 25310.7,26739.8 c -948,-615.2 -323.8,-2496.1 -426.4,-3410.1 1101,1338.3 348.8,2738.1 426.4,3410.1"
         style="fill:#3e3e3f;fill-opacity:1;fill-rule:evenodd;stroke:none"
         id="path226" />
      <path
         d="m 21899.8,19408.1 c -393.7,-520.8 -592,-679.5 -653.8,-1023 83.4,-130.6 273.7,-214.3 358.3,-306.7 102.8,-264.8 328.1,-284.7 323.9,-290.1 h 56.8 c 230.8,234.4 448.6,783.9 369.6,1534.6 -132.7,47.3 -260.2,79.1 -454.8,85.2"
         style="fill:#3e3e3f;fill-opacity:1;fill-rule:evenodd;stroke:none"
         id="path228" />
      <path
         d="m 26191.8,13326.8 c -67.5,925.7 61,1929.4 454.8,2671.2 -210.7,121.5 -397.9,-170.5 -454.8,-170.5 -1307,-1465.5 10.3,-3155.6 142.2,-5143.5 197.4,807.3 49.1,1313.9 -142.2,2642.8"
         style="fill:#3e3e3f;fill-opacity:1;fill-rule:evenodd;stroke:none"
         id="path230" />
      <path
         d="m 25737,15657 c -146.7,359.2 -246.6,636.7 -568.4,1051.5 48,-865.8 212.8,-1636.1 341.1,-2245 185.6,538.8 258.5,799.6 227.3,1193.5"
         style="fill:#3e3e3f;fill-opacity:1;fill-rule:evenodd;stroke:none"
         id="path232" />
      <path
         d="m 22951.5,21511 c -272.7,-680.6 -542.9,-1379.4 -653.8,-1676.6 -87.9,-300.8 199,-316.8 284.2,-284.2 62.3,731.3 806.8,2855.5 1051.8,3381.6 -205.7,-233 -442.3,-821.9 -682.2,-1420.8"
         style="fill:#3e3e3f;fill-opacity:1;fill-rule:evenodd;stroke:none"
         id="path234" />
      <path
         d="m 23690.5,21994.1 c 44.5,229.2 94.5,499.4 85.3,909.3 -441.9,-900.8 -976.5,-2145.4 -966.5,-2813.3 157.4,182.6 428.7,553.3 540.1,824.1 133.1,415.4 283,641.6 341.1,1079.9"
         style="fill:#3e3e3f;fill-opacity:1;fill-rule:evenodd;stroke:none"
         id="path236" />
         <!--Posterior Deltoid-->
      <path
         d="m 26232.3,28035.7 c -162.2,134.3 -579.6,457.1 -988.9,308.5 -450.2,-224.1 -670,-608.5 -689.6,-1542.4 9.5,-19 35.8,-491.5 45.4,-508.1 477.8,782.9 1151.1,1344.4 1633.1,1742"
         style="fill:#17a589;fill-opacity:1;fill-rule:evenodd;stroke:none"
         id="path238" />
      <path
         d="m 28607.9,20232.2 c 281,392.9 763.1,748.1 1222.3,1506.1 -370.7,184.1 -890.7,824.2 -1279.1,1222 9.4,-861.9 -59.6,-1866.2 56.8,-2728.1"
         style="fill:#3e3e3f;fill-opacity:1;fill-rule:evenodd;stroke:none"
         id="path240" />
      <path
         d="m 31365.1,18669.3 c -61,1192.2 -584.9,1792.4 -881.2,1989.2 -751,-24.9 -850.4,-366.3 -1222.2,-738.9 901.2,-129.2 1633.9,-545.8 2103.4,-1250.3"
         style="fill:#3e3e3f;fill-opacity:1;fill-rule:evenodd;stroke:none"
         id="path242" />
      <path
         d="m 31876.7,23329.7 c 110.6,-302.4 434.5,-570 682.2,-852.5 114.6,214.4 -103.5,954 -341.1,966.2 -172.7,17.7 -307.1,54.9 -341.1,-113.7"
         style="fill:#3e3e3f;fill-opacity:1;fill-rule:evenodd;stroke:none"
         id="path244" />
      <path
         d="m 29887,21056.3 c 142.1,-85.2 341.1,-198.9 483.2,-284.2 -37.9,407.3 -62.3,1154.5 -198.9,1278.8 -235.9,-335.2 -259.1,-679.1 -284.3,-994.6"
         style="fill:#3e3e3f;fill-opacity:1;fill-rule:evenodd;stroke:none"
         id="path246" />
      <path
         d="m 30313.4,27734.4 c -223.3,-366.4 -438.4,-617.3 -540.1,-1364.1 494.6,-1 919.1,123.2 1364.4,198.9 9.5,9.5 18.9,19 28.4,28.5 -144.6,612.2 -582.5,1016.1 -852.7,1136.7"
         style="fill:#3e3e3f;fill-opacity:1;fill-rule:evenodd;stroke:none"
         id="path248" />
      <path
         d="m 32075.7,23585.4 c 170.2,74.1 119,1025.3 -56.9,1619.8 -193.7,-1170.9 -44,-1641.8 56.9,-1619.8"
         style="fill:#3e3e3f;fill-opacity:1;fill-rule:evenodd;stroke:none"
         id="path250" />
      <path
         d="m 25481.2,26597.7 c 9.5,-9.5 19,-19 28.5,-28.5 445.2,-75.7 869.7,-199.9 1364.3,-198.9 -101.7,746.8 -316.8,997.7 -540,1364.1 -270.3,-120.6 -708.2,-524.5 -852.8,-1136.7"
         style="fill:#3e3e3f;fill-opacity:1;fill-rule:evenodd;stroke:none"
         id="path252" />
      <path
         d="m 31962,26143 c 171.9,-781.2 322.1,-1714.6 454.8,-2500.7 h 28.4 c -19.5,751.8 149.4,1552.7 -483.2,2500.7"
         style="fill:#3e3e3f;fill-opacity:1;fill-rule:evenodd;stroke:none"
         id="path254" />
         <!--Posterior Deltoid-->
      <path
         d="m 32002.8,26293.7 c 9.4,18.9 35,489.4 44.5,508.4 32.5,846.7 -76.9,1251 -652.4,1560.2 -473,104.2 -727,-192.3 -889.2,-326.6 513.4,-505.4 1048,-1058.1 1497.1,-1742"
         style="fill:#17a589;fill-opacity:1;fill-rule:evenodd;stroke:none"
         id="path256" />
      <path
         d="m 26277.1,20772.1 c 142.1,85.3 341.1,199 483.2,284.2 -25.2,315.5 -48.3,659.4 -284.2,994.6 -136.6,-124.3 -161.1,-871.5 -199,-1278.8"
         style="fill:#3e3e3f;fill-opacity:1;fill-rule:evenodd;stroke:none"
         id="path258" />
      <path
         d="m 29773.3,28725.6 c 30.5,9 -31.4,76.6 -56.8,85.2 -242.6,71.2 -333.2,97.2 -568.5,287.6 -258.7,304.4 -237.2,726.8 -312.7,1307.2 -54.1,69 -223.9,35.7 -284.2,28.4 17,-654 56.8,-1316.7 56.8,-1960.8 325.3,143.3 789,255 1165.4,252.4"
         style="fill:#3e3e3f;fill-opacity:1;fill-rule:evenodd;stroke:none"
         id="path260" />
      <path
         d="m 26817.2,21738.3 c 459.1,-758 941.3,-1113.2 1222.2,-1506.1 116.4,861.9 47.4,1866.2 56.9,2728.1 -388.5,-397.8 -908.5,-1037.9 -1279.1,-1222"
         style="fill:#3e3e3f;fill-opacity:1;fill-rule:evenodd;stroke:none"
         id="path262" />
      <path
         d="m 25282.3,18669.3 c 469.4,704.5 1202.1,1121.1 2103.4,1250.3 -371.9,372.6 -471.3,714 -1222.3,738.9 -296.3,-196.8 -820.2,-797 -881.1,-1989.2"
         style="fill:#3e3e3f;fill-opacity:1;fill-rule:evenodd;stroke:none"
         id="path264" />
      <path
         d="m 28153.1,25432.6 c 56.9,0 53.3,108.6 56.9,170.5 -9.5,861.9 4.9,1535.3 -28.5,2387 -260.6,357.8 -1316.1,636.5 -2160.2,596.8 -136.7,-9.5 -329.7,-38.2 -369.5,-85.3 1464.5,-214.9 908.2,-2347.5 2501.3,-3069"
         style="fill:#3e3e3f;fill-opacity:1;fill-rule:evenodd;stroke:none"
         id="path266" />
      <path
         d="m 28494.2,25432.6 c 1593.1,721.5 1036.9,2854.1 2501.4,3069 -39.8,47.1 -232.9,75.8 -369.6,85.3 -844.1,39.7 -1899.6,-239 -2160.2,-596.8 -33.3,-851.7 -19,-1525.1 -28.4,-2387 3.5,-61.9 0,-170.5 56.8,-170.5"
         style="fill:#3e3e3f;fill-opacity:1;fill-rule:evenodd;stroke:none"
         id="path268" />
      <path
         d="m 26874,28725.6 c 376.5,2.6 840.1,-109.1 1165.4,-252.4 0,644.1 39.8,1306.8 56.9,1960.8 -60.4,7.3 -230.2,40.6 -284.3,-28.4 -75.5,-580.4 -54,-1002.8 -312.6,-1307.2 -235.4,-190.4 -326,-216.4 -568.5,-287.6 -25.4,-8.6 -87.4,-76.2 -56.9,-85.2"
         style="fill:#3e3e3f;fill-opacity:1;fill-rule:evenodd;stroke:none"
         id="path270" />
      <path
         d="m 21587.1,17788.3 c -119.3,-166.1 -253.2,-573.1 -369.5,-824.1 -90,-236.1 18,-269.7 28.4,-255.7 176.7,96.2 466.4,870.9 483.2,994.6 -23.5,67.9 -49.6,101.1 -142.1,85.2"
         style="fill:#3e3e3f;fill-opacity:1;fill-rule:evenodd;stroke:none"
         id="path272" />
      <path
         d="m 31336.6,26739.8 c 77.6,-672 -674.6,-2071.8 426.4,-3410.1 -102.5,914 521.7,2794.9 -426.4,3410.1"
         style="fill:#3e3e3f;fill-opacity:1;fill-rule:evenodd;stroke:none"
         id="path274" />
      <path
         d="m 30000.7,15998 c 393.8,-741.8 522.4,-1745.5 454.8,-2671.2 -191.3,-1328.9 -339.5,-1835.5 -142.1,-2642.8 131.8,1987.9 1449.2,3678 142.1,5143.5 -56.9,0 -244.1,292 -454.8,170.5"
         style="fill:#3e3e3f;fill-opacity:1;fill-rule:evenodd;stroke:none"
         id="path276" />
      <path
         d="m 31137.7,14463.5 c 128.3,608.9 293.1,1379.2 341.1,2245 -321.9,-414.8 -421.8,-692.3 -568.5,-1051.5 -31.2,-393.9 41.7,-654.7 227.4,-1193.5"
         style="fill:#3e3e3f;fill-opacity:1;fill-rule:evenodd;stroke:none"
         id="path278" />
      <path
         d="m 32189.4,22477.2 c -106,-2.4 -244.9,110.5 -341.1,170.5 -20.7,9.8 -34.2,13.2 -28.4,0 182.7,-454.8 1144.2,-2108.2 1762.3,-2557.6 -317.5,784.8 -876.5,2114.8 -1137,2387.1 -94.3,13.3 -197.7,9.2 -255.8,0"
         style="fill:#3e3e3f;fill-opacity:1;fill-rule:evenodd;stroke:none"
         id="path280" />
      <path
         d="m 29773.3,1789.4 c -16.7,-416.7 85.3,-748.4 0,-1165.103 -31.9,-54.399 -73.9,-226.199 -170.5,-227.301 -36.8,-0.5 -85.5,-2.699 -113.7,28.399 -37.1,40.902 -49.1,119.902 -56.9,142.105 -85.2,369.297 -192.9,714 -227.4,1136.6 -125.3,-405.7 -199,-871.506 -255.8,-1335.604 209.2,-434.0976 1300.5,-194 1279.1,-85.199 48.3,65.699 37.1,143.801 0,227.301 -132.6,473.597 -253.6,848.402 -454.8,1278.802"
         style="fill:#3e3e3f;fill-opacity:1;fill-rule:evenodd;stroke:none"
         id="path282" />
      <path
         d="m 30086,11053.4 c -60.9,-19.5 -278.4,-114.2 -312.7,-284.1 43.4,-522.7 67.4,-1663.2 56.9,-2756.5 -147.7,-1455.2 -89.3,-2282 28.4,-2529.2 h 56.8 c 209.5,323.1 567.7,705.6 682.2,1278.8 42.3,185 11,352 0,511.5 -166,1546 -398.1,2289 -511.6,3779.5"
         style="fill:#3e3e3f;fill-opacity:1;fill-rule:evenodd;stroke:none"
         id="path284" />
      <path
         d="m 29005.8,5739.4 c -89.9,-520.5 -2.6,-1239.2 85.3,-2017.6 12.6,-603.4 60.5,-1628.5 142.1,-1818.7 18.1,0.1 103.8,83.7 113.7,142.1 38.9,229.2 -54.1,821.8 -113.7,1619.7 31.7,1373.7 -40.6,1910.1 -227.4,2074.5"
         style="fill:#3e3e3f;fill-opacity:1;fill-rule:evenodd;stroke:none"
         id="path286" />
      <path
         d="m 29460.6,1761 c 42.4,-35.7 159.6,-11.1 170.6,56.8 20.1,1141.3 181.8,2067.7 625.3,3381.7 34.8,192.7 15.9,318.2 -28.4,454.6 C 29642.9,5103.5 29466.5,2765 29460.6,1761"
         style="fill:#3e3e3f;fill-opacity:1;fill-rule:evenodd;stroke:none"
         id="path288" />
      <path
         d="m 32956.8,21994.1 c 58.2,-438.3 208,-664.5 341.1,-1079.9 111.5,-270.8 382.7,-641.5 540.1,-824.1 10,667.9 -524.5,1912.5 -966.4,2813.3 -9.2,-409.9 40.7,-680.1 85.2,-909.3"
         style="fill:#3e3e3f;fill-opacity:1;fill-rule:evenodd;stroke:none"
         id="path290" />
      <path
         d="m 34349.6,19834.4 c -110.8,297.2 -381,996 -653.7,1676.6 -240,598.9 -476.6,1187.8 -682.2,1420.8 245,-526.1 989.4,-2650.3 1051.7,-3381.6 85.2,-32.6 372.1,-16.6 284.2,284.2"
         style="fill:#3e3e3f;fill-opacity:1;fill-rule:evenodd;stroke:none"
         id="path292" />
      <path
         d="m 35287.6,18015.7 c -86.1,0.4 -134,-6.8 -142.1,-113.7 62.4,-273.8 315.5,-855.5 454.8,-1193.5 74.8,-29.7 227.1,-14.4 170.5,142 -161,416.8 -291.3,800.5 -483.2,1165.2"
         style="fill:#3e3e3f;fill-opacity:1;fill-rule:evenodd;stroke:none"
         id="path294" />
      <path
         d="m 36111.9,18612.4 c -128.8,88.3 -292.3,167.5 -426.3,255.8 -211.1,139 -394.2,287.2 -596.9,426.2 -47.4,-9.4 -24,17.8 -120.4,-61.6 254.6,-335.4 600.9,-556.5 944.7,-705.6 91.1,-10.4 213,4.1 198.9,85.2"
         style="fill:#3e3e3f;fill-opacity:1;fill-rule:evenodd;stroke:none"
         id="path296" />
      <path
         d="m 35372.9,18157.7 c -24.9,-66.3 424,-1178.3 568.5,-1108.2 67.5,427.5 -314.4,984.2 -426.4,1193.5 -108.5,-16.4 -81.9,-18.9 -142.1,-85.3"
         style="fill:#3e3e3f;fill-opacity:1;fill-rule:evenodd;stroke:none"
         id="path298" />
      <path
         d="m 34719.1,17788.3 c -4.1,5.4 221.2,25.3 323.9,290.1 84.7,92.4 275,176.1 358.3,306.7 -61.8,343.5 -260.1,502.2 -653.7,1023 -194.6,-6.1 -322.2,-37.9 -454.8,-85.2 -79.1,-750.7 138.8,-1300.2 369.5,-1534.6 h 56.8"
         style="fill:#3e3e3f;fill-opacity:1;fill-rule:evenodd;stroke:none"
         id="path300" />
      <path
         d="m 35060.2,17788.3 c -92.5,15.9 -118.5,-17.3 -142.1,-85.2 16.8,-123.7 306.6,-898.4 483.2,-994.6 10.4,-14 118.5,19.6 28.5,255.7 -116.3,251 -250.2,658 -369.6,824.1"
         style="fill:#3e3e3f;fill-opacity:1;fill-rule:evenodd;stroke:none"
         id="path302" />
      <path
         d="m 34605.4,17617.8 c 50.1,-207.9 260.3,-561.7 284.3,-596.7 43.8,-64 87.9,-78.2 85.3,-28.5 -58.4,316.6 -185.4,583.8 -284.3,682 -61.3,73.4 -84.7,54.4 -85.3,-56.8"
         style="fill:#3e3e3f;fill-opacity:1;fill-rule:evenodd;stroke:none"
         id="path304" />
      <path
         d="m 29261.7,14463.5 c 167.2,771.8 302.9,1423.2 255.8,1960.8 -154.9,247.4 -428.6,381.9 -739,568.3 -221.8,-759.1 -188.7,-1301.6 -170.6,-2131.3 135.6,-761.5 346.4,-1463.9 397.9,-2500.7 0.2,655.9 99.1,1261.5 255.9,2102.9"
         style="fill:#3e3e3f;fill-opacity:1;fill-rule:evenodd;stroke:none"
         id="path306" />
      <path
         d="m 27357.2,13838.3 c -95.8,-1320.2 -126.8,-2710.1 28.5,-3722.6 430.6,762.1 171.3,2609.5 -28.5,3722.6"
         style="fill:#3e3e3f;fill-opacity:1;fill-rule:evenodd;stroke:none"
         id="path308" />
      <path
         d="m 27158.3,6336.2 c 222.1,-417.3 363.6,-448.9 568.5,-568.4 664.1,702.1 -449.5,4714.7 -739.1,5001.5 -115.1,-306.2 -4.6,-2929.1 170.6,-4433.1"
         style="fill:#3e3e3f;fill-opacity:1;fill-rule:evenodd;stroke:none"
         id="path310" />
      <path
         d="m 27129.8,16424.3 c -47.1,-537.6 88.6,-1189 255.9,-1960.8 156.7,-841.4 255.6,-1447 255.8,-2102.9 51.6,1036.8 262.3,1739.2 397.9,2500.7 18.1,829.7 51.2,1372.2 -170.5,2131.3 -310.5,-186.4 -584.2,-320.9 -739.1,-568.3"
         style="fill:#3e3e3f;fill-opacity:1;fill-rule:evenodd;stroke:none"
         id="path312" />
      <path
         d="m 25907.6,15884.4 c 364.4,1047.1 1546,462.7 2217.1,1761.8 -4.9,699.7 8.6,1433.7 -28.4,2188.2 -1770.1,-82.4 -4147.8,-1433.6 -2188.7,-3950"
         style="fill:#3e3e3f;fill-opacity:1;fill-rule:evenodd;stroke:none"
         id="path314" />
      <path
         d="m 27300.4,2045.2 c 9.9,-58.4 95.6,-142 113.7,-142.1 81.7,190.2 129.5,1215.3 142.1,1818.7 87.9,778.4 175.3,1497.1 85.3,2017.6 -186.8,-164.4 -259.1,-700.8 -227.4,-2074.5 -59.6,-797.9 -152.6,-1390.5 -113.7,-1619.7"
         style="fill:#3e3e3f;fill-opacity:1;fill-rule:evenodd;stroke:none"
         id="path316" />
      <path
         d="m 26788.7,5483.6 c 117.7,247.2 176.1,1074 28.5,2529.2 -10.6,1093.3 13.4,2233.8 56.8,2756.5 -34.3,169.9 -251.8,264.6 -312.6,284.1 -113.6,-1490.5 -345.7,-2233.5 -511.7,-3779.5 -11,-159.5 -42.3,-326.5 0,-511.5 114.6,-573.2 472.7,-955.7 682.2,-1278.8 h 56.8"
         style="fill:#3e3e3f;fill-opacity:1;fill-rule:evenodd;stroke:none"
         id="path318" />
      <path
         d="m 27016.1,1817.8 c 11.1,-67.9 128.2,-92.5 170.6,-56.8 -5.8,1004 -182.2,3342.5 -767.5,3893.1 -44.3,-136.4 -63.2,-261.9 -28.4,-454.6 443.5,-1314 605.2,-2240.4 625.3,-3381.7"
         style="fill:#3e3e3f;fill-opacity:1;fill-rule:evenodd;stroke:none"
         id="path320" />
      <path
         d="m 27215.1,567.5 c -7.7,-22.203 -19.8,-101.203 -56.8,-142.105 -28.2,-31.098 -76.9,-28.899 -113.7,-28.399 -96.6,1.102 -138.7,172.902 -170.6,227.301 -85.2,416.703 16.8,748.403 0,1165.103 -201.1,-430.4 -322.1,-805.205 -454.8,-1278.802 -37,-83.5 -48.2,-161.602 0,-227.301 -21.4,-108.801 1069.9,-348.8986 1279.1,85.199 -56.8,464.098 -130.4,929.904 -255.8,1335.604 -34.5,-422.6 -142.1,-767.303 -227.4,-1136.6"
         style="fill:#3e3e3f;fill-opacity:1;fill-rule:evenodd;stroke:none"
         id="path322" />
      <path
         d="m 30739.7,15884.4 c 1959.1,2516.4 -418.6,3867.6 -2188.6,3950 -37.1,-754.5 -23.6,-1488.5 -28.5,-2188.2 671.2,-1299.1 1852.7,-714.7 2217.1,-1761.8"
         style="fill:#3e3e3f;fill-opacity:1;fill-rule:evenodd;stroke:none"
         id="path324" />
      <path
         d="m 26874,16310.6 c -654.6,-1988.8 -898.1,-4032.4 305.1,-5559.9 -47.2,249.6 -89.6,779.2 7.6,1098.4 85.7,1453.1 109.1,3246.4 -312.7,4461.5"
         style="fill:#3e3e3f;fill-opacity:1;fill-rule:evenodd;stroke:none"
         id="path326" />
      <path
         d="m 29261.7,10115.7 c 155.2,1012.5 124.2,2402.4 28.4,3722.6 -199.7,-1113.1 -459.1,-2960.5 -28.4,-3722.6"
         style="fill:#3e3e3f;fill-opacity:1;fill-rule:evenodd;stroke:none"
         id="path328" />
      <path
         d="m 29460.6,10712.4 c 2.6,11.7 5.1,24.9 7.6,38.3 -2.5,-3.3 -5,-6.6 -7.6,-9.9 v -28.4"
         style="fill:#3e3e3f;fill-opacity:1;fill-rule:evenodd;stroke:none"
         id="path330" />
      <path
         d="m 26874,26143 c -333.5,-216.5 -644.3,-75.8 -938,-85.3 392.7,-1327.9 662.6,-2279.6 824.3,-3950 1136.7,874.3 1714.7,1675.8 1392.8,2784.9 -413,291.7 -852,825.7 -1279.1,1250.4"
         style="fill:#3e3e3f;fill-opacity:1;fill-rule:evenodd;stroke:none"
         id="path332" />
      <path
         d="m 29887,22107.7 c 161.7,1670.4 431.6,2622.1 824.3,3950 -293.7,9.5 -604.5,-131.2 -938,85.3 -427,-424.7 -866,-958.7 -1279.1,-1250.4 -321.8,-1109.1 256.2,-1910.6 1392.8,-2784.9"
         style="fill:#3e3e3f;fill-opacity:1;fill-rule:evenodd;stroke:none"
         id="path334" />
      <path
         d="m 29489.1,6336.2 c 175.1,1504 285.7,4126.9 170.5,4433.1 -289.6,-286.8 -1403.1,-4299.4 -739,-5001.5 204.8,119.5 346.3,151.1 568.5,568.4"
         style="fill:#3e3e3f;fill-opacity:1;fill-rule:evenodd;stroke:none"
         id="path336" />
      <path
         d="m 29773.3,16310.6 c -421.7,-1215.1 -398.4,-3008.4 -312.7,-4461.5 97.2,-319.2 54.8,-848.8 7.6,-1098.4 1203.2,1527.5 959.7,3571.1 305.1,5559.9"
         style="fill:#3e3e3f;fill-opacity:1;fill-rule:evenodd;stroke:none"
         id="path338" />
      <path
         d="m 28319.1,34649.9 c 0,-404.9 206,-4606.3 0,-4630.9 -495.7,-59.4 -1308.8,365.4 -1454.1,453.6 -243.4,60.2 -1555.7,4027.8 1454.1,4177.3"
         style="fill:#515153;fill-opacity:1;fill-rule:evenodd;stroke:none"
         id="path340" />
      <path
         d="m 28319.1,30019 c 0,0 140.7,-99.6 1435.2,451.1 311.7,85.5 1457.5,4140.6 -1435.2,4177.8"
         style="fill:#515153;fill-opacity:1;fill-rule:evenodd;stroke:none"
         id="path342" />
      <path
         d="m 28305.5,34783.6 c 343.3,0 621.5,-278.2 621.5,-621.5 0,-343.2 -278.2,-621.5 -621.5,-621.5 -343.2,0 -621.5,278.3 -621.5,621.5 0,343.3 278.3,621.5 621.5,621.5"
         style="fill:#bebebc;fill-opacity:1;fill-rule:evenodd;stroke:none"
         id="path344" />
      <path
         d="m 25366.3,33224.6 c -65.9,371.1 114.1,1469.4 631.9,1851.7 562.7,434.3 899.4,440 1324.7,450 1313,-119.7 1519.1,-804.3 1522.5,-903.6 40.9,-80.6 -841.4,-354.8 -979.9,-746.7 -192.3,130.6 -395.2,-55 -494.3,-116.3 -465,-287.4 -377.8,-1164.4 -281.4,-1569.4 96.4,-404.9 273.5,-2595.7 146.8,-3262.2 -91.1,-54 -769.8,-114.5 -904.5,-48.6 -96.5,100.1 -1560.2,-86 -1586.3,45.3 -94,472.2 689.4,1590.9 752.5,2651.6 21.1,355.7 -92.3,1350.1 -132,1648.2"
         style="fill:#515153;fill-opacity:1;fill-rule:evenodd;stroke:none"
         id="path346" />
      <path
         d="m 28310.1,34937.9 c 345.7,0 626,-280.3 626,-626.1 0,-345.7 -280.3,-626 -626,-626 -345.8,0 -626.1,280.3 -626.1,626 0,345.8 280.3,626.1 626.1,626.1"
         style="fill:#515153;fill-opacity:1;fill-rule:evenodd;stroke:none"
         id="path348" />
    </g>
  </g>
</svg>
