<?xml version="1.0" encoding="UTF-8" standalone="no"?>
<!-- Created with Inkscape (http://www.inkscape.org/) -->
<!--marked color: 17a589-->
<svg
   version="1.1"
   id="svg2"
   width="2666.6667"
   height="2666.6667"
   viewBox="0 0 2666.6667 2666.6667"
   sodipodi:docname="vecteezy_illustration-of-male-muscular-anatomy_.eps"
   xmlns:inkscape="http://www.inkscape.org/namespaces/inkscape"
   xmlns:sodipodi="http://sodipodi.sourceforge.net/DTD/sodipodi-0.dtd"
   xmlns="http://www.w3.org/2000/svg"
   xmlns:svg="http://www.w3.org/2000/svg">
  <defs
     id="defs6" />
  <sodipodi:namedview
     id="namedview4"
     pagecolor="#ffffff"
     bordercolor="#000000"
     borderopacity="0.25"
     inkscape:showpageshadow="2"
     inkscape:pageopacity="0.0"
     inkscape:pagecheckerboard="0"
     inkscape:deskcolor="#d1d1d1" />
  <g
     id="g8"
     inkscape:groupmode="layer"
     inkscape:label="ink_ext_XXXXXX"
     transform="matrix(1.3333333,0,0,-1.3333333,0,2666.6667)">
    <g
       id="g10"
       transform="scale(0.1)">
      <path
         d="M 20000,0 H 0 V 20000 H 20000 V 0"
         style="fill:#ffffff;fill-opacity:1;fill-rule:nonzero;stroke:none"
         id="path12" />
      <path
         d="m 19302.2,9780.4 c -24.4,25.6 -154.9,109.7 -186.6,142.6 -31.7,32.9 -31.7,58.5 -119.4,209.7 -87.8,151.2 -415.2,285.4 -451.8,292.7 -36.6,7.3 -107.9,96.9 -126.2,146.3 -75.4,203.6 -252.4,899.9 -329.2,1521.7 -76.9,621.9 -365.8,973.1 -523.1,1188.9 7.3,596.3 -129.5,720.5 -204.9,910.8 7.3,150 59.4,475.9 24.2,904.4 -27.8,339.4 -452.2,744.2 -715.6,780.8 -170.5,23.7 -264.6,-17.1 -485.2,0 -220.7,17 -634.1,387.7 -656.1,431.6 -21.9,43.9 -68.2,409.7 -34.1,456 34.1,46.4 39,2.5 73.2,97.6 34.1,95.1 15.7,266.1 15.7,266.1 0,0 9.1,36.5 15.4,11.3 3.6,-14.6 10.9,-29.9 27.4,-38.4 25.5,-13.3 57.3,48.4 90.8,106.7 89.1,155.1 172.6,451.1 49.4,488.3 -22.4,6.8 -54.9,-51.2 -54.9,-51.2 0,29.3 29.3,300 -14.6,468.2 -35.1,134.8 -166.8,269.6 -270.7,351.2 -126.9,99.7 -385.8,106.8 -450.2,107.3 v 0 c -1.4,0 -3.7,0 -5.8,0 -2,0 -4.4,0 -5.7,0 v 0 c -64.5,-0.5 -323.3,-7.6 -450.3,-107.3 -103.9,-81.6 -235.5,-216.4 -270.7,-351.2 -43.9,-168.2 -14.6,-438.9 -14.6,-468.2 0,0 -32.4,58 -54.9,51.2 -123.1,-37.2 -39.7,-333.2 49.4,-488.3 33.5,-58.3 65.3,-120 90.9,-106.7 16.4,8.5 23.7,23.8 27.4,38.4 6.3,25.2 15.4,-11.3 15.4,-11.3 0,0 -18.5,-171 15.7,-266.1 34.1,-95.1 39,-51.2 73.2,-97.6 34.1,-46.3 -12.2,-412.1 -34.2,-456 -21.9,-43.9 -435.3,-414.6 -656,-431.6 -220.7,-17.1 -314.7,23.7 -485.3,0 -263.4,-36.6 -687.7,-441.4 -715.6,-780.8 -35.1,-428.5 16.9,-754.4 24.2,-904.4 -75.4,-190.3 -212.1,-314.5 -204.8,-910.8 -157.3,-215.8 -446.3,-567 -523.1,-1188.9 -76.8,-621.8 -253.8,-1318.1 -329.2,-1521.7 -18.3,-49.4 -89.6,-139 -126.2,-146.3 -36.6,-7.3 -364,-141.5 -451.8,-292.7 -87.8,-151.2 -87.8,-176.8 -119.5,-209.7 -31.7,-32.9 -162.2,-117 -186.5,-142.6 -24.4,-25.7 -41.5,-122 26.8,-137.8 68.3,-15.9 250.9,23.7 310.3,157.3 71.3,46.6 88.7,47.5 88.7,47.5 0,0 24.1,-73.1 20.4,-131.7 -3.6,-58.5 -123.7,-237.7 -171.3,-343.8 -47.5,-106.1 -190.2,-301.8 -151.8,-356.7 38.4,-54.8 93.3,-45.7 117.1,-27.4 23.7,18.3 159.1,247.8 185.6,288.1 30.2,39.3 143.6,185.6 163.7,207.5 -32.3,-133.5 -84.7,-290.8 -105.5,-352.9 -20.7,-62.2 -117.4,-249.5 -118.2,-313.4 -1.3,-89 60.2,-108.7 101.2,-81.7 114.6,75.6 178.9,269.3 207.3,325.5 47.9,95.3 99.9,264.6 148.7,342.7 -12.2,-95.1 -41.9,-226.2 -57.9,-337.2 -8.1,-56.1 -57.3,-345 5.5,-363.9 96.9,-29.3 109.7,82.3 148.1,214 38.4,131.6 86,457.2 115.3,506.6 43.9,-9.2 37.3,-40.2 45.7,-128 11,-115.5 1.8,-402.4 85.9,-402.4 84.2,0 90.3,289 101.2,464.5 11,175.6 68.3,268.3 97.6,412.2 29.3,143.9 97.4,343.7 92.7,512.1 -2.2,78.2 -35.4,147.5 31.7,397.5 41.1,153.4 558.4,1165.7 616.6,1260.8 63,103 180.8,409.7 210.1,643.8 29.2,234.1 24.4,243.9 39,356.1 14.6,112.1 60,161.6 117.1,229.2 65.8,78 160.9,309.7 234.1,625.5 34.1,1.2 44.6,29.4 60.9,18.3 0,0 43.9,-499.9 134.2,-638.9 90.2,-139 63.4,-190.2 82.9,-241.5 19.5,-51.2 9.7,-385.3 -4.9,-570.6 -14.6,-185.3 -57.3,-831.6 -97.5,-985.2 -40.3,-153.7 -90.3,-219.5 -129.3,-414.6 -39,-195.1 -101.2,-450.5 -114.6,-690.1 0,0 -82,-568.8 -74.4,-782.9 8.1,-229.3 -51.2,-1788.7 278,-2169.2 -15.8,-74.3 -1.2,-203.6 1.2,-242.6 2.5,-39 -92.6,-443.9 -56.1,-714.6 36.6,-270.6 22,-176.8 14.7,-244.4 -7.3,-67.7 -300,-974.9 139,-2645.4 26.2,-99.8 36.6,-301.2 36.6,-407.3 0,-106 -36.6,-314.5 -36.6,-413.3 0,-98.8 -3.7,-146.3 18.3,-208.5 21.9,-62.2 18.3,-164.6 3.6,-241.4 -14.6,-76.9 -310.9,-285.4 -336.5,-398.8 -25.6,-113.4 -58.5,-179.2 -11,-212.1 47.6,-33 69.5,0 69.5,0 0,0 -18.3,-54.9 11,-84.2 29.3,-29.2 117.1,-25.6 117.1,-25.6 0,0 29.2,-7.3 47.5,-36.5 18.3,-29.3 95.1,-43.9 113.4,-25.7 18.3,18.3 29.3,16.8 43.9,-8 7.9,-13.5 40.4,-29.3 68.6,-40.9 27.1,-11.3 57.9,-8.8 82.9,6.6 l 57,35 c 0,0 47.6,-54.8 58.5,-58.5 11,-3.7 124.4,-43.9 153.7,0 29.2,43.9 168.2,150 160.9,274.4 -7.3,124.3 -18.3,193.8 -14.6,237.7 3.6,43.9 14.6,109.8 32.9,175.6 18.3,65.9 40.3,95.1 25.6,219.5 -14.6,124.4 -3.6,131.7 -3.6,153.6 0,22 18.3,80.5 21.9,146.3 3.7,65.9 -47.5,201.2 -47.5,201.2 0,0 -22,131.7 -33,311 -10.9,179.2 25.6,885.2 98.8,1119.3 73.2,234.1 116.1,307.4 124.4,365.8 87.8,618.2 -54.8,1283.9 -80.5,1519.3 -14.6,134.1 43.9,148.8 80.5,284.1 36.6,135.4 65.8,471.9 25.6,621.9 -29.5,110 102.4,512.1 120.7,636.5 18.3,124.4 269.5,1086.4 282.9,1258.3 13.4,172 30.5,705.2 -14.6,785.7 21.4,0 83,-42.7 109.2,-50.2 1.2,-0.9 3.1,-1.1 5.3,-0.9 2.3,-0.2 4.2,0 5.3,0.9 26.3,7.5 87.8,50.2 109.3,50.2 -45.1,-80.5 -28,-613.7 -14.6,-785.7 13.4,-171.9 264.6,-1133.9 282.9,-1258.3 18.3,-124.4 150.2,-526.5 120.7,-636.5 -40.3,-150 -11,-486.5 25.6,-621.9 36.6,-135.3 95.1,-150 80.5,-284.1 -25.7,-235.4 -168.3,-901.1 -80.5,-1519.3 8.3,-58.4 51.2,-131.7 124.4,-365.8 73.1,-234.1 109.7,-940.1 98.7,-1119.3 -11,-179.3 -32.9,-311 -32.9,-311 0,0 -51.2,-135.3 -47.6,-201.2 3.7,-65.8 22,-124.3 22,-146.3 0,-21.9 11,-29.2 -3.7,-153.6 -14.6,-124.4 7.4,-153.6 25.6,-219.5 18.3,-65.8 29.3,-131.7 33,-175.6 3.6,-43.9 -7.4,-113.4 -14.7,-237.7 -7.3,-124.4 131.7,-230.5 161,-274.4 29.2,-43.9 142.6,-3.7 153.6,0 11,3.7 58.5,58.5 58.5,58.5 l 57.1,-35 c 24.9,-15.4 55.7,-17.9 82.8,-6.6 28.2,11.6 60.7,27.4 68.7,40.9 14.6,24.8 25.6,26.3 43.9,8 18.2,-18.2 95.1,-3.6 113.4,25.7 18.2,29.2 47.5,36.5 47.5,36.5 0,0 87.8,-3.6 117.1,25.6 29.2,29.3 10.9,84.2 10.9,84.2 0,0 22,-33 69.5,0 47.6,32.9 14.7,98.7 -10.9,212.1 -25.6,113.4 -321.9,321.9 -336.6,398.8 -14.6,76.8 -18.3,179.2 3.7,241.4 21.9,62.2 18.3,109.7 18.3,208.5 0,98.8 -36.6,307.3 -36.6,413.3 0,106.1 10.3,307.5 36.6,407.3 438.9,1670.5 146.3,2577.7 139,2645.4 -7.3,67.6 -22,-26.2 14.6,244.4 36.6,270.7 -58.5,675.6 -56.1,714.6 2.5,39 17.1,168.3 1.2,242.6 329.3,380.5 269.9,1939.9 278,2169.2 7.6,214.1 -74.3,782.9 -74.3,782.9 -13.4,239.6 -75.6,495 -114.6,690.1 -39.1,195.1 -89.1,260.9 -129.3,414.6 -40.2,153.6 -82.9,799.9 -97.5,985.2 -14.7,185.3 -24.4,519.4 -4.9,570.6 19.5,51.3 -7.3,102.5 82.9,241.5 90.2,139 134.1,638.9 134.1,638.9 16.4,11.1 26.8,-17.1 61,-18.3 73.1,-315.8 168.3,-547.5 234.1,-625.5 57.1,-67.6 102.4,-117.1 117.1,-229.2 14.6,-112.2 9.7,-122 39,-356.1 29.2,-234.1 147,-540.8 210.1,-643.8 58.1,-95.1 575.4,-1107.4 616.6,-1260.8 67,-250 33.9,-319.3 31.7,-397.5 -4.8,-168.4 63.4,-368.2 92.7,-512.1 29.2,-143.9 86.5,-236.6 97.5,-412.2 11,-175.5 17.1,-464.5 101.2,-464.5 84.1,0 74.9,286.9 86,402.4 8.4,87.8 1.8,118.8 45.7,128 29.3,-49.4 76.8,-375 115.2,-506.6 38.4,-131.7 51.2,-243.3 148.2,-214 62.7,18.9 13.5,307.8 5.5,363.9 -16,111 -45.8,242.1 -58,337.2 48.8,-78.1 100.9,-247.4 148.8,-342.7 28.3,-56.2 92.7,-249.9 207.3,-325.5 41,-27 102.4,-7.3 101.2,81.7 -0.9,63.9 -97.5,251.2 -118.3,313.4 -20.7,62.1 -73.1,219.4 -105.5,352.9 20.2,-21.9 133.6,-168.2 163.7,-207.5 26.6,-40.3 161.9,-269.8 185.7,-288.1 23.8,-18.3 78.6,-27.4 117.1,27.4 38.4,54.9 -104.3,250.6 -151.9,356.7 -47.5,106.1 -167.6,285.3 -171.3,343.8 -3.6,58.6 20.4,131.7 20.4,131.7 0,0 17.4,-0.9 88.8,-47.5 59.4,-133.6 242,-173.2 310.3,-157.3 68.3,15.8 51.2,112.1 26.8,137.8"
         style="fill:#bdbcba;fill-opacity:1;fill-rule:nonzero;stroke:none"
         id="path14" />
      <path
         d="m 15454.5,18573 c -155.8,56 -302.4,106.7 -486,90.9 -1,-0.1 -1.9,-1.3 -2.8,-2.4 -0.9,1.1 -1.8,2.3 -2.8,2.4 -183.6,15.8 -330.2,-34.9 -486,-90.9 -242.1,-87 -314.4,-411.7 -309.3,-646 0,-96.7 25.1,-192.8 46.4,-286.5 21.9,-96 64.5,-95.4 81.1,-100.9 254.2,-84.1 270.2,-416.1 382.2,-420.7 79.9,-3.2 170.7,0.6 251.5,0.3 2.7,-0.7 5.3,-1.6 8.2,-1.5 9.3,0.5 19,0.7 28.7,1 9.7,-0.3 19.4,-0.5 28.7,-1 2.9,-0.1 5.5,0.8 8.2,1.5 80.8,0.3 171.6,-3.5 251.5,-0.3 112,4.6 128,336.6 382.2,420.7 16.6,5.5 59.2,4.9 81.1,100.9 21.3,93.7 46.4,189.8 46.4,286.5 5.1,234.3 -67.2,559 -309.3,646"
         style="fill:#68696b;fill-opacity:1;fill-rule:nonzero;stroke:none"
         id="path16" />
      <path
         d="m 13333.6,1716.3 c 73.2,0 760.9,14.6 785.3,-43.9 24.4,-58.6 104.3,-200 -43,-200 -147.2,0 -552.1,68.3 -625.2,97.5 -73.2,29.3 -161,102.5 -161,102.5 l 43.9,43.9"
         style="fill:#39393a;fill-opacity:1;fill-rule:nonzero;stroke:none"
         id="path18" />
      <path
         d="m 14048.6,11010.1 c -265.7,-158.6 -415.3,-270.7 -505.3,-417.1 -89.9,-146.3 -73.1,-409.6 48.8,-673 122,-263.4 375.6,-558.5 507.3,-558.5 131.6,0 347.5,-167.3 570.6,-81.7 193.8,74.3 118.7,208.2 138.5,383.3 27.7,244.2 88.3,230 121.2,809.2 8,139.5 -23.7,371.9 -62.7,450 -39.1,78 -119,178 -153.1,221.9 -34.1,43.9 -56.1,140.3 -341.4,14.6 -118.2,-52 -153.9,-47.3 -323.9,-148.7"
         style="fill:#39393a;fill-opacity:1;fill-rule:nonzero;stroke:none"
         id="path20" />
      <path
         d="m 13843.3,15824 c 131.7,-139 280.8,-685.4 365.8,-973 98,-331.5 168.7,-535.8 424.3,-951.1 171.9,-279.3 161,-460.9 197.6,-431.7 51.2,563.4 168.2,2099.7 -29.3,2260.7 -197.5,161 -263.4,131.7 -482.9,161 -219.4,29.2 -475.5,-65.9 -475.5,-65.9"
         style="fill:#39393a;fill-opacity:1;fill-rule:nonzero;stroke:none"
         id="path22" />
      <path
         d="m 13354.4,15309.5 c 154.2,85.1 314.3,159.9 478.4,223.7 17.6,6.9 36,13.7 54.7,12 86.2,-8 124,-275.7 139.5,-337.6 49.7,-198 98.3,-396.1 160.2,-590.7 75.3,-237.1 -275,-36.7 -343.9,0 -112.2,59.6 -220.2,104.1 -313.1,195.5 -111.6,109.7 -167,254.9 -230.6,394.5 -21.4,47 -30.5,54.1 16.6,81.1 12.7,7.3 25.4,14.4 38.2,21.5"
         style="fill:#39393a;fill-opacity:1;fill-rule:nonzero;stroke:none"
         id="path24" />
        <!--Posterior Deltoid-->
      <path
         d="m 13507.7,15614.4 c -48.6,31.2 -116.1,68.4 -126,71.8 -73.6,25.2 -154.5,29.7 -230.9,16.7 -125.3,-21.4 -253.6,-125.9 -347.1,-208.1 -60.7,-53.3 -117.6,-148.1 -147.4,-223.1 -45.9,-116.1 -28.4,-213.7 -28.1,-335.5 0.3,-144 0.5,-288 0.8,-432 0,-1.2 150.8,60.4 164.8,68.3 78.4,43.8 147.6,101.1 213.8,161.4 57.9,52.7 135.8,124.6 135.8,209.8 0,128.2 30.1,257.7 99.6,366.7 78.1,122.5 206.9,171.7 314.9,261.7 5.2,4.3 -18.5,22 -50.2,42.3"
         style="fill:#17a589;fill-opacity:1;fill-rule:nonzero;stroke:none"
         id="path26" />
      <path
         d="m 13348.6,14910.9 c 3.6,-7.6 6.8,-13.9 9.6,-18 46.7,-68.8 106.6,-128 172.2,-178.8 118.4,-91.6 262.5,-185.1 411.7,-209.4 85.9,-14 116.1,-24.1 139,-36.9 22.8,-12.8 -20.1,-51.2 -20.1,-55.8 0,-4.6 -132.3,-75.6 -273.8,-92.7 -210.2,-25.3 -424.1,67.1 -520.2,261.2 -36.3,73.5 -54.5,154.9 -58.6,236.5 -3.5,67.5 -17.3,143.7 28.6,201.1 45.3,56.6 87.5,-56.3 111.6,-107.2"
         style="fill:#39393a;fill-opacity:1;fill-rule:nonzero;stroke:none"
         id="path28" />
      <path
         d="m 13119,14733.9 c -494.9,-351.1 -487.7,-575.5 -443.8,-863.3 39.9,-261.9 158,21.4 237.2,79.7 57.6,42.4 116.1,83.1 172.8,126.9 18.6,14.3 128.6,81.9 124.8,110.5 -3.2,24.3 -91,546.2 -91,546.2"
         style="fill:#39393a;fill-opacity:1;fill-rule:nonzero;stroke:none"
         id="path30" />
      <path
         d="m 13192.2,14082.8 c -99.5,-83.3 -197.3,-169.2 -289.9,-260 -92.9,-91 -112.3,-156.8 -114,-289.5 -2.3,-191.5 -59.6,-376 -88.2,-564.1 -14.6,-95.4 -22.2,-192.7 -9.7,-288.9 14.6,-113.3 36.4,-58.5 87,-3.4 25.5,27.8 50.7,56.1 74.2,85.7 72.4,91.4 73.6,170.6 88.2,285 16,125.3 112,171 168.2,285.3 35.2,71.4 54.5,225.4 89.6,296.8 73,148.4 92.8,318 42.1,475 0,0 -47.5,-21.9 -47.5,-21.9"
         style="fill:#39393a;fill-opacity:1;fill-rule:nonzero;stroke:none"
         id="path32" />
      <path
         d="m 14265.2,14460.8 c 78,-144.2 243.9,-544.2 302.4,-656.4 58.5,-112.1 146.3,-156 126.8,-273.1 -19.5,-117 -176.6,-543.5 -243.9,-684.9 -67.2,-141.5 -165.8,-429.2 -219.5,-558.8 -57.2,-138.3 -107.3,-287.8 -131.6,-360.9 -19.8,-59.3 -209,210.9 -280.3,315.8 -17.8,26.2 -29.9,55.5 -35.6,86.6 -19.5,105.9 -68.5,376.1 -108.5,626.7 -23.2,145.2 -68.3,204.8 -107.3,526.7 -39,321.9 -19.5,268.3 -117,434.1 -97.6,165.8 -122,380.5 -102.4,385.3 131.6,-97.5 271.9,-95.3 368.4,-112.1 26.2,-4.6 108.2,-16.4 207.1,16.8 164,55.1 189.2,83 223.3,146.4 34.2,63.4 118.1,107.8 118.1,107.8"
         style="fill:#39393a;fill-opacity:1;fill-rule:nonzero;stroke:none"
         id="path34" />
      <path
         d="m 13786.8,12149.7 c 13.5,-4 25.7,-13.2 38.3,-27.2 51.7,-57.7 99.5,-118.7 143.3,-182.5 41.1,-60 96.6,-130.8 112.7,-203.2 12.9,-58.2 -161.8,-136.5 -197.8,-159.7 -88.1,-56.6 -163.5,-124.5 -216.9,-215.7 -31.9,-54.3 -42.9,-23 -49.9,21.8 -20.9,134.3 -37.1,276.1 -25.7,414.3 9.7,116.5 26.6,298.7 149.3,347.7 17.9,7.1 33,8.5 46.7,4.5"
         style="fill:#39393a;fill-opacity:1;fill-rule:nonzero;stroke:none"
         id="path36" />
      <path
         d="m 14349.3,9132.3 c 87.8,-78.1 333.1,-509.9 255.1,-929.3 -78,-419.5 121.1,268.5 165.6,537.9 35.2,212.9 57.1,375.5 17.1,410.9 -62.9,55.5 -437.8,-19.5 -437.8,-19.5"
         style="fill:#39393a;fill-opacity:1;fill-rule:nonzero;stroke:none"
         id="path38" />
      <path
         d="m 13294.6,9627.3 c -29.3,-190.2 39,-1629 151.2,-2063.1 112.2,-434.1 86.7,-170.7 62.9,43.9 -23.9,214.6 44.4,765.7 54.2,960.8 9.7,195.1 -29.3,678 -112.2,887.7 -82.9,209.7 -68.3,219.5 -117.1,292.7 -48.8,73.1 -39,-122 -39,-122"
         style="fill:#39393a;fill-opacity:1;fill-rule:nonzero;stroke:none"
         id="path40" />
      <path
         d="m 13593.6,6949.7 c -50.6,-248.4 -79.5,-687.7 -103.9,-707.3 209.7,224.4 442.7,1050.4 497.5,1326.7 54,272.9 54.8,1171.2 79.2,1317.5 24.4,146.3 -1.9,135.5 -24.5,214 -33,114 -167.1,299.2 -236,368.2 -263.4,263.4 -57.7,-1760.6 -212.3,-2519.1"
         style="fill:#39393a;fill-opacity:1;fill-rule:nonzero;stroke:none"
         id="path42" />
      <path
         d="m 14533.4,8198.3 c 0,-258.5 -234.1,-931.6 -219.4,-1234 14.6,-302.4 -46.6,-829.2 -56.3,-873.1 102.4,239 151.1,756 156,1009.7 4.9,253.6 173.4,692.5 153.9,838.9 -19.5,146.3 -34.2,258.5 -34.2,258.5"
         style="fill:#39393a;fill-opacity:1;fill-rule:nonzero;stroke:none"
         id="path44" />
      <path
         d="m 13689.7,6342.4 c -395.1,-460.9 -296.4,-1590 -230.5,-1889.9 65.8,-300 74.4,-352.6 212.5,-350.7 54.2,0.7 176.5,77.5 154.5,326.3 -21.9,248.7 4.9,938.2 4.9,1214.4 0,161 43.9,945.2 43.9,945.2 l -185.3,-245.3"
         style="fill:#39393a;fill-opacity:1;fill-rule:nonzero;stroke:none"
         id="path46" />
      <path
         d="m 13946.6,6018.1 c 54.6,-570.7 11.3,-1282.3 0,-1497.4 -10.9,-204.8 -21.2,-399.5 76.4,-419 97.5,-19.5 332.4,291 376.3,576.3 34.9,226.8 -26.2,710.8 -65.8,925.5 -56.2,304.2 -126.2,414.6 -202.1,570.7 -75.9,156 -147.9,331.6 -160.7,404.8 -12.8,73.1 -24.1,-560.9 -24.1,-560.9"
         style="fill:#39393a;fill-opacity:1;fill-rule:nonzero;stroke:none"
         id="path48" />
      <path
         d="m 13721.5,2434.4 c 53.6,-238.9 41,-346.8 143.9,-368.2 187.7,-39 224.3,112.2 234.1,229.2 9.7,117.1 63.4,165.9 63.4,165.9 0,0 -1.8,-434.2 -24.4,-541.4 -19.5,-92.7 -18.6,-148.6 -118.6,-148.6 -140.7,0 -241.2,-23.3 -310.6,-0.2 -78.5,26.2 -47.7,352.8 -58.5,504.8 -12.5,175.6 -20.8,210.9 -11,254.8 9.8,43.9 81.7,-96.3 81.7,-96.3"
         style="fill:#39393a;fill-opacity:1;fill-rule:nonzero;stroke:none"
         id="path50" />
      <path
         d="m 13693.6,3957.3 c 66.3,-1.7 121.4,-52.1 129.6,-117.9 47.2,-378.5 84.9,-1315.6 76.2,-1376.9 -9.8,-68.3 -42.9,-389.6 -73.2,-242.7 -89,431.7 -142,1057.8 -195.1,1316.9 -51.2,250 -141.4,311 -43.9,389 49.8,39.8 41,33.3 106.4,31.6"
         style="fill:#39393a;fill-opacity:1;fill-rule:nonzero;stroke:none"
         id="path52" />
      <path
         d="m 13982.1,3906.2 c -81.4,-92.7 5.2,-1724.5 19.7,-1725.6 14.6,-1 53.7,525.8 126.8,828.1 73.2,302.5 75.9,798.7 75.6,799.9 -29.4,117 -160.9,139.5 -222.1,97.6"
         style="fill:#39393a;fill-opacity:1;fill-rule:nonzero;stroke:none"
         id="path54" />
      <path
         d="m 14168.2,8919.3 c -46.2,-199.2 -230.2,-2350 -46.2,-2589.1 78.1,131.7 135.3,1282.8 313.4,1746.1 92.5,240.6 -7.3,553.6 -50.7,719.4 -14.1,53.8 -153.7,280.5 -153.7,280.5 l -62.8,-156.9"
         style="fill:#39393a;fill-opacity:1;fill-rule:nonzero;stroke:none"
         id="path56" />
      <path
         d="m 12552,13936.5 c -63.4,-175.2 -179.2,-753.6 -125.6,-1002.4 12.6,-58.3 58.3,-184.2 99.4,-65.6 64.6,186.4 146,373.7 191.6,565.9 30.1,126.5 -88.6,344.8 -165.4,502.1"
         style="fill:#39393a;fill-opacity:1;fill-rule:nonzero;stroke:none"
         id="path58" />
      <path
         d="m 12337.2,12773.6 c 5.9,-64.5 16.8,-128.4 18,-193.9 2.3,-125.6 -40.1,-387.4 79.1,-476.9 105.6,99.9 148.1,276.2 140,416.8 -4.7,80.6 -80.7,134.1 -130.3,192.4 -37.6,44.2 -74.4,89 -110.5,134.4 0,-24.5 1.5,-48.7 3.7,-72.8"
         style="fill:#39393a;fill-opacity:1;fill-rule:nonzero;stroke:none"
         id="path60" />
      <path
         d="m 12133.8,12631.8 c -39,-326.8 -224.4,-1802.2 -346.3,-2119.2 -9.8,-151.2 459.1,777.3 513.9,1086.4 43.5,245.1 -31,720.6 -84.7,837.7 -53.7,117 -82.9,195.1 -82.9,195.1"
         style="fill:#39393a;fill-opacity:1;fill-rule:nonzero;stroke:none"
         id="path62" />
      <path
         d="m 12643.5,12314.8 c -46.4,-36.6 -72.5,-96.7 -74.7,-102.5 -219.7,-573.2 -309.2,-1016.2 -571.6,-1524.1 -17.5,-34 -51.5,-129 -92.7,-141.4 146.4,43.9 373.2,674.2 661.2,1176.8 62.6,109.1 238.7,547.2 253.4,605.8 11,44.3 -136.9,15.9 -175.6,-14.6"
         style="fill:#39393a;fill-opacity:1;fill-rule:nonzero;stroke:none"
         id="path64" />
      <path
         d="m 11964.3,12317.2 c -73.2,-302.4 -169.6,-1245 -384.2,-1804.6 175.6,117 283,534 312.3,704.7 62,361.7 111.5,760.2 136.2,1125.8 2.4,36.1 3.4,101.4 -39.7,112.6 -20.8,-41 -17.8,-93.4 -24.6,-138.5"
         style="fill:#39393a;fill-opacity:1;fill-rule:nonzero;stroke:none"
         id="path66" />
      <path
         d="m 14440.8,11349 c -78.1,43.9 -447.8,156.2 -595.1,73.2 -134.1,-75.6 -326.7,-511 -317,-660.9 159.5,97.6 469.5,352.5 610.9,409.7 141.4,57.2 359.7,114.6 359.7,114.6 l -58.5,63.4"
         style="fill:#39393a;fill-opacity:1;fill-rule:nonzero;stroke:none"
         id="path68" />
      <path
         d="m 14762.7,13265.8 c -19,39.2 -48.8,-68.2 -107.3,-170.7 -58.5,-102.4 -263.4,-590.1 -302.4,-697.4 -18.9,-52.1 -304.8,-740.2 -220.7,-795 244.2,-159.3 669.4,-431.7 669.4,-431.7 126.8,495.1 43.9,1924.1 -39,2094.8"
         style="fill:#39393a;fill-opacity:1;fill-rule:nonzero;stroke:none"
         id="path70" />
      <path
         d="m 14624.3,16934.7 c -14.7,-27.7 -10,-66.5 -7.9,-102.3 4.7,-80.2 -15.7,-178.3 -26.9,-258.5 -14.5,-104.2 -63,-241.3 -113.4,-332.9 -45.5,-82.8 -97.3,-83.2 -178,-134.6 -48.6,-30.8 -70.2,-32 -119.1,-62.3 -10.7,-6.7 -64.7,-37.7 -59.2,-52.8 4.9,-13.7 82.9,-15.8 97.3,-17.4 143.4,-15.9 288,-10.8 431.9,-5.6 43.4,1.5 86.7,3 130.1,4.6 18.9,0.7 38.9,1.7 54.6,12.2 27.4,18.3 30.7,56.5 31.2,89.4 4.8,280.9 9.6,521.2 14.4,802.1 0.4,24.1 0,50.6 -15.9,68.7 -10.4,11.8 -25.7,17.9 -40.7,22.3 -50.6,14.7 -105.3,14.6 -155.8,-0.3 -21.8,-6.4 -34.9,-18 -42.6,-32.6"
         style="fill:#39393a;fill-opacity:1;fill-rule:nonzero;stroke:none"
         id="path72" />
      <path
         d="m 11585.7,10429.6 c 20.2,3.5 40.5,4.4 60.9,2 116.2,-13.7 318.6,-37.2 364.8,-168.6 5.3,-15.2 5.8,-31.7 5.9,-47.9 1.6,-171.3 -19.3,-343.1 -63.4,-508.7 -8.2,-31.1 -17.9,-62.5 -36.3,-88.9 -104,-148.9 -384.4,-47.6 -501.7,26.6 -106,67.1 -265.3,171 -272.7,307.3 -6.5,121.2 66,251.3 163.6,320.5 79.9,56.6 177.3,140.1 278.9,157.7"
         style="fill:#39393a;fill-opacity:1;fill-rule:nonzero;stroke:none"
         id="path74" />
      <path
         d="m 11755.2,9483.4 c -1.4,-77.5 -2.5,-155 -2,-232.5 0.5,-49.9 2,-99.8 7,-149.4 4.1,-41.3 5.1,-117.8 31.2,-150.3 15.5,-19.4 59.1,99.7 60.6,106.9 6.7,33.8 5.5,453.7 23.8,455.9 -40.7,-4.8 -81.9,-17.1 -120.6,-30.6"
         style="fill:#39393a;fill-opacity:1;fill-rule:nonzero;stroke:none"
         id="path76" />
      <path
         d="m 11512.3,9489.7 c -32.2,-135.3 -43.5,-276.9 -66.5,-414.1 -7.5,-44.9 -15,-89.8 -22,-134.7 -9.3,-59.6 -19.4,-108.7 -12.8,-169.9 0.6,-5.7 1.5,-11.7 5.2,-16.1 16.9,-20.2 57.2,0.4 69.6,15.8 13.7,16.9 19.2,38.9 22.7,60.4 9.7,59.9 23.9,118.9 36,178.4 18.3,90.1 35.6,180.5 53.8,270.6 11.2,55.4 22.4,110.8 33.6,166.2 1.4,6.7 2.6,14 -0.3,20.2 -6.1,12.7 -118.9,24.6 -119.3,23.2"
         style="fill:#39393a;fill-opacity:1;fill-rule:nonzero;stroke:none"
         id="path78" />
      <path
         d="m 11298,9549.8 c -19.4,-20.2 -32.5,-94 -38.6,-112.4 -16.8,-50.4 -34.7,-100.4 -53.1,-150.2 -36.2,-97.8 -74.6,-194.8 -111.6,-292.3 -24.7,-65 -57.1,-127.8 -56.2,-199.1 0.4,-38.1 47.6,-19.3 67.5,-9.9 63.9,30.3 72,80.5 96,139.7 18.6,45.7 37.6,91.3 56.7,136.9 59.4,141.1 119.6,281.7 187.3,419.2 2.6,5.1 5.1,10.4 5.7,16 5.2,50.6 -113.7,56 -143.5,57.1 -3.6,0.2 -7,-1.7 -10.2,-5"
         style="fill:#39393a;fill-opacity:1;fill-rule:nonzero;stroke:none"
         id="path80" />
      <path
         d="m 11129.3,9706.2 c -34.5,-28.9 -107.2,-193.3 -119.9,-216.8 -36.5,-67.4 -72.9,-134.9 -109.3,-202.5 -29.4,-54.5 -87,-126 -93.8,-188.8 -2,-15.5 -16.3,-100.7 21.6,-83.4 5.7,2.6 10,7.4 14.1,12 100,113.4 177.8,239.2 263.6,362.9 25.2,36.3 49.2,73.5 75.9,108.7 23,30.3 62.3,58.5 80.5,91 7.8,14.1 6.9,31.3 5.7,47.4 -0.4,5.7 -0.9,11.8 -4,16.7 -2.8,4.6 -7.5,7.6 -12,10.4 -34.7,21.2 -72.7,37 -112.2,46.6 -2.8,0.7 -6.3,-0.9 -10.2,-4.2"
         style="fill:#39393a;fill-opacity:1;fill-rule:nonzero;stroke:none"
         id="path82" />
      <path
         d="m 11101.4,10212.6 c -61,-58.5 -160.9,-172.8 -202.4,-259.5 -41.5,-86.8 -219.5,-120.9 -221.9,-174.6 -2.5,-53.6 -14.7,-87.8 9.7,-90.2 24.4,-2.4 117.1,-7.3 173.2,43.9 56.1,51.2 97.5,80.5 134.1,131.7 36.6,51.2 68.3,112.2 85.4,192.6 17,80.5 65.8,192.7 65.8,192.7 l -43.9,-36.6"
         style="fill:#39393a;fill-opacity:1;fill-rule:nonzero;stroke:none"
         id="path84" />
      <path
         d="m 16615,1716.3 c -73.2,0 -760.9,14.6 -785.3,-43.9 -24.3,-58.6 -104.3,-200 43,-200 147.3,0 552.1,68.3 625.2,97.5 73.2,29.3 161,102.5 161,102.5 l -43.9,43.9"
         style="fill:#39393a;fill-opacity:1;fill-rule:nonzero;stroke:none"
         id="path86" />
      <path
         d="m 15882.8,11010.1 c 265.7,-158.6 415.3,-270.7 505.3,-417.1 89.9,-146.3 73.1,-409.6 -48.8,-673 -121.9,-263.4 -375.6,-558.5 -507.3,-558.5 -131.6,0 -347.5,-167.3 -570.6,-81.7 -193.8,74.3 -118.7,208.2 -138.5,383.3 -27.7,244.2 -88.3,230 -121.2,809.2 -8,139.5 23.7,371.9 62.8,450 39,78 118.9,178 153,221.9 34.1,43.9 56.1,140.3 341.4,14.6 118.2,-52 153.9,-47.3 323.9,-148.7"
         style="fill:#39393a;fill-opacity:1;fill-rule:nonzero;stroke:none"
         id="path88" />
      <path
         d="m 16088.1,15824 c -131.7,-139 -280.8,-685.4 -365.8,-973 -98,-331.5 -168.7,-535.8 -424.3,-951.1 -171.9,-279.3 -161,-460.9 -197.6,-431.7 -51.2,563.4 -168.2,2099.7 29.3,2260.7 197.5,161 263.4,131.7 482.9,161 219.4,29.2 475.5,-65.9 475.5,-65.9"
         style="fill:#39393a;fill-opacity:1;fill-rule:nonzero;stroke:none"
         id="path90" />
      <path
         d="m 16577,15309.5 c -154.2,85.1 -314.3,159.9 -478.4,223.7 -17.6,6.9 -36,13.7 -54.7,12 -86.2,-8 -124,-275.7 -139.5,-337.6 -49.7,-198 -98.2,-396.1 -160.1,-590.7 -75.4,-237.1 274.9,-36.7 343.8,0 112.2,59.6 220.2,104.1 313.1,195.5 111.6,109.7 167,254.9 230.6,394.5 21.5,47 30.5,54.1 -16.6,81.1 -12.7,7.3 -25.4,14.4 -38.2,21.5"
         style="fill:#39393a;fill-opacity:1;fill-rule:nonzero;stroke:none"
         id="path92" />
        <!--Posterior Deltoid-->
      <path
         d="m 16423.7,15614.4 c 48.7,31.2 116.1,68.4 126,71.8 73.6,25.2 154.5,29.7 230.9,16.7 125.3,-21.4 253.6,-125.9 347.2,-208.1 60.6,-53.3 117.5,-148.1 147.3,-223.1 45.9,-116.1 28.4,-213.7 28.1,-335.5 -0.3,-144 -0.5,-288 -0.8,-432 0,-1.2 -150.8,60.4 -164.8,68.3 -78.4,43.8 -147.6,101.1 -213.8,161.4 -57.9,52.7 -135.8,124.6 -135.8,209.8 0,128.2 -30.1,257.7 -99.6,366.7 -78.1,122.5 -206.9,171.7 -314.9,261.7 -5.2,4.3 18.5,22 50.2,42.3"
         style="fill:#17a589;fill-opacity:1;fill-rule:nonzero;stroke:none"
         id="path94" />
      <path
         d="m 16582.8,14910.9 c -3.6,-7.6 -6.8,-13.9 -9.6,-18 -46.6,-68.8 -106.6,-128 -172.2,-178.8 -118.4,-91.6 -262.5,-185.1 -411.7,-209.4 -85.9,-14 -116.1,-24.1 -139,-36.9 -22.8,-12.8 20.2,-51.2 20.2,-55.8 0,-4.6 132.3,-75.6 273.7,-92.7 210.3,-25.3 424.1,67.1 520.2,261.2 36.3,73.5 54.5,154.9 58.6,236.5 3.5,67.5 17.3,143.7 -28.6,201.1 -45.3,56.6 -87.5,-56.3 -111.6,-107.2"
         style="fill:#39393a;fill-opacity:1;fill-rule:nonzero;stroke:none"
         id="path96" />
      <path
         d="m 16812.4,14733.9 c 494.9,-351.1 487.7,-575.5 443.8,-863.3 -39.9,-261.9 -158,21.4 -237.2,79.7 -57.6,42.4 -116.1,83.1 -172.8,126.9 -18.6,14.3 -128.6,81.9 -124.8,110.5 3.2,24.3 91,546.2 91,546.2"
         style="fill:#39393a;fill-opacity:1;fill-rule:nonzero;stroke:none"
         id="path98" />
      <path
         d="m 16739.3,14082.8 c 99.4,-83.3 197.2,-169.2 289.8,-260 92.9,-91 112.3,-156.8 114,-289.5 2.3,-191.5 59.7,-376 88.2,-564.1 14.6,-95.4 22.2,-192.7 9.7,-288.9 -14.6,-113.3 -36.4,-58.5 -86.9,-3.4 -25.6,27.8 -50.8,56.1 -74.2,85.7 -72.5,91.4 -73.7,170.6 -88.3,285 -15.9,125.3 -112,171 -168.2,285.3 -35.2,71.4 -54.5,225.4 -89.6,296.8 -73,148.4 -92.8,318 -42.1,475 0,0 47.5,-21.9 47.6,-21.9"
         style="fill:#39393a;fill-opacity:1;fill-rule:nonzero;stroke:none"
         id="path100" />
      <path
         d="m 15666.2,14460.8 c -78,-144.2 -243.8,-544.2 -302.4,-656.4 -58.5,-112.1 -146.3,-156 -126.8,-273.1 19.5,-117 176.6,-543.5 243.9,-684.9 67.2,-141.5 165.8,-429.2 219.5,-558.8 57.2,-138.3 107.3,-287.8 131.6,-360.9 19.8,-59.3 209,210.9 280.3,315.8 17.8,26.2 29.9,55.5 35.6,86.6 19.5,105.9 68.5,376.1 108.5,626.7 23.2,145.2 68.3,204.8 107.3,526.7 39,321.9 19.5,268.3 117,434.1 97.6,165.8 122,380.5 102.5,385.3 -131.7,-97.5 -272,-95.3 -368.5,-112.1 -26.2,-4.6 -108.2,-16.4 -207.1,16.8 -164,55.1 -189.2,83 -223.3,146.4 -34.2,63.4 -118.1,107.8 -118.1,107.8"
         style="fill:#39393a;fill-opacity:1;fill-rule:nonzero;stroke:none"
         id="path102" />
      <path
         d="m 16144.6,12149.7 c -13.5,-4 -25.7,-13.2 -38.3,-27.2 -51.7,-57.7 -99.5,-118.7 -143.3,-182.5 -41.1,-60 -96.6,-130.8 -112.7,-203.2 -12.9,-58.2 161.8,-136.5 197.8,-159.7 88.2,-56.6 163.5,-124.5 216.9,-215.7 31.9,-54.3 42.9,-23 49.9,21.8 20.9,134.3 37.1,276.1 25.7,414.3 -9.7,116.5 -26.6,298.7 -149.3,347.7 -17.9,7.1 -33,8.5 -46.7,4.5"
         style="fill:#39393a;fill-opacity:1;fill-rule:nonzero;stroke:none"
         id="path104" />
      <path
         d="m 15582.1,9132.3 c -87.8,-78.1 -333.1,-509.9 -255.1,-929.3 78,-419.5 -121.1,268.5 -165.6,537.9 -35.2,212.9 -57.1,375.5 -17.1,410.9 62.9,55.5 437.8,-19.5 437.8,-19.5"
         style="fill:#39393a;fill-opacity:1;fill-rule:nonzero;stroke:none"
         id="path106" />
      <path
         d="m 16636.8,9627.3 c 29.3,-190.2 -39,-1629 -151.2,-2063.1 -112.2,-434.1 -86.7,-170.7 -62.9,43.9 23.9,214.6 -44.4,765.7 -54.1,960.8 -9.8,195.1 29.2,678 112.1,887.7 83,209.7 68.3,219.5 117.1,292.7 48.8,73.1 39,-122 39,-122"
         style="fill:#39393a;fill-opacity:1;fill-rule:nonzero;stroke:none"
         id="path108" />
      <path
         d="m 16337.8,6949.7 c 50.6,-248.4 79.5,-687.7 103.9,-707.3 -209.7,224.4 -442.7,1050.4 -497.5,1326.7 -54,272.9 -54.8,1171.2 -79.2,1317.5 -24.4,146.3 1.9,135.5 24.5,214 33,114 167.1,299.2 236.1,368.2 263.3,263.4 57.6,-1760.6 212.2,-2519.1"
         style="fill:#39393a;fill-opacity:1;fill-rule:nonzero;stroke:none"
         id="path110" />
      <path
         d="m 15398,8198.3 c 0,-258.5 234.1,-931.6 219.4,-1234 -14.6,-302.4 46.6,-829.2 56.3,-873.1 -102.4,239 -151.1,756 -156,1009.7 -4.8,253.6 -173.4,692.5 -153.9,838.9 19.5,146.3 34.2,258.5 34.2,258.5"
         style="fill:#39393a;fill-opacity:1;fill-rule:nonzero;stroke:none"
         id="path112" />
      <path
         d="m 16241.7,6342.4 c 395.1,-460.9 296.4,-1590 230.5,-1889.9 -65.8,-300 -74.4,-352.6 -212.5,-350.7 -54.2,0.7 -176.5,77.5 -154.5,326.3 21.9,248.7 -4.9,938.2 -4.9,1214.4 0,161 -43.9,945.2 -43.9,945.2 l 185.3,-245.3"
         style="fill:#39393a;fill-opacity:1;fill-rule:nonzero;stroke:none"
         id="path114" />
      <path
         d="m 15984.8,6018.1 c -54.6,-570.7 -11.3,-1282.3 0,-1497.4 10.9,-204.8 21.2,-399.5 -76.4,-419 -97.5,-19.5 -332.4,291 -376.3,576.3 -34.9,226.8 26.2,710.8 65.8,925.5 56.2,304.2 126.2,414.6 202.1,570.7 75.9,156 147.9,331.6 160.7,404.8 12.8,73.1 24.1,-560.9 24.1,-560.9"
         style="fill:#39393a;fill-opacity:1;fill-rule:nonzero;stroke:none"
         id="path116" />
      <path
         d="m 16209.9,2434.4 c -53.6,-238.9 -41,-346.8 -143.8,-368.2 -187.8,-39 -224.4,112.2 -234.2,229.2 -9.7,117.1 -63.4,165.9 -63.4,165.9 0,0 1.8,-434.2 24.4,-541.4 19.5,-92.7 18.6,-148.6 118.6,-148.6 140.7,0 241.3,-23.3 310.6,-0.2 78.5,26.2 47.7,352.8 58.6,504.8 12.5,175.6 20.7,210.9 10.9,254.8 -9.8,43.9 -81.7,-96.3 -81.7,-96.3"
         style="fill:#39393a;fill-opacity:1;fill-rule:nonzero;stroke:none"
         id="path118" />
      <path
         d="m 16237.8,3957.3 c -66.3,-1.7 -121.4,-52.1 -129.6,-117.9 -47.2,-378.5 -84.9,-1315.6 -76.2,-1376.9 9.8,-68.3 42.9,-389.6 73.2,-242.7 89,431.7 142,1057.8 195.1,1316.9 51.2,250 141.4,311 43.9,389 -49.8,39.8 -41,33.3 -106.4,31.6"
         style="fill:#39393a;fill-opacity:1;fill-rule:nonzero;stroke:none"
         id="path120" />
      <path
         d="m 15949.3,3906.2 c 81.5,-92.7 -5.2,-1724.5 -19.7,-1725.6 -14.6,-1 -53.7,525.8 -126.8,828.1 -73.2,302.5 -75.9,798.7 -75.6,799.9 29.4,117 160.9,139.5 222.1,97.6"
         style="fill:#39393a;fill-opacity:1;fill-rule:nonzero;stroke:none"
         id="path122" />
      <path
         d="m 15763.3,8919.3 c 46.1,-199.2 230.1,-2350 46.1,-2589.1 -78.1,131.7 -135.3,1282.8 -313.4,1746.1 -92.5,240.6 7.3,553.6 50.7,719.4 14.1,53.8 153.7,280.5 153.7,280.5 l 62.9,-156.9"
         style="fill:#39393a;fill-opacity:1;fill-rule:nonzero;stroke:none"
         id="path124" />
      <path
         d="m 17379.4,13936.5 c 63.4,-175.2 179.2,-753.6 125.6,-1002.4 -12.6,-58.3 -58.3,-184.2 -99.3,-65.6 -64.6,186.4 -146.1,373.7 -191.7,565.9 -30.1,126.5 88.6,344.8 165.4,502.1"
         style="fill:#39393a;fill-opacity:1;fill-rule:nonzero;stroke:none"
         id="path126" />
      <path
         d="m 17594.2,12773.6 c -5.9,-64.5 -16.8,-128.4 -18,-193.9 -2.3,-125.6 40.1,-387.4 -79.1,-476.9 -105.6,99.9 -148.1,276.2 -140,416.8 4.7,80.6 80.7,134.1 130.3,192.4 37.6,44.2 74.4,89 110.5,134.4 0,-24.5 -1.5,-48.7 -3.7,-72.8"
         style="fill:#39393a;fill-opacity:1;fill-rule:nonzero;stroke:none"
         id="path128" />
      <path
         d="m 17797.6,12631.8 c 39,-326.8 224.4,-1802.2 346.3,-2119.2 9.8,-151.2 -459.1,777.3 -513.9,1086.4 -43.5,245.1 31.1,720.6 84.7,837.7 53.7,117 82.9,195.1 82.9,195.1"
         style="fill:#39393a;fill-opacity:1;fill-rule:nonzero;stroke:none"
         id="path130" />
      <path
         d="m 17287.9,12314.8 c 46.4,-36.6 72.5,-96.7 74.7,-102.5 219.7,-573.2 309.2,-1016.2 571.6,-1524.1 17.5,-34 51.5,-129 92.7,-141.4 -146.4,43.9 -373.2,674.2 -661.2,1176.8 -62.6,109.1 -238.7,547.2 -253.3,605.8 -11.1,44.3 136.8,15.9 175.5,-14.6"
         style="fill:#39393a;fill-opacity:1;fill-rule:nonzero;stroke:none"
         id="path132" />
      <path
         d="m 17967.1,12317.2 c 73.2,-302.4 169.6,-1245 384.2,-1804.6 -175.6,117 -283,534 -312.2,704.7 -62.1,361.7 -111.6,760.2 -136.3,1125.8 -2.4,36.1 -3.4,101.4 39.7,112.6 20.8,-41 17.8,-93.4 24.6,-138.5"
         style="fill:#39393a;fill-opacity:1;fill-rule:nonzero;stroke:none"
         id="path134" />
      <path
         d="m 15490.6,11349 c 78.1,43.9 447.8,156.2 595.1,73.2 134.1,-75.6 326.7,-511 317,-660.9 -159.5,97.6 -469.4,352.5 -610.9,409.7 -141.4,57.2 -359.7,114.6 -359.7,114.6 l 58.5,63.4"
         style="fill:#39393a;fill-opacity:1;fill-rule:nonzero;stroke:none"
         id="path136" />
      <path
         d="m 15168.7,13265.8 c 19.1,39.2 48.8,-68.2 107.3,-170.7 58.6,-102.4 263.4,-590.1 302.4,-697.4 18.9,-52.1 304.9,-740.2 220.7,-795 -244.2,-159.3 -669.4,-431.7 -669.4,-431.7 -126.8,495.1 -43.9,1924.1 39,2094.8"
         style="fill:#39393a;fill-opacity:1;fill-rule:nonzero;stroke:none"
         id="path138" />
      <path
         d="m 15307.1,16934.7 c 14.7,-27.7 10,-66.5 7.9,-102.3 -4.7,-80.2 15.7,-178.3 26.9,-258.5 14.5,-104.2 63,-241.3 113.4,-332.9 45.5,-82.8 97.3,-83.2 178,-134.6 48.6,-30.8 70.2,-32 119.1,-62.3 10.7,-6.7 64.7,-37.7 59.2,-52.8 -4.9,-13.7 -82.9,-15.8 -97.3,-17.4 -143.4,-15.9 -288,-10.8 -431.9,-5.6 -43.3,1.5 -86.7,3 -130.1,4.6 -18.9,0.7 -38.9,1.7 -54.6,12.2 -27.4,18.3 -30.7,56.5 -31.2,89.4 -4.8,280.9 -9.6,521.2 -14.4,802.1 -0.4,24.1 0,50.6 15.9,68.7 10.4,11.8 25.7,17.9 40.7,22.3 50.6,14.7 105.4,14.6 155.8,-0.3 21.8,-6.4 34.9,-18 42.6,-32.6"
         style="fill:#39393a;fill-opacity:1;fill-rule:nonzero;stroke:none"
         id="path140" />
      <path
         d="m 18345.7,10429.6 c -20.2,3.5 -40.5,4.4 -60.9,2 -116.2,-13.7 -318.6,-37.2 -364.8,-168.6 -5.3,-15.2 -5.7,-31.7 -5.9,-47.9 -1.6,-171.3 19.3,-343.1 63.4,-508.7 8.2,-31.1 17.9,-62.5 36.3,-88.9 104,-148.9 384.4,-47.6 501.8,26.6 105.9,67.1 265.2,171 272.6,307.3 6.5,121.2 -66,251.3 -163.6,320.5 -79.9,56.6 -177.3,140.1 -278.9,157.7"
         style="fill:#39393a;fill-opacity:1;fill-rule:nonzero;stroke:none"
         id="path142" />
      <path
         d="m 18176.2,9483.4 c 1.4,-77.5 2.5,-155 2,-232.5 -0.5,-49.9 -2,-99.8 -7,-149.4 -4.1,-41.3 -5.1,-117.8 -31.2,-150.3 -15.5,-19.4 -59.1,99.7 -60.6,106.9 -6.7,33.8 -5.5,453.7 -23.8,455.9 40.7,-4.8 81.9,-17.1 120.6,-30.6"
         style="fill:#39393a;fill-opacity:1;fill-rule:nonzero;stroke:none"
         id="path144" />
      <path
         d="m 18419.1,9489.7 c 32.2,-135.3 43.5,-276.9 66.5,-414.1 7.5,-44.9 15.1,-89.8 22,-134.7 9.3,-59.6 19.4,-108.7 12.8,-169.9 -0.6,-5.7 -1.5,-11.7 -5.2,-16.1 -16.9,-20.2 -57.2,0.4 -69.6,15.8 -13.7,16.9 -19.2,38.9 -22.7,60.4 -9.7,59.9 -23.9,118.9 -36,178.4 -18.3,90.1 -35.6,180.5 -53.8,270.6 -11.2,55.4 -22.4,110.8 -33.6,166.2 -1.3,6.7 -2.6,14 0.3,20.2 6.1,12.7 118.9,24.6 119.3,23.2"
         style="fill:#39393a;fill-opacity:1;fill-rule:nonzero;stroke:none"
         id="path146" />
      <path
         d="m 18633.4,9549.8 c 19.4,-20.2 32.5,-94 38.6,-112.4 16.8,-50.4 34.7,-100.4 53.1,-150.2 36.2,-97.8 74.6,-194.8 111.6,-292.3 24.7,-65 57.1,-127.8 56.2,-199.1 -0.4,-38.1 -47.6,-19.3 -67.5,-9.9 -63.9,30.3 -72,80.5 -96,139.7 -18.6,45.7 -37.6,91.3 -56.7,136.9 -59.4,141.1 -119.6,281.7 -187.3,419.2 -2.5,5.1 -5.1,10.4 -5.7,16 -5.2,50.6 113.7,56 143.6,57.1 3.5,0.2 6.9,-1.7 10.1,-5"
         style="fill:#39393a;fill-opacity:1;fill-rule:nonzero;stroke:none"
         id="path148" />
      <path
         d="m 18802.1,9706.2 c 34.5,-28.9 107.2,-193.3 119.9,-216.8 36.5,-67.4 72.9,-134.9 109.3,-202.5 29.4,-54.5 87,-126 93.8,-188.8 2,-15.5 16.3,-100.7 -21.6,-83.4 -5.7,2.6 -10,7.4 -14.1,12 -100,113.4 -177.8,239.2 -263.6,362.9 -25.2,36.3 -49.2,73.5 -75.9,108.7 -22.9,30.3 -62.3,58.5 -80.4,91 -7.9,14.1 -7,31.3 -5.8,47.4 0.4,5.7 0.9,11.8 4,16.7 2.8,4.6 7.5,7.6 12,10.4 34.7,21.2 72.7,37 112.2,46.6 2.8,0.7 6.3,-0.9 10.2,-4.2"
         style="fill:#39393a;fill-opacity:1;fill-rule:nonzero;stroke:none"
         id="path150" />
      <path
         d="m 18830,10212.6 c 61,-58.5 160.9,-172.8 202.4,-259.5 41.5,-86.8 219.5,-120.9 221.9,-174.6 2.5,-53.6 14.7,-87.8 -9.7,-90.2 -24.4,-2.4 -117.1,-7.3 -173.2,43.9 -56.1,51.2 -97.5,80.5 -134.1,131.7 -36.6,51.2 -68.3,112.2 -85.4,192.6 -17,80.5 -65.8,192.7 -65.8,192.7 l 43.9,-36.6"
         style="fill:#39393a;fill-opacity:1;fill-rule:nonzero;stroke:none"
         id="path152" />
      <path
         d="m 9362.34,9780.4 c -24.39,25.6 -154.86,109.7 -186.56,142.6 -31.7,32.9 -31.7,58.5 -119.49,209.7 -87.8,151.2 -415.19,285.4 -451.77,292.7 -36.58,7.3 -107.91,96.9 -126.2,146.3 -75.42,203.6 -252.4,899.9 -329.22,1521.7 -76.82,621.9 -365.8,973.1 -523.1,1188.9 7.32,596.3 -129.43,720.5 -204.85,910.8 7.32,150 59.4,475.9 24.21,904.4 -27.87,339.4 -452.2,744.2 -715.57,780.8 -170.56,23.7 -264.6,-17.1 -485.3,0 -220.7,17 -634.06,387.7 -656,431.6 -21.95,43.9 -68.29,409.7 -34.14,456 34.14,46.4 39.01,2.5 73.16,97.6 34.13,95.1 15.73,266.1 15.73,266.1 0,0 9.06,36.5 15.36,11.3 3.66,-14.6 10.97,-29.9 27.43,-38.4 25.55,-13.3 57.34,48.4 90.84,106.7 89.1,155.1 172.56,451.1 49.39,488.3 -22.42,6.8 -54.87,-51.2 -54.87,-51.2 0,29.3 29.26,300 -14.63,468.2 -35.16,134.8 -166.79,269.6 -270.7,351.2 -126.93,99.7 -385.81,106.8 -450.26,107.3 v 0 c -1.33,0 -3.7,0 -5.73,0 -2.03,0 -4.4,0 -5.73,0 v 0 c -64.46,-0.5 -323.33,-7.6 -450.26,-107.3 -103.91,-81.6 -235.54,-216.4 -270.7,-351.2 -43.89,-168.2 -14.63,-438.9 -14.63,-468.2 0,0 -32.45,58 -54.87,51.2 -123.17,-37.2 -39.72,-333.2 49.38,-488.3 33.51,-58.3 65.29,-120 90.85,-106.7 16.46,8.5 23.77,23.8 27.43,38.4 6.3,25.2 15.36,-11.3 15.36,-11.3 0,0 -18.41,-171 15.73,-266.1 34.14,-95.1 39.02,-51.2 73.16,-97.6 34.14,-46.3 -12.19,-412.1 -34.14,-456 -21.95,-43.9 -435.3,-414.6 -656,-431.6 -220.7,-17.1 -314.74,23.7 -485.3,0 -263.38,-36.6 -687.71,-441.4 -715.57,-780.8 -35.19,-428.5 16.89,-754.4 24.2,-904.4 -75.41,-190.3 -212.16,-314.5 -204.84,-910.8 -157.3,-215.8 -446.28,-567 -523.1,-1188.9 -76.82,-621.8 -253.8,-1318.1 -329.22,-1521.7 -18.29,-49.4 -89.62,-139 -126.2,-146.3 -36.58,-7.3 -363.97,-141.5 -451.77,-292.7 -87.791,-151.2 -87.791,-176.8 -119.495,-209.7 -31.699,-32.9 -162.171,-117 -186.558,-142.6 -24.383,-25.7 -41.457,-122 26.828,-137.8 68.281,-15.9 250.879,23.7 310.325,157.3 71.32,46.6 88.7,47.5 88.7,47.5 0,0 24.08,-73.1 20.43,-131.7 -3.66,-58.5 -123.77,-237.7 -171.322,-343.8 -47.555,-106.1 -190.215,-301.8 -151.805,-356.7 38.406,-54.8 93.281,-45.7 117.055,-27.4 23.773,18.3 159.122,247.8 185.642,288.1 30.18,39.3 143.58,185.6 163.7,207.5 -32.32,-133.5 -84.75,-290.8 -105.47,-352.9 -20.73,-62.2 -117.4,-249.5 -118.28,-313.4 -1.22,-89 60.22,-108.7 101.2,-81.7 114.62,75.6 178.97,269.3 207.29,325.5 47.94,95.3 99.99,264.6 148.76,342.7 -12.19,-95.1 -41.95,-226.2 -57.92,-337.2 -8.07,-56.1 -57.28,-345 5.49,-363.9 96.94,-29.3 109.74,82.3 148.15,214 38.41,131.6 85.96,457.2 115.23,506.6 43.89,-9.2 37.3,-40.2 45.72,-128 11.06,-115.5 1.83,-402.4 85.97,-402.4 84.13,0 90.23,289 101.2,464.5 10.97,175.6 68.28,268.3 97.55,412.2 29.26,143.9 97.42,343.7 92.67,512.1 -2.21,78.2 -35.36,147.5 31.7,397.5 41.15,153.4 558.46,1165.7 616.63,1260.8 63.01,103 180.82,409.7 210.08,643.8 29.27,234.1 24.39,243.9 39.02,356.1 14.63,112.1 60,161.6 117.06,229.2 65.84,78 160.95,309.7 234.11,625.5 34.14,1.2 44.59,29.4 60.97,18.3 0,0 43.89,-499.9 134.12,-638.9 90.23,-139 63.41,-190.2 82.92,-241.5 19.51,-51.2 9.75,-385.3 -4.88,-570.6 -14.63,-185.3 -57.3,-831.6 -97.54,-985.2 -40.24,-153.7 -90.24,-219.5 -129.25,-414.6 -39.03,-195.1 -101.22,-450.5 -114.62,-690.1 0,0 -81.97,-568.8 -74.38,-782.9 8.13,-229.3 -51.22,-1788.7 278.01,-2169.2 -15.85,-74.3 -1.22,-203.6 1.22,-242.6 2.43,-39 -92.67,-443.9 -56.09,-714.6 36.58,-270.6 21.94,-176.8 14.63,-244.4 -7.32,-67.7 -299.96,-974.9 139,-2645.4 26.23,-99.8 36.58,-301.2 36.58,-407.3 0,-106 -36.58,-314.5 -36.58,-413.3 0,-98.8 -3.66,-146.3 18.29,-208.5 21.95,-62.2 18.29,-164.6 3.66,-241.4 -14.63,-76.9 -310.93,-285.4 -336.54,-398.8 -25.6,-113.4 -58.52,-179.2 -10.97,-212.1 47.55,-33 69.5,0 69.5,0 0,0 -18.29,-54.9 10.97,-84.2 29.27,-29.2 117.06,-25.6 117.06,-25.6 0,0 29.27,-7.3 47.56,-36.5 18.28,-29.3 95.11,-43.9 113.4,-25.7 18.28,18.3 29.26,16.8 43.89,-8 7.91,-13.5 40.43,-29.3 68.63,-40.9 27.11,-11.3 57.89,-8.8 82.88,6.6 l 57,35 c 0,0 47.55,-54.8 58.52,-58.5 10.98,-3.7 124.38,-43.9 153.64,0 29.27,43.9 168.27,150 160.95,274.4 -7.31,124.3 -18.28,193.8 -14.62,237.7 3.65,43.9 14.62,109.8 32.92,175.6 18.29,65.9 40.23,95.1 25.6,219.5 -14.63,124.4 -3.66,131.7 -3.66,153.6 0,22 18.29,80.5 21.95,146.3 3.66,65.9 -47.55,201.2 -47.55,201.2 0,0 -21.95,131.7 -32.92,311 -10.98,179.2 25.6,885.2 98.76,1119.3 73.16,234.1 116.08,307.4 124.38,365.8 87.79,618.2 -54.79,1283.9 -80.48,1519.3 -14.63,134.1 43.9,148.8 80.48,284.1 36.57,135.4 65.84,471.9 25.6,621.9 -29.52,110 102.43,512.1 120.72,636.5 18.29,124.4 269.47,1086.4 282.88,1258.3 13.41,172 30.49,705.2 -14.63,785.7 21.48,0 83.04,-42.7 109.27,-50.2 1.13,-0.9 3.04,-1.1 5.31,-0.9 2.27,-0.2 4.18,0 5.32,0.9 26.22,7.5 87.78,50.2 109.26,50.2 -45.12,-80.5 -28.05,-613.7 -14.64,-785.7 13.42,-171.9 264.6,-1133.9 282.89,-1258.3 18.29,-124.4 150.24,-526.5 120.71,-636.5 -40.23,-150 -10.97,-486.5 25.61,-621.9 36.58,-135.3 95.11,-150 80.48,-284.1 -25.69,-235.4 -168.27,-901.1 -80.48,-1519.3 8.29,-58.4 51.21,-131.7 124.37,-365.8 73.17,-234.1 109.74,-940.1 98.77,-1119.3 -10.97,-179.3 -32.92,-311 -32.92,-311 0,0 -51.21,-135.3 -47.56,-201.2 3.66,-65.8 21.95,-124.3 21.95,-146.3 0,-21.9 10.98,-29.2 -3.65,-153.6 -14.64,-124.4 7.31,-153.6 25.6,-219.5 18.29,-65.8 29.26,-131.7 32.93,-175.6 3.65,-43.9 -7.32,-113.4 -14.64,-237.7 -7.31,-124.4 131.69,-230.5 160.95,-274.4 29.27,-43.9 142.66,-3.7 153.64,0 10.98,3.7 58.53,58.5 58.53,58.5 l 57,-35 c 24.98,-15.4 55.77,-17.9 82.87,-6.6 28.2,11.6 60.72,27.4 68.64,40.9 14.63,24.8 25.6,26.3 43.89,8 18.29,-18.2 95.11,-3.6 113.4,25.7 18.29,29.2 47.55,36.5 47.55,36.5 0,0 87.8,-3.6 117.06,25.6 29.26,29.3 10.97,84.2 10.97,84.2 0,0 21.95,-33 69.51,0 47.55,32.9 14.63,98.7 -10.98,212.1 -25.6,113.4 -321.91,321.9 -336.53,398.8 -14.64,76.8 -18.3,179.2 3.65,241.4 21.95,62.2 18.29,109.7 18.29,208.5 0,98.8 -36.58,307.3 -36.58,413.3 0,106.1 10.35,307.5 36.58,407.3 438.97,1670.5 146.32,2577.7 139.01,2645.4 -7.32,67.6 -21.95,-26.2 14.63,244.4 36.58,270.7 -58.53,675.6 -56.09,714.6 2.44,39 17.07,168.3 1.22,242.6 329.22,380.5 269.88,1939.9 278.01,2169.2 7.59,214.1 -74.38,782.9 -74.38,782.9 -13.4,239.6 -75.6,495 -114.62,690.1 -39.02,195.1 -89.01,260.9 -129.25,414.6 -40.23,153.6 -82.92,799.9 -97.54,985.2 -14.64,185.3 -24.39,519.4 -4.88,570.6 19.5,51.3 -7.32,102.5 82.91,241.5 90.24,139 134.13,638.9 134.13,638.9 16.38,11.1 26.82,-17.1 60.97,-18.3 73.16,-315.8 168.27,-547.5 234.11,-625.5 57.05,-67.6 102.42,-117.1 117.06,-229.2 14.63,-112.2 9.75,-122 39.02,-356.1 29.26,-234.1 147.07,-540.8 210.08,-643.8 58.17,-95.1 575.48,-1107.4 616.62,-1260.8 67.07,-250 33.92,-319.3 31.71,-397.5 -4.75,-168.4 63.41,-368.2 92.67,-512.1 29.26,-143.9 86.57,-236.6 97.55,-412.2 10.97,-175.5 17.07,-464.5 101.2,-464.5 84.14,0 74.9,286.9 85.97,402.4 8.42,87.8 1.83,118.8 45.72,128 29.27,-49.4 76.82,-375 115.23,-506.6 38.41,-131.7 51.21,-243.3 148.15,-214 62.76,18.9 13.56,307.8 5.49,363.9 -15.97,111 -45.73,242.1 -57.92,337.2 48.77,-78.1 100.82,-247.4 148.76,-342.7 28.32,-56.2 92.66,-249.9 207.28,-325.5 40.98,-27 102.43,-7.3 101.21,81.7 -0.88,63.9 -97.55,251.2 -118.28,313.4 -20.73,62.1 -73.16,219.4 -105.47,352.9 20.12,-21.9 133.52,-168.2 163.7,-207.5 26.52,-40.3 161.86,-269.8 185.64,-288.1 23.78,-18.3 78.65,-27.4 117.06,27.4 38.41,54.9 -104.25,250.6 -151.81,356.7 -47.56,106.1 -167.66,285.3 -171.32,343.8 -3.66,58.6 20.43,131.7 20.43,131.7 0,0 17.37,-0.9 88.7,-47.5 59.45,-133.6 242.04,-173.2 310.33,-157.3 68.28,15.8 51.21,112.1 26.82,137.8"
         style="fill:#bdbcba;fill-opacity:1;fill-rule:nonzero;stroke:none"
         id="path154" />
      <path
         d="m 5514.69,18573 c -155.62,55.9 -302.02,106.5 -485.35,91 -183.31,15.5 -329.73,-35.1 -485.34,-91 -242.05,-87 -314.34,-411.7 -309.3,-646 0,-96.7 25.1,-192.8 46.46,-286.5 21.88,-96 33.96,-190.1 44.66,-288 0.8,-7.3 2.04,-15.4 7.87,-19.8 13.94,-10.5 29.92,11 32.95,28.2 13.75,78.2 16.84,154.6 16.76,235.3 -0.35,351.9 109.39,171.4 127.76,502.6 4.71,84.9 44.54,143 138.43,138.5 129.48,-6.2 253,7.3 379.75,30.6 126.75,-23.3 250.28,-36.8 379.75,-30.6 93.9,4.5 133.73,-53.6 138.44,-138.5 18.37,-331.2 128.11,-150.7 127.76,-502.6 -0.09,-80.7 3.01,-157.1 16.76,-235.3 3.02,-17.2 19.01,-38.7 32.94,-28.2 5.83,4.4 7.08,12.5 7.88,19.8 10.69,97.9 22.78,192 44.66,288 21.35,93.7 46.45,189.8 46.45,286.5 5.04,234.3 -67.25,559 -309.29,646"
         style="fill:#68696b;fill-opacity:1;fill-rule:nonzero;stroke:none"
         id="path156" />
      <path
         d="m 3529.59,14949.9 c -23.49,-314.7 58.96,-695.4 312.35,-846.5 93.05,-55.4 200.96,-79.6 307.15,-101.1 333.34,-67.2 736.32,98.8 768.9,403.4 34.86,325.9 84.48,716 -61.84,1001.3 -97.33,189.8 -191.39,190.2 -297.47,201.2 -106.08,11 -434.13,21.9 -562.18,-36.6 -166.45,-76.1 -362.51,-186.6 -420.96,-370.7 -23.25,-73.2 -39.09,-159.3 -45.95,-251"
         style="fill:#39393a;fill-opacity:1;fill-rule:nonzero;stroke:none"
         id="path158" />
      <path
         d="m 3631.93,14221.8 c 102.43,-120.7 254.89,-205.2 342.64,-250.1 44.29,-22.7 48.77,-108.4 12.19,-119.4 -36.58,-10.9 -336.54,96.1 -373.12,163.3 -36.58,67.2 -47.55,166 -40.24,206.2 7.32,40.2 58.53,0 58.53,0"
         style="fill:#39393a;fill-opacity:1;fill-rule:nonzero;stroke:none"
         id="path160" />
      <path
         d="m 3529.76,13938.5 c -1.37,-8.2 -1.22,-16.3 0.93,-24.3 34.05,-126.3 154.16,-337.7 202.45,-361.8 29.26,-14.7 164.61,131.7 182.9,142.6 18.29,11 58.53,65.9 58.53,65.9 0,0 -290.75,105.1 -346,155.5 -19.57,17.8 -82.94,116.4 -82.94,116.4 l -15.87,-94.3"
         style="fill:#39393a;fill-opacity:1;fill-rule:nonzero;stroke:none"
         id="path162" />
      <path
         d="m 3550.24,13706 c 0,0 -25.61,-193.9 43.89,-340.2 69.51,-146.3 98.77,-164.6 98.77,-164.6 0,0 87.79,234.1 51.21,270.7 -36.58,36.6 -193.87,234.1 -193.87,234.1"
         style="fill:#39393a;fill-opacity:1;fill-rule:nonzero;stroke:none"
         id="path164" />
      <path
         d="m 3748.72,12760.4 c 46.33,-70.7 353.27,-301.8 384.97,-340.8 31.71,-39 -0.3,-277.4 10.37,-370.7 -121.94,29.3 -380.9,242.7 -397.97,325.6 -17.07,82.9 2.63,385.9 2.63,385.9"
         style="fill:#39393a;fill-opacity:1;fill-rule:nonzero;stroke:none"
         id="path166" />
      <path
         d="m 3733.14,13142.3 c 17.07,-18.3 287.15,-245.1 399.98,-298.2 48.34,-22.8 10.94,-374.9 10.94,-374.9 0,0 -333.7,269 -384.05,349.5 -50.35,80.4 -31.14,132.2 -36.02,166.3 -4.87,34.2 9.15,157.3 9.15,157.3"
         style="fill:#39393a;fill-opacity:1;fill-rule:nonzero;stroke:none"
         id="path168" />
      <path
         d="m 4300.13,13823.1 c -65.34,-44.4 -65.84,-172 -76.82,-223.2 -10.97,-51.2 25.61,-281.6 25.61,-281.6 0,0 36.58,-182.9 51.21,-204.9 18.32,-27.3 499.06,283.7 545.31,312.3 38.95,24.2 89.38,23.7 107.65,74.6 30.03,83.6 14.26,185.8 10.64,273.9 -3.18,77.4 1.44,242.2 -72.64,290.8 -66.34,43.4 -155.81,-31.3 -214.97,-57.4 -102.1,-45.1 -204.44,-90.6 -303.25,-142.6 -24.73,-13 -49.6,-26.2 -72.74,-41.9"
         style="fill:#39393a;fill-opacity:1;fill-rule:nonzero;stroke:none"
         id="path170" />
      <path
         d="m 4897.05,13330.8 c -49.13,-11.8 -57.82,-28.3 -105,-51 -58.34,-28.1 -115.77,-58.2 -172.43,-89.5 -87.9,-48.6 -196.06,-99.1 -265.46,-174 -2.69,-2.9 -5.33,-5.8 -7.7,-9 -56.08,-75.6 -58.53,-331.6 -53.65,-348.7 4.88,-17.1 637.92,-67.1 669.42,23.2 26.63,76.2 6.24,157.2 9.15,236.7 4.2,114.8 10.48,251.6 -1.83,354 -1.02,8.5 -49.38,63.8 -72.5,58.3"
         style="fill:#39393a;fill-opacity:1;fill-rule:nonzero;stroke:none"
         id="path172" />
      <path
         d="m 4291.14,12500.1 c -39.78,-117.1 -17.83,-414.6 30.94,-456 48.77,-41.5 560.89,-39.6 614.55,-37.2 53.64,2.5 50.31,259.1 51.21,342 0.89,82.9 6.48,223.9 -25.22,236.1 -31.71,12.2 -262.55,10.2 -333.27,-16.6 -70.72,-26.9 -338.21,-68.3 -338.21,-68.3"
         style="fill:#39393a;fill-opacity:1;fill-rule:nonzero;stroke:none"
         id="path174" />
      <path
         d="m 4291.14,11909.9 c 11.43,-180.4 124.21,-1657.2 566.56,-1761.3 41.45,-9.8 85.7,-54.4 98.2,-30 32.93,78 32.87,1645 32.87,1713.3 0,68.3 -104.64,75.3 -158.29,89.9 -53.65,14.6 -487.21,27.1 -513.28,7.6 -26.06,-19.5 -26.06,-19.5 -26.06,-19.5"
         style="fill:#39393a;fill-opacity:1;fill-rule:nonzero;stroke:none"
         id="path176" />
      <path
         d="m 3744.26,12261.5 c 2.78,6.9 11.85,8 16.95,2.7 205.99,-215.3 350.2,-280.6 390.16,-312.8 37.8,-30.5 48.78,-699.9 92.67,-865.7 19.75,-74.7 57.73,-149 24.6,-165 -43.89,-21.3 -159.65,32.1 -192.61,68 l -392.89,428.6 c 0,0 8.72,715.7 61.12,844.2"
         style="fill:#39393a;fill-opacity:1;fill-rule:nonzero;stroke:none"
         id="path178" />
      <path
         d="m 4080.65,13753.6 c -165.83,-141.5 -239.46,-208.9 -257.28,-240.2 -19.84,-34.9 225.58,-232.9 291.42,-254.9 65.84,-21.9 29.27,180.5 29.27,236.6 0,56.1 4.87,275.5 0,290.2 -4.88,14.6 -63.41,-31.7 -63.41,-31.7"
         style="fill:#39393a;fill-opacity:1;fill-rule:nonzero;stroke:none"
         id="path180" />
      <path
         d="m 3801.83,13380.2 c 4.39,13.9 21.73,18.7 32.32,8.7 75.82,-71.6 284.95,-178.7 296.8,-217 9.19,-29.6 29,-246 2.17,-253.3 -26.82,-7.3 -393.58,246.9 -389.01,270 6.08,30.7 40.48,137 57.72,191.6"
         style="fill:#39393a;fill-opacity:1;fill-rule:nonzero;stroke:none"
         id="path182" />
      <path
         d="m 4559.85,16691 c 164.61,-132.9 167.77,-278.3 240.21,-423.1 208.5,-417.1 132.6,-668.7 84.19,-616.8 -141,151 -287.82,633.8 -309.77,674.1 -21.95,40.2 -14.63,365.8 -14.63,365.8"
         style="fill:#39393a;fill-opacity:1;fill-rule:nonzero;stroke:none"
         id="path184" />
      <path
         d="m 4534.49,16086.2 c -19.51,-151.2 -7.46,-201.2 24.19,-281.7 31.65,-80.5 209.67,-164.6 226.75,-176.8 -96.33,230.4 -185.34,389 -226.75,532.8 -34.19,-7.3 -24.19,-74.3 -24.19,-74.3"
         style="fill:#39393a;fill-opacity:1;fill-rule:nonzero;stroke:none"
         id="path186" />
      <path
         d="m 4412.31,16114.2 c -82.92,-100 -397.51,-306.7 -485.3,-334.1 -14.63,-56.7 446.28,-108.5 504.81,-62.2 58.53,46.4 58.53,345.1 48.77,396.3 -9.75,51.2 -68.28,0 -68.28,0"
         style="fill:#39393a;fill-opacity:1;fill-rule:nonzero;stroke:none"
         id="path188" />
      <!--Anterior Deltoid, Lateral Deltoid-->
      <path
         d="m 3847.89,15575.3 c -44.03,-28.7 -104.38,-41.9 -152.15,-64 -140.72,-64.8 -271.26,-135.1 -269.94,-307.7 1.03,-134.4 17.14,-279.8 -55.62,-392.7 -46.32,-71.9 -107.44,-132.2 -161.64,-197.9 -53.58,-64.9 -85.2,-123.8 -176.52,-76.1 -214.22,112 -362.23,332.1 -343.3,578.6 10.46,136.3 72.3,267.9 169.34,364 107.74,106.7 212.4,211.6 351.52,279.1 190.66,92.5 402.93,58.5 574.77,-60 62.19,-42.9 63.54,-123.3 63.54,-123.3"
         style="fill:#17a589;fill-opacity:1;fill-rule:nonzero;stroke:none"
         id="path190" />
      <path
         d="m 3211.22,14122 c -89.65,-333.4 -434.63,-1075.9 -440.25,-1093.4 -13.73,-42.6 13.21,-99.1 48.23,-124.6 54.85,-39.9 112.52,44.6 142.09,81 199.98,246.7 376.58,710.8 404.83,824.7 33.84,136.4 141.44,329.2 97.54,558.4 -43.89,229.3 -82.91,336.6 -102.42,312.2 -25.71,-32.3 -31.29,-99.6 -41.29,-138.1 -27.03,-104.1 -41.25,-211.6 -70.82,-314.2 -10.35,-35.9 -28.1,-69.5 -37.91,-106"
         style="fill:#39393a;fill-opacity:1;fill-rule:nonzero;stroke:none"
         id="path192" />
      <path
         d="m 2880.82,14378.7 c -113.5,-58.5 -305.94,-392.9 -332.88,-559.7 -49.99,-309.4 -34.81,-478 -37.8,-569.4 -2.99,-91.5 160.95,-73.2 297.52,51.2 85.05,77.4 313.91,597.5 268.25,854.3 -33.34,187.6 -92.67,267.5 -195.09,223.6"
         style="fill:#39393a;fill-opacity:1;fill-rule:nonzero;stroke:none"
         id="path194" />
      <path
         d="m 2458.93,13112.6 c 122.35,60.9 62.87,-740.5 -21.95,-951.5 -90.23,-224.4 -207.97,-523.3 -321.9,-797.4 -68.13,-164 -260.94,-758.5 -343.86,-797.5 -82.91,-39 -4.88,353.6 34.15,509.7 39.01,156.1 151.19,805.1 185.33,926.9 34.14,121.7 9.76,461.2 97.55,586.5 87.79,125.4 190.22,433.4 370.68,523.3"
         style="fill:#39393a;fill-opacity:1;fill-rule:nonzero;stroke:none"
         id="path196" />
      <path
         d="m 2791.81,12709.8 c 63.4,-239 -35.97,-466.4 -84.74,-607.8 -48.78,-141.5 -144.5,-279.9 -232.29,-416.4 -87.79,-136.6 -329.59,-704.9 -386.53,-856 -136.46,-362.2 -202.41,-258.5 -148.76,-121.9 53.65,136.5 154.86,446.2 218.26,592.6 63.41,146.3 81.7,233 157.3,398.7 74.38,163 159.73,337.7 213.38,484.1 53.65,146.3 78.04,502.3 165.83,526.7 87.8,24.4 97.55,0 97.55,0"
         style="fill:#39393a;fill-opacity:1;fill-rule:nonzero;stroke:none"
         id="path198" />
      <path
         d="m 2569.89,11703.3 c -107.74,-136.6 -191.05,-316 -245.09,-442.1 -49.94,-116.5 -97.9,-233.9 -144.3,-351.9 -43.01,-109.3 -86.92,-219.3 -120.56,-332 -5.61,-18.7 -22.32,-46.4 -14.37,-66.1 20.24,16.4 30.07,41.6 42.84,63.5 13.41,23 26.08,46.4 38.34,70 29,55.8 55.8,112.7 81.9,169.9 59.22,129.8 114.53,261.3 171.42,392.2 48.89,112.4 97.33,226 156.39,333.5 2.93,5.4 5.91,10.7 8.93,16 141.44,248.8 185.33,317.1 243.86,463.4 58.53,146.3 185.34,385.3 165.83,429.2 -13.59,30.5 -62.6,79.5 -84.02,95.1 -7.47,5.4 -13.93,-42 -14.62,-51.2 -23.11,-304.8 -188.99,-665.9 -286.55,-789.5"
         style="fill:#39393a;fill-opacity:1;fill-rule:nonzero;stroke:none"
         id="path200" />
      <path
         d="m 3890.43,6843.6 c 76.82,0 332.99,-18.3 362.2,-47.6 29.21,-29.2 84.08,-435.3 -76.87,-654.8 -160.96,-219.4 -299.96,-106 -343.86,22 -43.89,128 -179.24,486.5 -128.03,596.2 51.22,109.8 186.56,84.2 186.56,84.2"
         style="fill:#39393a;fill-opacity:1;fill-rule:nonzero;stroke:none"
         id="path202" />
      <path
         d="m 4376.95,6594.8 c -54.87,-252.4 -91.2,-362.1 -263.38,-702.3 -141.13,-278.9 -190.39,-537.7 -124.46,-530.4 65.93,7.3 303.7,556.4 340.28,658.5 36.59,102.1 146.65,414.8 155.47,479.1 12.44,90.9 -16.46,150 -38.41,175.6 -21.95,25.6 -69.5,-80.5 -69.5,-80.5"
         style="fill:#39393a;fill-opacity:1;fill-rule:nonzero;stroke:none"
         id="path204" />
      <path
         d="m 4356.22,5847.4 c -63.41,-195.1 -287.76,-497.5 -302.4,-687.7 -14.63,-190.2 133.21,-1407.2 117.06,-1558.3 59.41,103.2 133.99,580.5 238.99,831.5 64.67,154.7 113.97,360.5 0,1053.6 -33.24,202.1 -53.65,360.9 -53.65,360.9"
         style="fill:#39393a;fill-opacity:1;fill-rule:nonzero;stroke:none"
         id="path206" />
      <path
         d="m 3692.47,6401 c 80.9,-548.7 351.6,-1858.3 380.86,-2443.6 29.27,-585.3 7.32,-508.5 -18.29,-556 -25.6,-47.6 -259.72,602.3 -332.88,968.1 -73.16,365.8 -160.95,1258.4 -126.81,1599.8 34.14,341.4 19.51,604.8 53.65,590.2 34.14,-14.7 43.47,-158.5 43.47,-158.5"
         style="fill:#39393a;fill-opacity:1;fill-rule:nonzero;stroke:none"
         id="path208" />
      <path
         d="m 3483.17,5764.5 c -34.14,-400 -19.51,-1146.2 34.14,-1458.4 53.66,-312.1 219.49,-941.3 234.12,-1048.6 14.63,-107.3 -34.15,-229.2 0,-268.3 34.14,-39 151.2,204.8 131.68,409.7 -19.5,204.9 -167.38,726.8 -208.06,931.6 -40.68,204.9 -143.1,721.9 -138.22,902.3 4.87,180.5 4.87,409.7 14.62,590.2 9.76,180.4 34.15,253.6 0,253.6 -34.14,0 -68.28,-312.1 -68.28,-312.1"
         style="fill:#39393a;fill-opacity:1;fill-rule:nonzero;stroke:none"
         id="path210" />
      <path
         d="m 3735.82,2530.8 c 91.12,-167.1 409.71,-239 453.6,-400 68.28,63.4 121.94,321.9 87.79,468.3 -34.14,146.3 -63.4,253.6 -97.54,302.4 -34.14,48.7 -44.11,73.2 -78.04,121.9 -30.36,43.6 -134.13,153 -212.17,65.2 -78.03,-87.8 -64.36,-128.6 -82.17,-245.7 -17.81,-117 -100.73,-258.5 -71.47,-312.1"
         style="fill:#39393a;fill-opacity:1;fill-rule:nonzero;stroke:none"
         id="path212" />
      <path
         d="m 4011.15,3273.3 c 179.24,-162.1 226.79,-395 226.79,-336.5 0,58.5 10.98,223.2 -54.86,296.3 -65.85,73.2 -101.71,84.1 -144.14,84.1 -42.43,0 -27.79,-43.9 -27.79,-43.9"
         style="fill:#39393a;fill-opacity:1;fill-rule:nonzero;stroke:none"
         id="path214" />
      <path
         d="m 3791.66,2267.4 c -54.86,-142.7 -362.14,-489 -398.72,-558.5 -36.58,-69.5 209.73,-141.4 260.94,-141.4 51.21,0 209.73,-30.5 246.31,-48.8 36.58,-18.3 45.11,115.9 48.77,159.8 3.66,43.9 139.73,263.3 89.98,369.4 -49.74,106.1 73.41,73.2 -30.23,139 -103.65,65.9 -217.05,80.5 -217.05,80.5"
         style="fill:#39393a;fill-opacity:1;fill-rule:nonzero;stroke:none"
         id="path216" />
      <path
         d="m 4078.21,1949.2 c 0,-84.2 -2.94,-186.6 -52.68,-311 -49.74,-124.4 10.97,-160.9 26.34,-153.6 15.37,7.3 121.45,29.2 121.45,29.2 0,0 40.24,65.9 29.26,106.1 -10.97,40.3 97.55,156.4 39.02,252.4 -58.52,96.1 -73.42,206.1 -87.79,239 -14.37,32.9 -75.6,-162.1 -75.6,-162.1"
         style="fill:#39393a;fill-opacity:1;fill-rule:nonzero;stroke:none"
         id="path218" />
      <path
         d="m 1645.85,10429.6 c 20.16,3.5 40.48,4.4 60.87,2 116.2,-13.7 318.67,-37.2 364.81,-168.6 5.36,-15.2 5.76,-31.7 5.91,-47.9 1.55,-171.3 -19.26,-343.1 -63.35,-508.7 -8.29,-31.1 -17.95,-62.5 -36.39,-88.9 -104,-148.9 -384.38,-47.6 -501.7,26.6 -105.97,67.1 -265.28,171 -272.63,307.3 -6.54,121.2 65.95,251.3 163.54,320.5 79.94,56.6 177.32,140.1 278.94,157.7"
         style="fill:#39393a;fill-opacity:1;fill-rule:nonzero;stroke:none"
         id="path220" />
      <path
         d="m 1815.35,9483.4 c -1.39,-77.5 -2.47,-155 -1.98,-232.5 0.46,-49.9 1.95,-99.8 6.95,-149.4 4.16,-41.3 5.15,-117.8 31.19,-150.3 15.49,-19.4 59.15,99.7 60.59,106.9 6.78,33.8 5.59,453.7 23.88,455.9 -40.77,-4.8 -81.95,-17.1 -120.63,-30.6"
         style="fill:#39393a;fill-opacity:1;fill-rule:nonzero;stroke:none"
         id="path222" />
      <path
         d="m 1572.47,9489.7 c -32.24,-135.3 -43.51,-276.9 -66.49,-414.1 -7.52,-44.9 -15.09,-89.8 -22.06,-134.7 -9.23,-59.6 -19.4,-108.7 -12.75,-169.9 0.62,-5.7 1.46,-11.7 5.13,-16.1 16.95,-20.2 57.23,0.4 69.62,15.8 13.68,16.9 19.22,38.9 22.72,60.4 9.73,59.9 23.92,118.9 36.01,178.4 18.31,90.1 35.55,180.5 53.78,270.6 11.2,55.4 22.4,110.8 33.6,166.2 1.36,6.7 2.66,14 -0.31,20.2 -6.09,12.7 -118.93,24.6 -119.25,23.2"
         style="fill:#39393a;fill-opacity:1;fill-rule:nonzero;stroke:none"
         id="path224" />
      <path
         d="m 1358.1,9549.8 c -19.37,-20.2 -32.42,-94 -38.56,-112.4 -16.82,-50.4 -34.7,-100.4 -53.13,-150.2 -36.2,-97.8 -74.56,-194.8 -111.58,-292.3 -24.69,-65 -57.08,-127.8 -56.23,-199.1 0.46,-38.1 47.64,-19.3 67.56,-9.9 63.87,30.3 71.98,80.5 95.98,139.7 18.56,45.7 37.56,91.3 56.71,136.9 59.39,141.1 119.59,281.7 187.32,419.2 2.52,5.1 5.09,10.4 5.68,16 5.17,50.6 -113.68,56 -143.55,57.1 -3.58,0.2 -6.98,-1.7 -10.2,-5"
         style="fill:#39393a;fill-opacity:1;fill-rule:nonzero;stroke:none"
         id="path226" />
      <path
         d="m 1189.39,9706.2 c -34.44,-28.9 -107.14,-193.3 -119.85,-216.8 -36.5,-67.4 -72.915,-134.9 -109.302,-202.5 -29.386,-54.5 -86.976,-126 -93.769,-188.8 -2.059,-15.5 -16.34,-100.7 21.562,-83.4 5.684,2.6 10.012,7.4 14.141,12 100.008,113.4 177.738,239.2 263.608,362.9 25.18,36.3 49.13,73.5 75.82,108.7 22.99,30.3 62.35,58.5 80.49,91 7.89,14.1 6.93,31.3 5.75,47.4 -0.43,5.7 -0.93,11.8 -3.99,16.7 -2.82,4.6 -7.47,7.6 -12.02,10.4 -34.69,21.2 -72.69,37 -112.22,46.6 -2.8,0.7 -6.26,-0.9 -10.22,-4.2"
         style="fill:#39393a;fill-opacity:1;fill-rule:nonzero;stroke:none"
         id="path228" />
      <path
         d="m 1161.55,10212.6 c -60.96,-58.5 -160.95,-172.8 -202.409,-259.5 -41.453,-86.8 -219.477,-120.9 -221.918,-174.6 -2.438,-53.6 -14.633,-87.8 9.754,-90.2 24.386,-2.4 117.054,-7.3 173.144,43.9 56.09,51.2 97.549,80.5 134.129,131.7 36.58,51.2 68.28,112.2 85.35,192.6 17.07,80.5 65.85,192.7 65.85,192.7 l -43.9,-36.6"
         style="fill:#39393a;fill-opacity:1;fill-rule:nonzero;stroke:none"
         id="path230" />
      <path
         d="m 5027.48,16570.2 c 4.1,-190.2 27.75,-509.6 2.59,-580.4 -25.16,-70.7 -85.44,180.5 -167.48,353.6 -82.04,173.2 -51.15,108.2 -73.1,186.2 -21.95,78 -150.38,70.7 -62.59,78 87.79,7.3 300.58,-37.4 300.58,-37.4"
         style="fill:#39393a;fill-opacity:1;fill-rule:nonzero;stroke:none"
         id="path232" />
      <path
         d="m 4006.21,10930.3 c 150.11,-112.2 618.34,-707.2 770.86,-1453.5 0,0 -79.86,-267.2 -186.99,-243.8 -23.83,5.2 -367.92,1101 -642.27,1609.5 -78.65,145.8 -84.13,223.1 -84.13,223.1 l 142.53,-135.3"
         style="fill:#39393a;fill-opacity:1;fill-rule:nonzero;stroke:none"
         id="path234" />
      <path
         d="m 3780.69,10925.9 c 186.42,-620.6 806.75,-2976.8 795.62,-3343.4 186.45,533.5 33.53,1235.2 -195.7,1909.5 -191.7,563.9 -599.92,1433.9 -599.92,1433.9"
         style="fill:#39393a;fill-opacity:1;fill-rule:nonzero;stroke:none"
         id="path236" />
      <path
         d="m 3683.14,10793 c 117.06,-545.9 517.2,-1425.6 567.94,-2187.5 48.91,-734.2 -37.52,-1477.9 -174.09,-1536.5 -136.57,-58.5 -368.67,908 -408.48,1070.7 -100.94,412.8 -322.87,1166.5 -298.49,1555.9 21.05,336.1 77.67,512.3 122.91,668.2 60.78,209.5 190.21,429.2 190.21,429.2"
         style="fill:#39393a;fill-opacity:1;fill-rule:nonzero;stroke:none"
         id="path238" />
      <path
         d="m 3422.21,8907.9 c 24.38,-219.5 171.92,-937.7 358.48,-1402.2 86.88,-216.4 112.18,-448.7 43.9,-521.9 -68.29,-73.2 -146.32,331.7 -253.62,502.4 -107.31,170.7 -196.9,721.7 -202.81,943.7 -7.7,289.8 -55.69,517 -31.31,595.1 24.39,78 85.36,-117.1 85.36,-117.1"
         style="fill:#39393a;fill-opacity:1;fill-rule:nonzero;stroke:none"
         id="path240" />
      <path
         d="m 4305.31,8437.2 c 75.3,-840.1 -133.75,-1248.5 -22.25,-1424.1 111.5,-175.6 199.1,-99.4 185.34,-2.5 -24.44,172.2 106.08,452 0,948.7 -56.09,262.6 -163.09,477.9 -163.09,477.9"
         style="fill:#39393a;fill-opacity:1;fill-rule:nonzero;stroke:none"
         id="path242" />
      <path
         d="m 4817.13,9368.8 c -90.23,-134.1 -212.16,-258.9 -209.73,-301.4 2.44,-42.4 126.81,-686.2 119.5,-759.4 75.6,73.2 146.32,951.1 141.44,1031.6 -4.87,80.4 -51.21,29.2 -51.21,29.2"
         style="fill:#39393a;fill-opacity:1;fill-rule:nonzero;stroke:none"
         id="path244" />
      <path
         d="m 6529.09,14949.9 c 23.49,-314.7 -58.96,-695.4 -312.35,-846.5 -93.04,-55.4 -200.95,-79.6 -307.14,-101.1 -333.35,-67.2 -736.33,98.8 -768.91,403.4 -34.85,325.9 -84.47,716 61.84,1001.3 97.34,189.8 191.39,190.2 297.47,201.2 106.09,11 434.14,21.9 562.19,-36.6 166.44,-76.1 362.5,-186.6 420.95,-370.7 23.25,-73.2 39.1,-159.3 45.95,-251"
         style="fill:#39393a;fill-opacity:1;fill-rule:nonzero;stroke:none"
         id="path246" />
      <path
         d="m 6426.75,14221.8 c -102.42,-120.7 -254.88,-205.2 -342.63,-250.1 -44.3,-22.7 -48.77,-108.4 -12.2,-119.4 36.59,-10.9 336.54,96.1 373.12,163.3 36.58,67.2 47.56,166 40.24,206.2 -7.32,40.2 -58.53,0 -58.53,0"
         style="fill:#39393a;fill-opacity:1;fill-rule:nonzero;stroke:none"
         id="path248" />
      <path
         d="m 6528.93,13938.5 c 1.37,-8.2 1.22,-16.3 -0.93,-24.3 -34.05,-126.3 -154.17,-337.7 -202.45,-361.8 -29.27,-14.7 -164.61,131.7 -182.9,142.6 -18.3,11 -58.53,65.9 -58.53,65.9 0,0 290.75,105.1 345.99,155.5 19.57,17.8 82.95,116.4 82.95,116.4 l 15.87,-94.3"
         style="fill:#39393a;fill-opacity:1;fill-rule:nonzero;stroke:none"
         id="path250" />
      <path
         d="m 6508.45,13706 c 0,0 25.6,-193.9 -43.9,-340.2 -69.5,-146.3 -98.76,-164.6 -98.76,-164.6 0,0 -87.8,234.1 -51.22,270.7 36.58,36.6 193.88,234.1 193.88,234.1"
         style="fill:#39393a;fill-opacity:1;fill-rule:nonzero;stroke:none"
         id="path252" />
      <path
         d="m 6309.97,12760.4 c -46.34,-70.7 -353.28,-301.8 -384.98,-340.8 -31.7,-39 0.3,-277.4 -10.36,-370.7 121.93,29.3 380.89,242.7 397.96,325.6 17.07,82.9 -2.62,385.9 -2.62,385.9"
         style="fill:#39393a;fill-opacity:1;fill-rule:nonzero;stroke:none"
         id="path254" />
      <path
         d="m 6325.55,13142.3 c -17.07,-18.3 -287.16,-245.1 -399.99,-298.2 -48.33,-22.8 -10.93,-374.9 -10.93,-374.9 0,0 333.69,269 384.05,349.5 50.35,80.4 31.13,132.2 36.01,166.3 4.88,34.2 -9.14,157.3 -9.14,157.3"
         style="fill:#39393a;fill-opacity:1;fill-rule:nonzero;stroke:none"
         id="path256" />
      <path
         d="m 5758.55,13823.1 c 65.35,-44.4 65.85,-172 76.82,-223.2 10.98,-51.2 -25.6,-281.6 -25.6,-281.6 0,0 -36.58,-182.9 -51.22,-204.9 -18.31,-27.3 -499.05,283.7 -545.31,312.3 -38.95,24.2 -89.38,23.7 -107.64,74.6 -30.04,83.6 -14.26,185.8 -10.65,273.9 3.18,77.4 -1.44,242.2 72.64,290.8 66.35,43.4 155.82,-31.3 214.98,-57.4 102.09,-45.1 204.43,-90.6 303.25,-142.6 24.72,-13 49.59,-26.2 72.73,-41.9"
         style="fill:#39393a;fill-opacity:1;fill-rule:nonzero;stroke:none"
         id="path258" />
      <path
         d="m 5161.64,13330.8 c 49.12,-11.8 57.81,-28.3 105,-51 58.33,-28.1 115.76,-58.2 172.43,-89.5 87.89,-48.6 196.06,-99.1 265.45,-174 2.69,-2.9 5.34,-5.8 7.7,-9 56.09,-75.6 58.53,-331.6 53.65,-348.7 -4.88,-17.1 -637.91,-67.1 -669.42,23.2 -26.62,76.2 -6.24,157.2 -9.14,236.7 -4.2,114.8 -10.48,251.6 1.83,354 1.02,8.5 49.38,63.8 72.5,58.3"
         style="fill:#39393a;fill-opacity:1;fill-rule:nonzero;stroke:none"
         id="path260" />
      <path
         d="m 5767.55,12500.1 c 39.78,-117.1 17.83,-414.6 -30.94,-456 -48.78,-41.5 -560.9,-39.6 -614.55,-37.2 -53.65,2.5 -50.32,259.1 -51.21,342 -0.89,82.9 -6.49,223.9 25.22,236.1 31.7,12.2 262.54,10.2 333.27,-16.6 70.71,-26.9 338.21,-68.3 338.21,-68.3"
         style="fill:#39393a;fill-opacity:1;fill-rule:nonzero;stroke:none"
         id="path262" />
      <path
         d="m 5767.55,11909.9 c -11.43,-180.4 -124.21,-1657.2 -566.56,-1761.3 -41.46,-9.8 -85.7,-54.4 -98.2,-30 -32.93,78 -32.88,1645 -32.88,1713.3 0,68.3 104.65,75.3 158.3,89.9 53.64,14.6 487.21,27.1 513.27,7.6 26.07,-19.5 26.07,-19.5 26.07,-19.5"
         style="fill:#39393a;fill-opacity:1;fill-rule:nonzero;stroke:none"
         id="path264" />
      <path
         d="m 6314.43,12261.5 c -2.79,6.9 -11.85,8 -16.95,2.7 -206,-215.3 -350.21,-280.6 -390.17,-312.8 -37.79,-30.5 -48.77,-699.9 -92.67,-865.7 -19.75,-74.7 -57.73,-149 -24.59,-165 43.88,-21.3 159.64,32.1 192.6,68 l 392.89,428.6 c 0,0 -8.72,715.7 -61.11,844.2"
         style="fill:#39393a;fill-opacity:1;fill-rule:nonzero;stroke:none"
         id="path266" />
      <path
         d="m 5978.04,13753.6 c 165.83,-141.5 239.46,-208.9 257.28,-240.2 19.84,-34.9 -225.58,-232.9 -291.43,-254.9 -65.84,-21.9 -29.26,180.5 -29.26,236.6 0,56.1 -4.88,275.5 0,290.2 4.88,14.6 63.41,-31.7 63.41,-31.7"
         style="fill:#39393a;fill-opacity:1;fill-rule:nonzero;stroke:none"
         id="path268" />
      <path
         d="m 6256.85,13380.2 c -4.38,13.9 -21.72,18.7 -32.32,8.7 -75.82,-71.6 -284.95,-178.7 -296.79,-217 -9.2,-29.6 -29.01,-246 -2.18,-253.3 26.82,-7.3 393.58,246.9 389.01,270 -6.07,30.7 -40.48,137 -57.72,191.6"
         style="fill:#39393a;fill-opacity:1;fill-rule:nonzero;stroke:none"
         id="path270" />
      <path
         d="m 5498.83,16691 c -164.61,-132.9 -167.76,-278.3 -240.2,-423.1 -208.51,-417.1 -132.6,-668.7 -84.19,-616.8 140.99,151 287.82,633.8 309.76,674.1 21.95,40.2 14.63,365.8 14.63,365.8"
         style="fill:#39393a;fill-opacity:1;fill-rule:nonzero;stroke:none"
         id="path272" />
      <path
         d="m 5524.2,16086.2 c 19.51,-151.2 7.46,-201.2 -24.2,-281.7 -31.65,-80.5 -209.67,-164.6 -226.74,-176.8 96.32,230.4 185.34,389 226.74,532.8 34.19,-7.3 24.2,-74.3 24.2,-74.3"
         style="fill:#39393a;fill-opacity:1;fill-rule:nonzero;stroke:none"
         id="path274" />
      <path
         d="m 5646.38,16114.2 c 82.91,-100 397.5,-306.7 485.29,-334.1 14.63,-56.7 -446.28,-108.5 -504.81,-62.2 -58.52,46.4 -58.52,345.1 -48.77,396.3 9.76,51.2 68.29,0 68.29,0"
         style="fill:#39393a;fill-opacity:1;fill-rule:nonzero;stroke:none"
         id="path276" />
         <!--Anterior Deltoid, Lateral Deltoid-->
      <path
         d="m 6210.8,15575.3 c 44.02,-28.7 104.38,-41.9 152.14,-64 140.72,-64.8 271.26,-135.1 269.95,-307.7 -1.03,-134.4 -17.15,-279.8 55.62,-392.7 46.31,-71.9 107.44,-132.2 161.63,-197.9 53.58,-64.9 85.2,-123.8 176.53,-76.1 214.21,112 362.22,332.1 343.3,578.6 -10.47,136.3 -72.3,267.9 -169.35,364 -107.73,106.7 -212.39,211.6 -351.52,279.1 -190.65,92.5 -402.92,58.5 -574.76,-60 -62.19,-42.9 -63.54,-123.3 -63.54,-123.3"
         style="fill:#17a589;fill-opacity:1;fill-rule:nonzero;stroke:none"
         id="path278" />
      <path
         d="m 6847.47,14122 c 89.64,-333.4 434.62,-1075.9 440.24,-1093.4 13.73,-42.6 -13.21,-99.1 -48.23,-124.6 -54.85,-39.9 -112.51,44.6 -142.09,81 -199.97,246.7 -376.58,710.8 -404.82,824.7 -33.85,136.4 -141.45,329.2 -97.55,558.4 43.9,229.3 82.91,336.6 102.43,312.2 25.71,-32.3 31.28,-99.6 41.28,-138.1 27.03,-104.1 41.26,-211.6 70.82,-314.2 10.35,-35.9 28.11,-69.5 37.92,-106"
         style="fill:#39393a;fill-opacity:1;fill-rule:nonzero;stroke:none"
         id="path280" />
      <path
         d="m 7177.87,14378.7 c 113.5,-58.5 305.93,-392.9 332.88,-559.7 49.99,-309.4 34.8,-478 37.79,-569.4 3,-91.5 -160.95,-73.2 -297.52,51.2 -85.04,77.4 -313.91,597.5 -268.25,854.3 33.34,187.6 92.67,267.5 195.1,223.6"
         style="fill:#39393a;fill-opacity:1;fill-rule:nonzero;stroke:none"
         id="path282" />
      <path
         d="m 7599.76,13112.6 c -122.36,60.9 -62.87,-740.5 21.94,-951.5 90.23,-224.4 207.98,-523.3 321.91,-797.4 68.13,-164 260.94,-758.5 343.86,-797.5 82.91,-39 4.87,353.6 -34.15,509.7 -39.02,156.1 -151.2,805.1 -185.34,926.9 -34.14,121.7 -9.75,461.2 -97.55,586.5 -87.79,125.4 -190.21,433.4 -370.67,523.3"
         style="fill:#39393a;fill-opacity:1;fill-rule:nonzero;stroke:none"
         id="path284" />
      <path
         d="m 7266.87,12709.8 c -63.4,-239 35.98,-466.4 84.75,-607.8 48.77,-141.5 144.49,-279.9 232.29,-416.4 87.79,-136.6 329.59,-704.9 386.52,-856 136.46,-362.2 202.42,-258.5 148.76,-121.9 -53.65,136.5 -154.85,446.2 -218.26,592.6 -63.4,146.3 -81.69,233 -157.29,398.7 -74.38,163 -159.73,337.7 -213.39,484.1 -53.65,146.3 -78.03,502.3 -165.83,526.7 -87.79,24.4 -97.55,0 -97.55,0"
         style="fill:#39393a;fill-opacity:1;fill-rule:nonzero;stroke:none"
         id="path286" />
      <path
         d="m 7488.8,11703.3 c 107.74,-136.6 191.04,-316 245.08,-442.1 49.95,-116.5 97.9,-233.9 144.31,-351.9 43.01,-109.3 86.92,-219.3 120.55,-332 5.61,-18.7 22.33,-46.4 14.37,-66.1 -20.24,16.4 -30.07,41.6 -42.83,63.5 -13.42,23 -26.08,46.4 -38.35,70 -28.99,55.8 -55.8,112.7 -81.9,169.9 -59.22,129.8 -114.53,261.3 -171.42,392.2 -48.88,112.4 -97.32,226 -156.38,333.5 -2.94,5.4 -5.91,10.7 -8.93,16 -141.44,248.8 -185.34,317.1 -243.87,463.4 -58.52,146.3 -185.33,385.3 -165.83,429.2 13.59,30.5 62.61,79.5 84.02,95.1 7.47,5.4 13.93,-42 14.63,-51.2 23.11,-304.8 188.99,-665.9 286.55,-789.5"
         style="fill:#39393a;fill-opacity:1;fill-rule:nonzero;stroke:none"
         id="path288" />
      <path
         d="m 6168.25,6843.6 c -76.82,0 -332.99,-18.3 -362.2,-47.6 -29.2,-29.2 -84.08,-435.3 76.88,-654.8 160.95,-219.4 299.96,-106 343.85,22 43.9,128 179.24,486.5 128.03,596.2 -51.21,109.8 -186.56,84.2 -186.56,84.2"
         style="fill:#39393a;fill-opacity:1;fill-rule:nonzero;stroke:none"
         id="path290" />
      <path
         d="m 5681.74,6594.8 c 54.87,-252.4 91.19,-362.1 263.37,-702.3 141.14,-278.9 190.4,-537.7 124.46,-530.4 -65.93,7.3 -303.7,556.4 -340.28,658.5 -36.58,102.1 -146.65,414.8 -155.47,479.1 -12.44,90.9 16.47,150 38.42,175.6 21.94,25.6 69.5,-80.5 69.5,-80.5"
         style="fill:#39393a;fill-opacity:1;fill-rule:nonzero;stroke:none"
         id="path292" />
      <path
         d="m 5702.47,5847.4 c 63.4,-195.1 287.76,-497.5 302.39,-687.7 14.63,-190.2 -133.21,-1407.2 -117.06,-1558.3 -59.41,103.2 -133.98,580.5 -238.99,831.5 -64.67,154.7 -113.97,360.5 0,1053.6 33.25,202.1 53.66,360.9 53.66,360.9"
         style="fill:#39393a;fill-opacity:1;fill-rule:nonzero;stroke:none"
         id="path294" />
      <path
         d="m 6366.22,6401 c -80.91,-548.7 -351.61,-1858.3 -380.87,-2443.6 -29.26,-585.3 -7.31,-508.5 18.29,-556 25.61,-47.6 259.72,602.3 332.88,968.1 73.16,365.8 160.95,1258.4 126.81,1599.8 -34.14,341.4 -19.51,604.8 -53.65,590.2 -34.14,-14.7 -43.46,-158.5 -43.46,-158.5"
         style="fill:#39393a;fill-opacity:1;fill-rule:nonzero;stroke:none"
         id="path296" />
      <path
         d="m 6575.51,5764.5 c 34.14,-400 19.51,-1146.2 -34.14,-1458.4 -53.65,-312.1 -219.48,-941.3 -234.11,-1048.6 -14.64,-107.3 34.14,-229.2 0,-268.3 -34.15,-39 -151.2,204.8 -131.69,409.7 19.51,204.9 167.38,726.8 208.06,931.6 40.68,204.9 143.11,721.9 138.23,902.3 -4.88,180.5 -4.88,409.7 -14.63,590.2 -9.76,180.4 -34.14,253.6 0,253.6 34.14,0 68.28,-312.1 68.28,-312.1"
         style="fill:#39393a;fill-opacity:1;fill-rule:nonzero;stroke:none"
         id="path298" />
      <path
         d="m 6322.86,2530.8 c -91.12,-167.1 -409.7,-239 -453.6,-400 -68.28,63.4 -121.93,321.9 -87.79,468.3 34.14,146.3 63.41,253.6 97.55,302.4 34.14,48.7 44.1,73.2 78.04,121.9 30.35,43.6 134.12,153 212.16,65.2 78.04,-87.8 64.36,-128.6 82.18,-245.7 17.81,-117 100.72,-258.5 71.46,-312.1"
         style="fill:#39393a;fill-opacity:1;fill-rule:nonzero;stroke:none"
         id="path300" />
      <path
         d="m 6047.54,3273.3 c -179.24,-162.1 -226.8,-395 -226.8,-336.5 0,58.5 -10.97,223.2 54.87,296.3 65.84,73.2 101.7,84.1 144.13,84.1 42.43,0 27.8,-43.9 27.8,-43.9"
         style="fill:#39393a;fill-opacity:1;fill-rule:nonzero;stroke:none"
         id="path302" />
      <path
         d="m 6267.02,2267.4 c 54.87,-142.7 362.14,-489 398.72,-558.5 36.58,-69.5 -209.72,-141.4 -260.94,-141.4 -51.21,0 -209.72,-30.5 -246.3,-48.8 -36.58,-18.3 -45.12,115.9 -48.78,159.8 -3.66,43.9 -139.72,263.3 -89.98,369.4 49.75,106.1 -73.41,73.2 30.23,139 103.65,65.9 217.05,80.5 217.05,80.5"
         style="fill:#39393a;fill-opacity:1;fill-rule:nonzero;stroke:none"
         id="path304" />
      <path
         d="m 5980.47,1949.2 c 0,-84.2 2.94,-186.6 52.68,-311 49.75,-124.4 -10.97,-160.9 -26.33,-153.6 -15.37,7.3 -121.45,29.2 -121.45,29.2 0,0 -40.24,65.9 -29.27,106.1 10.97,40.3 -97.55,156.4 -39.02,252.4 58.53,96.1 73.43,206.1 87.8,239 14.36,32.9 75.59,-162.1 75.59,-162.1"
         style="fill:#39393a;fill-opacity:1;fill-rule:nonzero;stroke:none"
         id="path306" />
      <path
         d="m 8412.84,10429.6 c -20.16,3.5 -40.49,4.4 -60.87,2 -116.2,-13.7 -318.67,-37.2 -364.82,-168.6 -5.35,-15.2 -5.76,-31.7 -5.91,-47.9 -1.55,-171.3 19.26,-343.1 63.36,-508.7 8.28,-31.1 17.95,-62.5 36.38,-88.9 104,-148.9 384.39,-47.6 501.71,26.6 105.97,67.1 265.27,171 272.63,307.3 6.53,121.2 -65.96,251.3 -163.55,320.5 -79.93,56.6 -177.32,140.1 -278.93,157.7"
         style="fill:#39393a;fill-opacity:1;fill-rule:nonzero;stroke:none"
         id="path308" />
      <path
         d="m 8243.33,9483.4 c 1.4,-77.5 2.48,-155 1.98,-232.5 -0.46,-49.9 -1.95,-99.8 -6.94,-149.4 -4.16,-41.3 -5.16,-117.8 -31.19,-150.3 -15.5,-19.4 -59.15,99.7 -60.6,106.9 -6.78,33.8 -5.58,453.7 -23.88,455.9 40.78,-4.8 81.95,-17.1 120.63,-30.6"
         style="fill:#39393a;fill-opacity:1;fill-rule:nonzero;stroke:none"
         id="path310" />
      <path
         d="m 8486.22,9489.7 c 32.24,-135.3 43.51,-276.9 66.48,-414.1 7.52,-44.9 15.09,-89.8 22.07,-134.7 9.23,-59.6 19.39,-108.7 12.74,-169.9 -0.62,-5.7 -1.46,-11.7 -5.13,-16.1 -16.94,-20.2 -57.22,0.4 -69.62,15.8 -13.67,16.9 -19.21,38.9 -22.71,60.4 -9.74,59.9 -23.93,118.9 -36.01,178.4 -18.32,90.1 -35.55,180.5 -53.78,270.6 -11.2,55.4 -22.4,110.8 -33.6,166.2 -1.37,6.7 -2.67,14 0.3,20.2 6.09,12.7 118.93,24.6 119.26,23.2"
         style="fill:#39393a;fill-opacity:1;fill-rule:nonzero;stroke:none"
         id="path312" />
      <path
         d="m 8700.59,9549.8 c 19.37,-20.2 32.42,-94 38.56,-112.4 16.82,-50.4 34.7,-100.4 53.13,-150.2 36.19,-97.8 74.56,-194.8 111.57,-292.3 24.69,-65 57.09,-127.8 56.23,-199.1 -0.46,-38.1 -47.63,-19.3 -67.56,-9.9 -63.87,30.3 -71.98,80.5 -95.98,139.7 -18.55,45.7 -37.56,91.3 -56.71,136.9 -59.39,141.1 -119.59,281.7 -187.31,419.2 -2.53,5.1 -5.1,10.4 -5.68,16 -5.18,50.6 113.68,56 143.55,57.1 3.57,0.2 6.97,-1.7 10.2,-5"
         style="fill:#39393a;fill-opacity:1;fill-rule:nonzero;stroke:none"
         id="path314" />
      <path
         d="m 8869.29,9706.2 c 34.45,-28.9 107.15,-193.3 119.86,-216.8 36.5,-67.4 72.91,-134.9 109.3,-202.5 29.38,-54.5 86.97,-126 93.77,-188.8 2.06,-15.5 16.34,-100.7 -21.57,-83.4 -5.68,2.6 -10.01,7.4 -14.14,12 -100.01,113.4 -177.73,239.2 -263.6,362.9 -25.19,36.3 -49.14,73.5 -75.83,108.7 -22.98,30.3 -62.34,58.5 -80.49,91 -7.88,14.1 -6.92,31.3 -5.74,47.4 0.42,5.7 0.93,11.8 3.99,16.7 2.82,4.6 7.46,7.6 12.02,10.4 34.68,21.2 72.69,37 112.21,46.6 2.8,0.7 6.26,-0.9 10.22,-4.2"
         style="fill:#39393a;fill-opacity:1;fill-rule:nonzero;stroke:none"
         id="path316" />
      <path
         d="m 8897.13,10212.6 c 60.97,-58.5 160.96,-172.8 202.41,-259.5 41.46,-86.8 219.48,-120.9 221.92,-174.6 2.44,-53.6 14.63,-87.8 -9.75,-90.2 -24.39,-2.4 -117.06,-7.3 -173.15,43.9 -56.09,51.2 -97.54,80.5 -134.13,131.7 -36.57,51.2 -68.28,112.2 -85.35,192.6 -17.07,80.5 -65.84,192.7 -65.84,192.7 l 43.89,-36.6"
         style="fill:#39393a;fill-opacity:1;fill-rule:nonzero;stroke:none"
         id="path318" />
      <path
         d="m 5027.48,16570.2 c -4.11,-190.2 -24.02,-509.6 1.14,-580.4 25.15,-70.7 85.44,180.5 167.48,353.6 82.03,173.2 51.15,108.2 73.09,186.2 21.95,78 150.39,70.7 62.6,78 -87.8,7.3 -304.31,-37.4 -304.31,-37.4"
         style="fill:#39393a;fill-opacity:1;fill-rule:nonzero;stroke:none"
         id="path320" />
      <path
         d="m 6052.48,10930.3 c -150.11,-112.2 -618.34,-707.2 -770.86,-1453.5 0,0 79.85,-267.2 186.98,-243.8 23.83,5.2 367.92,1101 642.27,1609.5 78.65,145.8 84.14,223.1 84.14,223.1 l -142.53,-135.3"
         style="fill:#39393a;fill-opacity:1;fill-rule:nonzero;stroke:none"
         id="path322" />
      <path
         d="m 6277.99,10925.9 c -186.42,-620.6 -806.75,-2976.8 -795.62,-3343.4 -186.44,533.5 -33.53,1235.2 195.71,1909.5 191.7,563.9 599.91,1433.9 599.91,1433.9"
         style="fill:#39393a;fill-opacity:1;fill-rule:nonzero;stroke:none"
         id="path324" />
      <path
         d="m 6375.54,10793 c -117.06,-545.9 -517.2,-1425.6 -567.94,-2187.5 -48.9,-734.2 37.53,-1477.9 174.09,-1536.5 136.57,-58.5 368.68,908 408.48,1070.7 100.94,412.8 322.88,1166.5 298.49,1555.9 -21.05,336.1 -77.66,512.3 -122.9,668.2 -60.79,209.5 -190.22,429.2 -190.22,429.2"
         style="fill:#39393a;fill-opacity:1;fill-rule:nonzero;stroke:none"
         id="path326" />
      <path
         d="m 6636.48,8907.9 c -24.39,-219.5 -171.93,-937.7 -358.49,-1402.2 -86.88,-216.4 -112.18,-448.7 -43.89,-521.9 68.28,-73.2 146.32,331.7 253.62,502.4 107.3,170.7 196.89,721.7 202.8,943.7 7.7,289.8 55.7,517 31.31,595.1 -24.38,78 -85.35,-117.1 -85.35,-117.1"
         style="fill:#39393a;fill-opacity:1;fill-rule:nonzero;stroke:none"
         id="path328" />
      <path
         d="m 5753.37,8437.2 c -75.29,-840.1 133.75,-1248.5 22.25,-1424.1 -111.49,-175.6 -199.1,-99.4 -185.33,-2.5 24.43,172.2 -106.09,452 0,948.7 56.08,262.6 163.08,477.9 163.08,477.9"
         style="fill:#39393a;fill-opacity:1;fill-rule:nonzero;stroke:none"
         id="path330" />
      <path
         d="m 5241.55,9368.8 c 90.24,-134.1 212.17,-258.9 209.73,-301.4 -2.44,-42.4 -126.81,-686.2 -119.49,-759.4 -75.6,73.2 -146.33,951.1 -141.45,1031.6 4.88,80.4 51.21,29.2 51.21,29.2"
         style="fill:#39393a;fill-opacity:1;fill-rule:nonzero;stroke:none"
         id="path332" />
    </g>
  </g>
</svg>
